<?xml version="1.0" standalone="no"?>
<!DOCTYPE svg PUBLIC "-//W3C//DTD SVG 1.1//EN" "http://www.w3.org/Graphics/SVG/1.1/DTD/svg11.dtd" >
<svg xmlns="http://www.w3.org/2000/svg" xmlns:xlink="http://www.w3.org/1999/xlink" version="1.1">
<metadata>
Copyright   : Copyright 2015 Luc(as) de Groot. All rights reserved. Published by LucasFonts.com
Designer    : Luc(as) de Groot
Foundry     : LucasFonts
Foundry URL : http://lucasfonts.com</metadata>
<defs>
<font id="TheAntiquaB_LT_500_italic" horiz-adv-x="550" >
<font-face units-per-em="1000" ascent="740" descent="-260" />
<missing-glyph horiz-adv-x="218" />
<glyph unicode=" "  horiz-adv-x="218" />
<glyph unicode="&#x09;" horiz-adv-x="218" />
<glyph unicode="&#xa0;" horiz-adv-x="218" />
<glyph unicode="!" horiz-adv-x="301" d="M153 181h-51l78 523h103zM167 55q0 -28 -18 -45.5t-45 -17.5q-26 0 -41.5 16t-15.5 41q0 27 18 45.5t45 18.5q26 0 41.5 -16t15.5 -42z" />
<glyph unicode="&#x22;" horiz-adv-x="346" d="M316 514h-39l21 222h82zM160 514h-41l22 222h82z" />
<glyph unicode="#" horiz-adv-x="669" d="M527 457l-64 -217h141l-9 -45h-145l-58 -195h-71l57 195h-150l-57 -195h-72l57 195h-142l8 45h147l64 217h-143l10 45h147l51 173h71l-51 -173h150l51 173h72l-51 -173h140l-9 -45h-144zM304 457l-63 -217h150l64 217h-151z" />
<glyph unicode="$" horiz-adv-x="473" d="M421 461h-35q-6 20 -10.5 46.5t-5.5 52.5q-14 5 -35 8t-35 3q-60 0 -89.5 -28.5t-29.5 -73.5q0 -30 17 -51t42 -38t55 -32.5t55 -35.5t42 -47t17 -66q0 -43 -16.5 -77.5t-45 -60t-65.5 -42t-79 -22.5l-25 -131h-50l24 127q-38 1 -71.5 5t-63.5 13l31 164h36 q6 -26 10.5 -53t5.5 -50q15 -9 36 -14.5t53 -5.5q23 0 45.5 6t40 19.5t28.5 35t11 52.5q0 32 -16.5 53.5t-41.5 38.5t-54 32.5t-54 35.5t-41.5 47t-16.5 68q0 40 15 72t41.5 55t61.5 37.5t75 19.5l20 105h50l-20 -104q63 0 117 -14z" />
<glyph unicode="%" horiz-adv-x="785" d="M392 562q0 -42 -12.5 -84t-37.5 -76t-61 -54t-81 -20q-52 0 -82.5 30.5t-30.5 89.5q0 42 12.5 84t37.5 76t61 54t81 20q25 0 46 -7.5t36 -22.5t23 -37.5t8 -52.5zM321 556q0 40 -15.5 59t-44.5 19q-50 0 -76.5 -59t-26.5 -121q0 -40 15.5 -59t44.5 -19q50 0 76.5 59 t26.5 121zM102 -23l-34 31l644 690l33 -31zM721 227q0 -42 -12.5 -84t-37.5 -76t-61 -54t-81 -20q-52 0 -82.5 30.5t-30.5 89.5q0 42 12.5 84t37.5 76t61 54t81 20q52 0 82.5 -30.5t30.5 -89.5zM650 221q0 40 -15.5 59t-44.5 19q-50 0 -76.5 -59t-26.5 -121q0 -40 15.5 -59 t44.5 -19q50 0 76.5 59t26.5 121z" />
<glyph unicode="&#x26;" horiz-adv-x="770" d="M726 418q-14 -9 -31 -16t-34 -11q-15 -74 -46.5 -136.5t-76.5 -112.5q19 -20 39.5 -40.5t41.5 -43.5q14 -5 29.5 -12t26.5 -15l-4 -31h-133q-20 20 -38 38.5t-36 37.5q-54 -41 -116.5 -63t-131.5 -22q-45 0 -79.5 11t-58 32t-36 50.5t-12.5 64.5q0 44 15.5 78t40.5 62.5 t57.5 52t66.5 45.5q-18 30 -29.5 54.5t-18 45t-9 37.5t-2.5 31q0 27 11 59t36 59.5t65 46t97 18.5q31 0 57 -8t45 -23t29.5 -34.5t10.5 -42.5q0 -38 -16 -69t-41.5 -58.5t-59 -52t-68.5 -49.5q29 -42 74 -96.5t110 -125.5q31 39 53 92t32 120q-16 3 -30.5 10.5t-28.5 16.5 l6 28h199zM411 623q0 11 -3 22.5t-12 21.5t-22.5 17t-34.5 7q-17 0 -34.5 -8.5t-31 -23t-22.5 -34.5t-9 -45t9.5 -58t39.5 -82q25 17 46.5 36.5t38 41.5t26 47.5t9.5 57.5zM427 113q-67 72 -112.5 129.5t-76.5 103.5q-23 -18 -44 -37.5t-36 -41t-24 -45.5t-9 -51 q0 -31 12 -53t31.5 -35.5t44 -20.5t49.5 -7q41 0 83.5 14.5t81.5 43.5z" />
<glyph unicode="'" horiz-adv-x="189" d="M160 514h-41l22 222h82z" />
<glyph unicode="(" horiz-adv-x="300" d="M362 751q-56 -72 -98 -153.5t-70.5 -166.5t-42.5 -169t-14 -164q0 -75 12 -144.5t37 -133.5l-49 -24q-44 86 -63.5 168.5t-19.5 164.5q0 171 68.5 335.5t199.5 310.5z" />
<glyph unicode=")" horiz-adv-x="300" d="M250 444q0 -173 -70 -338t-199 -310l-39 23q54 69 96 150.5t71 167t43.5 170.5t14.5 163q0 74 -12.5 144.5t-37.5 135.5l50 25q43 -85 63 -167.5t20 -163.5z" />
<glyph unicode="*" horiz-adv-x="363" d="M264 586l103 -47l-39 -52l-81 76l-9 -124h-58l39 124l-111 -76l-18 51l121 47l-103 48l39 51l81 -74l8 122h59l-38 -122l110 74l18 -50z" />
<glyph unicode="+" d="M304 241l-42 -218h-72l42 218h-206l13 63h206l40 217h72l-41 -217h206l-12 -63h-206z" />
<glyph unicode="," horiz-adv-x="222" d="M68 114q26 0 41.5 -16.5t15.5 -45.5q0 -25 -11 -50.5t-31.5 -50.5t-49 -49t-63.5 -46l-23 29q21 14 35 28t23.5 28t14.5 27.5t5 27.5q0 10 -2.5 16l-5 12t-5 12.5t-2.5 16.5q0 13 4 24t12 19t18.5 13t23.5 5z" />
<glyph unicode="-" horiz-adv-x="311" d="M263 253h-227l14 68h225z" />
<glyph unicode="&#xad;" horiz-adv-x="311" d="M263 253h-227l14 68h225z" />
<glyph unicode="." horiz-adv-x="225" d="M131 56q0 -28 -18.5 -46.5t-45.5 -18.5t-43 17t-16 44t18 45.5t45 18.5t43.5 -17t16.5 -43z" />
<glyph unicode="/" horiz-adv-x="426" d="M-19 -173l-61 25l517 918l61 -25z" />
<glyph unicode="0" d="M204 -9q-86 0 -129 53.5t-43 158.5q0 56 9 113.5t26.5 111.5t45 100.5t64 81.5t83 54.5t101.5 19.5q89 0 134.5 -53.5t45.5 -150.5q0 -58 -9 -116.5t-27.5 -113.5t-46 -102t-65 -82.5t-85.5 -55t-104 -19.5zM444 468q0 70 -26 111t-85 41q-34 0 -62.5 -17.5t-51.5 -48.5 t-39.5 -71.5t-27.5 -85t-16.5 -89.5t-5.5 -86q0 -85 22.5 -125.5t80.5 -40.5q36 0 66.5 17.5t54 48t40.5 71t28 86.5t16.5 94t5.5 95z" />
<glyph unicode="1" d="M36 0l5 33q26 8 73.5 17t88.5 14l101 534l-157 -63l-9 41l212 104h66l-117 -616q28 -5 67 -14t67 -18l-5 -32h-392z" />
<glyph unicode="2" d="M444 0h-453l9 53l228 207q27 24 59 56.5t59.5 69t46 74.5t18.5 74q0 42 -23 69.5t-77 27.5q-27 0 -53 -7.5t-44 -16.5q-10 -23 -25 -48.5t-34 -48.5h-38l32 137q42 17 91.5 27t95.5 10q89 0 133.5 -35t44.5 -99q0 -48 -22 -92.5t-54.5 -83.5t-69.5 -71.5t-66 -56.5 l-204 -175h289q9 19 25 46t33 51h38z" />
<glyph unicode="3" d="M479 230q0 -59 -28.5 -103.5t-75 -74.5t-105 -45.5t-118.5 -15.5q-19 0 -40 1.5t-41.5 4.5t-39 7t-33.5 9l30 72q32 -16 74 -27t83 -11q53 0 89 15.5t58 39.5t31.5 53t9.5 56q0 58 -49 86t-139 28q-27 0 -55 -3l10 50h18q43 0 87.5 10.5t81 31.5t59.5 54t23 78 q0 39 -24.5 62.5t-78.5 23.5q-28 0 -49 -5.5t-38 -11.5q-9 -22 -24 -47t-33 -46h-37l29 132q43 13 88 21t86 8q87 0 134 -32.5t47 -91.5q0 -38 -15.5 -68.5t-41 -54t-58 -40.5t-67.5 -28q32 -3 59.5 -13.5t48 -28t32.5 -42t12 -54.5z" />
<glyph unicode="4" d="M391 168l-20 -107q37 -11 71 -30l-6 -31h-248l5 31q40 20 84 30l20 107h-289l3 60l366 447h111l-83 -438h113l-13 -69h-114zM382 604h-1l-302 -367h233z" />
<glyph unicode="5" d="M143 -8q-33 0 -71 4t-66 11l27 73q29 -14 67.5 -22t76.5 -8q37 0 70.5 12t60 34.5t41.5 53.5t15 69q0 67 -50.5 99.5t-155.5 32.5q-16 0 -30 -0.5t-20 -0.5l90 325h317l-16 -80h-260l-47 -167q135 -3 204.5 -52.5t69.5 -135.5q0 -57 -28.5 -103.5t-76 -78.5t-105 -49 t-113.5 -17z" />
<glyph unicode="6" d="M510 262q0 -56 -20.5 -105.5t-58 -86.5t-89.5 -58.5t-115 -21.5q-91 0 -138 50.5t-47 145.5q0 37 7 88.5t24.5 106.5t47.5 109.5t76.5 97.5t110 69.5t149.5 26.5q21 0 39 -1t29 -2l-15 -56q-15 2 -32 3.5t-31 1.5q-58 0 -103 -21t-79.5 -56.5t-58.5 -81.5t-39 -95 q-3 -9 -6.5 -18.5t-6.5 -17.5l1 -1q30 38 72 61t99 23q87 0 135.5 -42.5t48.5 -118.5zM249 45q44 0 75 19.5t50.5 49.5t28.5 64.5t9 64.5q0 52 -29 85t-85 33q-36 0 -66 -16t-52.5 -42.5t-35 -60t-12.5 -69.5q0 -26 7 -49t21 -40.5t36.5 -28t52.5 -10.5z" />
<glyph unicode="7" d="M572 612q-103 -142 -199 -299t-175 -313h-107q47 82 97 161t101 153.5t102 144.5t104 137h-309q-10 -23 -24 -47.5t-29 -42.5h-38l40 169h449z" />
<glyph unicode="8" d="M209 -12q-43 0 -78.5 10t-60.5 28t-38.5 43t-13.5 56q0 39 16.5 71.5t44 58t60.5 45t74 37.5q-22 14 -41 29t-34.5 33t-24.5 39.5t-9 45.5q0 47 20.5 85t56 64t81.5 40t97 14q42 0 74.5 -9.5t54.5 -27t33.5 -41.5t11.5 -52q0 -38 -14.5 -68t-39 -52.5t-53 -40 t-69.5 -37.5q28 -14 50.5 -29.5t40 -35.5t27.5 -43.5t10 -51.5q0 -53 -23.5 -93t-63 -66t-88.5 -39t-101 -13zM440 545q0 40 -27.5 64t-79.5 24q-27 0 -51.5 -9.5t-43.5 -26t-29.5 -39.5t-10.5 -49q0 -20 9.5 -38.5t25.5 -34.5t35 -28.5t40 -22.5q31 16 53.5 31.5t40.5 34 t28 42t10 52.5zM389 173q0 22 -9.5 41.5t-26.5 36.5t-39.5 31.5t-50.5 28.5q-66 -34 -108.5 -74t-42.5 -100q0 -44 35 -68.5t95 -24.5q29 0 55.5 8.5t47 24.5t32.5 40.5t12 55.5z" />
<glyph unicode="9" d="M346 684q93 0 140 -54t47 -142q0 -63 -13.5 -124.5t-40 -117t-64 -102.5t-85.5 -81t-105 -53t-121 -19q-24 0 -46.5 2t-42.5 6l23 66q24 -8 47.5 -13t46.5 -5q52 0 95 17t77 50.5t60 81t45 110.5q2 7 7 20t6 16l-1 1q-28 -39 -80 -65t-106 -26q-85 0 -129.5 43.5 t-44.5 113.5q0 57 20.5 107t59 88t91 59t114.5 21zM157 429q0 -56 30 -85.5t87 -29.5q35 0 65.5 15t52.5 41.5t34 60.5t12 71q0 26 -7.5 49t-22.5 41t-37.5 28t-51.5 10q-43 0 -74 -17.5t-50.5 -46.5t-28.5 -64.5t-9 -72.5z" />
<glyph unicode=":" horiz-adv-x="285" d="M234 353q0 -28 -18.5 -46.5t-45.5 -18.5t-43 16.5t-16 43.5t18 46t45 19t43.5 -17t16.5 -43zM176 56q0 -28 -18.5 -46.5t-45.5 -18.5t-43 17t-16 44t18 45.5t46 18.5q26 0 42.5 -17t16.5 -43z" />
<glyph unicode=";" horiz-adv-x="285" d="M234 353q0 -15 -5 -27t-14 -20.5t-20.5 -13t-24.5 -4.5q-14 0 -25 4.5t-18.5 12.5t-11.5 18.5t-4 24.5q0 13 4.5 25t13.5 21t20.5 14t24.5 5t24 -4.5t19 -12.5t12.5 -19.5t4.5 -23.5zM111 114q26 0 41.5 -16.5t15.5 -45.5q0 -25 -11 -50.5t-31 -50.5t-49 -49t-63 -46 l-23 29q20 14 34.5 28t24 28t14 27.5t4.5 27.5q0 10 -2 16t-5 12t-5 12.5t-2 16.5q0 13 4 24t11.5 19t18 13t23.5 5z" />
<glyph unicode="&#x3c;" d="M341 -8l-264 280l371 286l40 -53l-312 -236l222 -225z" />
<glyph unicode="=" d="M507 331h-444l12 64h444zM473 149h-444l12 64h444z" />
<glyph unicode="&#x3e;" d="M102 -7l-43 52l312 236l-220 225l58 52l263 -280z" />
<glyph unicode="?" horiz-adv-x="412" d="M399 546q0 -40 -16 -69t-35.5 -45.5t-60.5 -47.5t-63 -55.5t-33.5 -61t-4.5 -86.5h-78q-8 48 3 84t32.5 62t48.5 48t57.5 47.5t46 50t15.5 55.5q0 21 -12.5 39.5t-35 32.5t-52 22.5t-63.5 11.5l26 79q40 -2 80 -14.5t73 -33.5t52.5 -51.5t19.5 -67.5zM194 55 q0 -28 -18 -45.5t-45 -17.5t-42.5 16t-15.5 41q0 27 18 45.5t46 18.5q26 0 41.5 -16t15.5 -42z" />
<glyph unicode="@" horiz-adv-x="974" d="M914 427q0 -74 -22 -136t-60 -105.5t-85 -66.5t-95 -23q-28 0 -49.5 9t-35 25t-17 38.5t3.5 49.5q-11 -21 -29 -43t-41.5 -40t-49.5 -28.5t-51 -10.5q-46 0 -69.5 28.5t-23.5 82.5q0 62 18 117.5t52.5 97.5t82.5 66t105 24q31 0 65 -3.5t63 -9.5l-54 -216 q-7 -29 -8 -53.5t5.5 -42.5t21 -28.5t36.5 -10.5q26 0 53 17t50 50.5t36.5 82t13.5 109.5q0 52 -15.5 98t-48.5 81t-84.5 55t-120.5 20q-87 0 -163 -38t-131 -102.5t-85 -144.5t-30 -162q0 -63 19 -115.5t56 -90.5t91 -58.5t123 -20.5q43 0 91 7.5t89 21.5l11 -49 q-54 -21 -116 -32.5t-113 -11.5q-78 0 -141 23t-107 66t-67 103.5t-23 134.5q0 100 40.5 195.5t113 171t168 119t202.5 43.5q80 0 141.5 -22.5t102 -62.5t61 -93.5t20.5 -115.5zM587 454q-26 7 -64 7q-32 0 -59.5 -20.5t-48 -54t-31.5 -72t-11 -72.5q0 -43 11 -63.5 t32 -20.5t43 16t43 46t38.5 71t28.5 89z" />
<glyph unicode="A" horiz-adv-x="653" d="M359 0l5 30q19 9 39 17t41 14l-20 117h-254l-59 -117q18 -6 32 -14t27 -17l-5 -30h-205l5 30q14 10 31 18t30 13l344 620h66l107 -620q16 -7 28 -14.5t23 -16.5l-6 -30h-229zM360 563h-1l-167 -337h224z" />
<glyph unicode="B" horiz-adv-x="594" d="M577 554q0 -36 -13.5 -68t-36.5 -56.5t-52 -41t-59 -22.5v-1q58 -6 92.5 -41.5t34.5 -92.5q0 -46 -21 -88t-61 -75t-97 -52t-126 -19q-20 0 -82.5 1.5t-93.5 1.5h-78l5 30q20 10 40.5 18t41.5 14l105 551q-30 9 -69 32l6 30h77q19 0 81.5 2t106.5 2q99 0 149 -30t50 -95z M476 542q0 20 -6 36t-20.5 28t-39.5 18.5t-62 6.5q-22 0 -39.5 -1t-36.5 -4l-47 -249q10 -1 24.5 -1h45.5q41 0 74.5 12t57.5 34t36.5 53t12.5 67zM442 224q0 28 -11.5 48t-33 33t-50.5 19t-65 6h-41.5t-24.5 -1l-51 -267q19 -6 42 -10.5t45 -4.5q49 0 85.5 15.5t59.5 41.5 t34 57t11 63z" />
<glyph unicode="C" horiz-adv-x="592" d="M571 500h-38q-6 24 -9.5 51t-3.5 50q-22 11 -48.5 16.5t-60.5 5.5q-68 0 -119 -36t-83.5 -93.5t-47.5 -122.5t-15 -124q0 -86 45 -136.5t138 -50.5q44 0 84.5 10.5t78.5 32.5l12 -43q-43 -33 -98.5 -51t-112.5 -18q-131 0 -191.5 65.5t-60.5 174.5q0 85 26.5 166t78 146 t125.5 102.5t166 37.5q93 0 165 -21z" />
<glyph unicode="D" horiz-adv-x="708" d="M691 442q0 -83 -27 -162t-83 -143t-141 -102t-197 -38q-43 0 -103 1.5t-79 1.5h-77l5 30q20 10 40.5 18t41.5 14l105 551q-19 6 -36.5 14t-33.5 18l6 30h77q17 0 36.5 0.5t56 1.5t62 1.5t49.5 0.5q151 0 224.5 -60t73.5 -177zM589 436q0 47 -13.5 83t-41.5 61t-69.5 38 t-97.5 13q-27 0 -49.5 -1.5t-45.5 -4.5l-106 -559q22 -7 52.5 -11t64.5 -4q67 0 123.5 30.5t97.5 84t63 123.5t22 147z" />
<glyph unicode="E" horiz-adv-x="528" d="M508 527h-39q-6 22 -10 49.5t-4 49.5h-183l-48 -254h146q10 18 20.5 35t22.5 32h32l-34 -181h-33q-6 14 -10 32t-6 35h-147l-52 -274h185q9 23 23 50.5t29 53.5h38l-28 -155h-426l5 30q20 10 40.5 18t41.5 14l105 551q-19 6 -36.5 14t-33.5 18l7 30h423z" />
<glyph unicode="F" horiz-adv-x="498" d="M502 527h-38q-7 30 -10.5 53.5t-2.5 45.5h-179l-50 -261h146q9 18 20 36t22 32h33l-34 -183h-34q-8 24 -11.5 38t-4.5 30h-145l-49 -256q37 -12 74 -32l-5 -30h-250l5 30q20 10 40.5 18t41.5 14l105 551q-19 6 -36.5 14t-33.5 18l7 30h418z" />
<glyph unicode="G" horiz-adv-x="692" d="M664 308q-13 -9 -31 -18t-35 -15l-42 -225q-59 -28 -121.5 -43.5t-127.5 -15.5q-127 0 -196 63.5t-69 191.5q0 76 24.5 152.5t76 141.5t132.5 104.5t189 39.5q106 0 195 -25l-32 -160h-38q-6 24 -9.5 49.5t-3.5 48.5q-27 13 -66 20.5t-77 7.5q-51 0 -93 -16t-73.5 -44 t-54.5 -64.5t-37.5 -78.5t-21.5 -84.5t-7 -83.5q0 -98 51.5 -148.5t149.5 -50.5q64 0 119 20l38 199q-19 6 -36.5 15t-31.5 19l5 32h229z" />
<glyph unicode="H" horiz-adv-x="758" d="M428 0l5 30q19 10 38 18t39 13l50 262h-345l-50 -262q18 -5 34 -12.5t32 -18.5l-6 -30h-241l5 30q21 10 41 18t41 13l105 553q-17 5 -34.5 13t-35.5 18l7 30h241l-7 -30q-21 -11 -40 -18.5t-37 -12.5l-45 -237h346l45 237q-16 5 -32 12.5t-34 18.5l6 30h242l-6 -30 q-23 -11 -43 -18.5t-39 -12.5l-105 -553q18 -5 35 -12.5t35 -18.5l-5 -30h-242z" />
<glyph unicode="I" horiz-adv-x="318" d="M352 645q-10 -5 -33 -14.5t-49 -16.5l-105 -553q23 -7 42.5 -16.5t27.5 -14.5l-5 -30h-246l5 30q10 5 32.5 14.5t49.5 16.5l105 553q-23 7 -42.5 16.5t-27.5 14.5l7 30h245z" />
<glyph unicode="J" horiz-adv-x="301" d="M333 645q-17 -10 -34.5 -18.5t-34.5 -12.5l-101 -530q-9 -49 -25.5 -85t-39.5 -62.5t-54 -46.5t-74 -40l-22 43q28 15 46 29.5t32 35.5t24.5 53.5t19.5 81.5l100 521q-16 4 -33.5 12t-35.5 19l6 30h232z" />
<glyph unicode="K" horiz-adv-x="655" d="M679 644q-19 -10 -37 -18.5t-33 -13.5l-299 -242l222 -307q16 -6 31 -14t28 -19l-5 -30h-248l6 30q19 11 35 19t34 13l-196 274l-52 -275q17 -5 33 -13t30 -18l-5 -30h-239l5 30q23 11 42.5 18.5t39.5 12.5l105 553q-17 5 -33 12.5t-37 18.5l7 30h235l-6 -30 q-35 -19 -72 -31l-47 -252l283 250q-26 12 -50 33l7 30h222z" />
<glyph unicode="L" horiz-adv-x="501" d="M421 0h-437l5 30q20 10 40.5 18t41.5 14l105 551q-17 6 -34.5 14t-35.5 18l7 30h245l-6 -30q-27 -12 -45.5 -19t-36.5 -12l-107 -563l197 9q9 22 24 52.5t30 56.5h38z" />
<glyph unicode="M" horiz-adv-x="907" d="M601 0l5 30q17 10 38 19t41 15l41 503h-2l-314 -567h-56l-105 561h-1l-130 -500q20 -6 35 -14t28 -17l-5 -30h-199l5 30q15 10 30 18t29 13l172 550q-17 6 -35.5 15.5t-32.5 18.5l6 30h175l98 -529l299 529h184l-6 -30q-18 -9 -39.5 -18.5t-41.5 -15.5l-35 -548 q13 -7 25.5 -15.5t22.5 -17.5l-6 -30h-226z" />
<glyph unicode="N" horiz-adv-x="709" d="M735 645q-23 -14 -37.5 -22t-31.5 -13l-117 -617h-57l-90 193.5t-83 177.5t-98 210q-6 -36 -18.5 -118t-19.5 -130.5t-18.5 -122.5t-21.5 -138q18 -7 35 -15.5t31 -18.5l-5 -31h-220l5 30q39 19 51 24.5t29 10.5l110 548q-18 4 -36 12.5t-36 19.5l6 30h171 q54 -116 88 -188t75.5 -161.5t79.5 -170.5l72 455q-15 5 -31 14t-32 21l6 30h200z" />
<glyph unicode="O" horiz-adv-x="720" d="M702 436q0 -88 -28.5 -168.5t-82 -143t-129 -98t-165.5 -35.5q-126 0 -191 67.5t-65 180.5q0 88 28.5 168.5t82 143t129 98t165.5 35.5q126 0 191 -67.5t65 -180.5zM597 419q0 96 -48 151t-136 55q-68 0 -119 -34.5t-84 -90.5t-48.5 -120.5t-15.5 -123.5q0 -47 12 -85 t35.5 -65t58 -41.5t78.5 -14.5q68 0 119 34.5t84 90.5t48.5 120.5t15.5 123.5z" />
<glyph unicode="P" horiz-adv-x="572" d="M579 523q0 -66 -27.5 -118t-73.5 -87t-101.5 -52.5t-109.5 -17.5q-23 0 -41 1t-25 2l-36 -190q25 -7 45.5 -16.5t28.5 -14.5l-6 -30h-249l5 30q10 5 33 15t49 16l105 553q-23 7 -42.5 16.5t-27.5 14.5l7 30h64q12 0 38 0.5t51.5 1.5t53.5 1.5t54 0.5q101 0 153 -41.5 t52 -114.5zM479 516q0 53 -34 84t-98 31q-20 0 -39 -2t-36 -5l-58 -308q10 -3 31.5 -8.5t47.5 -5.5q45 0 80.5 18t59 49t35 69t11.5 78z" />
<glyph unicode="Q" horiz-adv-x="720" d="M702 436q0 -88 -25 -159.5t-65.5 -125t-91.5 -87.5t-102 -47q59 1 98 -13.5t68.5 -32t55 -32t58.5 -14.5q8 0 15.5 1.5t14.5 3.5l6 -34q-19 -11 -47 -19t-53 -8q-34 0 -61.5 9t-51.5 22.5t-47.5 29.5t-50 29.5t-57.5 22.5t-71 9q-64 0 -112 18.5t-79.5 51.5t-47 78.5 t-15.5 99.5q0 88 28.5 168.5t81 142t127.5 98t168 36.5q65 0 113.5 -18.5t80 -51.5t47 -78.5t15.5 -99.5zM597 419q0 95 -47 150.5t-137 55.5q-71 0 -122 -36.5t-83 -92t-47 -120t-15 -120.5q0 -95 47 -150.5t137 -55.5q71 0 121.5 36.5t83 92t47.5 120t15 120.5z" />
<glyph unicode="R" horiz-adv-x="603" d="M575 542q0 -45 -15 -80t-41.5 -61t-60.5 -43t-74 -26q28 -5 44.5 -29t24.5 -54.5t16 -79t15 -75t22 -42.5t41 -10l-1 -37q-24 -8 -44.5 -12t-41.5 -4q-26 0 -42 22t-24 52t-18 84.5t-19.5 87.5t-28.5 55t-49 22h-66l-48 -251q34 -12 63 -31l-5 -30h-239l5 30 q10 5 32.5 14.5t49.5 16.5l105 553q-23 7 -42.5 16.5t-27.5 14.5l7 30h68q11 0 79.5 2t117.5 2q96 0 146.5 -36t50.5 -101zM474 533q0 48 -33 73t-93 25q-25 0 -46 -2.5t-30 -4.5l-50 -264h37.5h36.5q44 0 78 14t56 39t33 55.5t11 64.5z" />
<glyph unicode="S" horiz-adv-x="490" d="M443 511h-37q-8 23 -12 49.5t-4 50.5q-16 5 -35.5 8t-39.5 3q-62 0 -92 -35t-30 -84q0 -30 15.5 -53t36 -38.5t60 -41.5t63.5 -47t39.5 -50.5t15.5 -67.5q0 -48 -23 -88t-62 -68t-87 -43t-96 -15q-81 0 -146 20l33 175h39q6 -28 9.5 -56t4.5 -51q19 -9 42.5 -15t49.5 -6 q136 0 136 124q0 30 -15.5 53.5t-36.5 40t-60 42.5t-63 47t-39.5 49.5t-15.5 65.5q0 46 20 84t55.5 65t81 41t95.5 14q29 0 64 -4t64 -11z" />
<glyph unicode="T" horiz-adv-x="555" d="M583 513h-35q-4 14 -10.5 45.5t-7.5 67.5h-140l-106 -564q42 -12 77 -32l-5 -30h-261l5 30q11 5 35.5 15t53.5 17l108 564h-140q-14 -36 -32 -67.5t-27 -45.5h-35l30 162h521z" />
<glyph unicode="U" horiz-adv-x="711" d="M746 645q-32 -22 -70 -34l-69 -352q-24 -128 -104.5 -198.5t-205.5 -70.5q-68 0 -113.5 19.5t-69.5 54.5t-29.5 80t4.5 97l71 373q-14 5 -29 13.5t-25 17.5l6 30h228l-6 -30q-20 -10 -39.5 -18t-40.5 -13l-70 -369q-8 -40 -5.5 -74.5t17.5 -61t47 -42t81 -15.5 q90 0 144.5 54.5t72.5 154.5l61 350q-17 5 -33 14t-32 20l6 30h209z" />
<glyph unicode="V" horiz-adv-x="650" d="M709 645q-14 -9 -31.5 -17.5t-30.5 -13.5l-342 -620h-67l-107 620q-13 6 -26.5 14.5t-23.5 16.5l7 30h229l-7 -30q-38 -21 -78 -31q7 -45 26.5 -161.5t33.5 -200t23 -139.5h1q75 152 136.5 277t110.5 224q-16 6 -30.5 13.5t-28.5 17.5l6 30h204z" />
<glyph unicode="W" horiz-adv-x="914" d="M974 645q-13 -10 -28.5 -18.5t-31.5 -14.5l-280 -618h-71l-62 531h-1l-244 -531h-76l-50 620q-13 4 -25.5 13t-23.5 18l7 30h225l-7 -30q-19 -11 -39 -18.5t-39 -12.5l35 -477h1l247 541h67l65 -541h1l188 475q-16 5 -32 12.5t-32 20.5l6 30h207z" />
<glyph unicode="X" horiz-adv-x="651" d="M692 645q-15 -9 -32 -17.5t-36 -15.5l-234 -253l143 -296q30 -12 57 -33l-5 -30h-248l6 30q15 9 36 18.5t39 15.5l-102 229l-188 -228q14 -5 22.5 -10t37.5 -24l-5 -31h-223l6 31q12 8 30.5 17t37.5 17l254 272l-132 275q-15 6 -29.5 14.5t-28.5 18.5l6 30h249l-7 -30 q-17 -10 -38 -19.5t-40 -14.5l95 -208l169 208q-16 7 -31 15.5t-29 18.5l7 30h219z" />
<glyph unicode="Y" horiz-adv-x="576" d="M637 645q-24 -20 -54 -32l-244 -330l-43 -222q19 -5 36 -12.5t34 -18.5l-5 -30h-246l6 30q21 11 41 18.5t40 12.5l43 222l-122 332q-11 5 -23.5 13t-20.5 17l6 30h219l-6 -30q-14 -9 -33.5 -17.5t-37.5 -13.5q21 -60 37 -104.5t31.5 -88t27.5 -76.5h1q39 60 68 104.5 t58.5 89t48.5 74.5q-15 4 -31 13t-28 19l6 30h197z" />
<glyph unicode="Z" horiz-adv-x="538" d="M564 629l-455 -578l278 9q11 25 26.5 53.5t32.5 53.5h37l-30 -167h-466l8 46l455 578l-258 -7q-11 -26 -27.5 -54.5t-33.5 -50.5h-37l37 163h442z" />
<glyph unicode="[" horiz-adv-x="320" d="M374 739q-29 -10 -64 -17.5t-62 -9.5l-162 -851q27 -3 59 -11t55 -17l-5 -30h-202l183 967h203z" />
<glyph unicode="\" horiz-adv-x="409" d="M269 -173l-170 929l67 14l170 -928z" />
<glyph unicode="]" horiz-adv-x="320" d="M146 -197h-202l6 30q28 9 62.5 17t61.5 11l162 851q-25 2 -57 9.5t-57 17.5l6 31h203z" />
<glyph unicode="^" d="M428 345l-93 270l-191 -270l-49 29l221 301h62l112 -300z" />
<glyph unicode="_" d="M450 -252h-549l11 61h549z" />
<glyph unicode="`" horiz-adv-x="345" d="M303 575l-149 128l64 64l112 -164z" />
<glyph unicode="a" horiz-adv-x="566" d="M428 59q7 -3 24 -8.5t41 -9.5l-5 -32q-18 -4 -62 -9t-99 -3q5 25 10.5 50.5t12.5 51.5t14.5 53t16.5 55l-2 1q-16 -40 -39.5 -78.5t-53.5 -70t-66 -50t-74 -18.5q-56 0 -88 42.5t-32 115.5q0 65 18.5 128t58 115.5t101.5 83.5t146 31q52 0 96 -9.5t63 -15.5zM407 432 q-34 24 -89 24q-49 0 -86 -28t-60.5 -72.5t-35 -95t-11.5 -96.5q0 -106 62 -106q32 0 64.5 27.5t61.5 73t50 98t30 101.5z" />
<glyph unicode="b" horiz-adv-x="553" d="M516 350q0 -65 -18.5 -128.5t-58 -116t-101.5 -83.5t-145 -31q-52 0 -96.5 9.5t-63.5 15.5l125 658q-6 3 -24 8t-44 10l7 31q5 1 17.5 3t35 4.5t52 4.5t61.5 1l-49 -256q-6 -34 -20.5 -86t-32.5 -103l2 -1q16 40 40 78.5t54 70t65.5 50t73.5 18.5q56 0 88 -42t32 -115z M417 334q0 53 -15.5 80t-46.5 27q-32 0 -64.5 -27.5t-61 -73t-49.5 -98.5t-30 -102l-15 -73q35 -25 89 -25q49 0 86 28t60.5 72.5t35 95t11.5 96.5z" />
<glyph unicode="c" horiz-adv-x="450" d="M422 345h-35q-16 46 -16 92q-14 10 -33 14.5t-40 4.5q-41 0 -73 -27t-53 -69.5t-31.5 -88.5t-10.5 -84q0 -62 30.5 -96t90.5 -34q32 0 61.5 7.5t61.5 22.5l9 -38q-38 -26 -83 -41.5t-89 -15.5q-39 0 -72 10t-57.5 31t-38.5 54.5t-14 79.5q0 49 14 106.5t47 111t90.5 88 t139.5 34.5q36 0 69.5 -4.5t60.5 -12.5z" />
<glyph unicode="d" horiz-adv-x="566" d="M428 59q7 -3 24 -8.5t41 -9.5l-5 -32q-18 -4 -62 -9t-99 -3q10 51 23 103t31 107l-2 1q-16 -40 -39.5 -78.5t-53.5 -70t-66 -50t-74 -18.5q-56 0 -88 42.5t-32 115.5q0 67 19.5 130.5t59 115t100 81.5t139.5 30q26 0 46.5 -3t28.5 -5l34 176q-7 3 -25 8t-45 10l6 31 q5 1 17.5 3t35 4.5t53 4.5t63.5 1zM407 432q-34 24 -89 24q-49 0 -86 -28t-60.5 -72.5t-35 -95t-11.5 -96.5q0 -106 62 -106q32 0 64.5 27.5t61.5 73t50 98t30 101.5z" />
<glyph unicode="e" horiz-adv-x="482" d="M458 401q0 -82 -79 -122.5t-246 -42.5q-1 -6 -3 -22.5t-2 -39.5q0 -56 27 -86.5t78 -30.5q42 0 79.5 12t74.5 32l11 -41q-45 -31 -95 -49.5t-103 -18.5q-86 0 -128.5 42.5t-42.5 122.5q0 62 15.5 123t49.5 113t88 83t127 31q40 0 69 -8.5t46.5 -23.5t25.5 -34t8 -40z M360 391q0 14 -4 26t-12 21.5t-21 14.5t-30 5q-32 0 -58 -16t-44.5 -42t-30.5 -56.5t-19 -61.5q107 0 163 27.5t56 81.5z" />
<glyph unicode="f" horiz-adv-x="326" d="M435 594h-34q-4 11 -9 37t-4 55q-4 2 -13.5 4t-21.5 2q-44 0 -67.5 -30t-35.5 -92l-14 -72h130l-9 -48h-130l-101 -527q-16 -85 -68.5 -130.5t-142.5 -45.5q-33 0 -57.5 4t-34.5 7l26 133h33q4 -12 9.5 -38t4.5 -55q15 -5 34 -5q45 0 68 30t35 92l102 535h-88l9 48h89 l12 63q17 86 69.5 131.5t141.5 45.5q34 0 58.5 -4t34.5 -7z" />
<glyph unicode="g" horiz-adv-x="552" d="M416 -4q-10 -55 -37 -100.5t-67 -79t-91 -51.5t-109 -18q-41 0 -76.5 6t-50.5 10l28 80q4 -1 14 -4t28 -7t41 -7t46 -3q43 0 73.5 8.5t50.5 26t32.5 45t20.5 67.5q12 62 27 121t36 117l-3 1q-16 -40 -39.5 -78.5t-53.5 -70t-66 -50t-74 -18.5q-56 0 -88 42.5t-32 115.5 q0 65 18.5 128t58 115.5t101.5 83.5t146 31q52 0 96 -9.5t63 -15.5zM407 432q-34 24 -89 24q-49 0 -86 -28t-60.5 -72.5t-35 -95t-11.5 -96.5q0 -106 62 -106q32 0 64.5 27.5t61.5 73t50 98t30 101.5z" />
<glyph unicode="h" horiz-adv-x="577" d="M499 9q-4 -1 -16.5 -3t-34.5 -4.5t-51.5 -4t-61.5 -0.5q12 48 24 101t22 103.5t16 90.5t6 62q0 46 -11.5 66.5t-38.5 20.5q-31 0 -63 -28t-60.5 -73.5t-50 -98.5t-30.5 -102l-27 -139h-92l128 674q-6 3 -24 8t-44 10l7 31q5 1 17.5 3t35 4.5t52 4.5t61.5 1l-46 -243 q-6 -37 -20.5 -87t-35.5 -115l2 -1q16 40 40 78.5t54 70t65 50t71 18.5q29 0 49.5 -10.5t32.5 -29t17.5 -42t5.5 -51.5t-6 -69t-15 -85t-18 -84t-19 -77q6 -3 23 -8.5t42 -9.5z" />
<glyph unicode="i" horiz-adv-x="284" d="M278 659q0 -29 -19 -47t-47 -18q-26 0 -43 17t-17 43q0 29 19 47t47 18q26 0 43 -17t17 -43zM147 59q6 -3 22.5 -8.5t42.5 -9.5l-5 -32q-18 -4 -62 -9t-102 -3l84 442q-6 3 -22.5 8.5t-42.5 10.5l6 31q4 1 16.5 3t34.5 4.5t51 4t61 0.5z" />
<glyph unicode="j" horiz-adv-x="272" d="M278 659q0 -29 -19 -47t-47 -18q-26 0 -43 17t-17 43q0 29 19 47t47 18q26 0 43 -17t17 -43zM126 -51q-8 -45 -25.5 -79t-42.5 -58t-56.5 -39.5t-70.5 -24.5l-8 40q27 9 44.5 20t29.5 28t20.5 44t16.5 71l93 488q-6 3 -22.5 8.5t-42.5 10.5l6 31q4 1 16 3t34 4.5t51.5 4 t61.5 0.5z" />
<glyph unicode="k" horiz-adv-x="523" d="M499 404q0 -61 -57 -101.5t-167 -57.5l102 -187q17 -4 30.5 -10t34.5 -17l-6 -31h-135l-131 249l-47 -249h-93l128 674q-6 3 -24 8t-44 10l7 31q5 1 17.5 3t35 4.5t52 4.5t61.5 1l-28 -148q-10 -51 -24.5 -102.5t-35.5 -114.5h2q30 64 76.5 100t110.5 36q60 0 97.5 -28.5 t37.5 -74.5zM399 391q0 28 -16.5 44.5t-48.5 16.5q-27 0 -52 -16t-46.5 -43t-36.5 -59.5t-24 -64.5q120 17 172 46t52 76z" />
<glyph unicode="l" horiz-adv-x="271" d="M134 59q7 -3 24 -8.5t41 -9.5l-6 -32q-18 -4 -62 -9t-101 -3l128 677q-6 3 -24 8t-44 10l7 31q4 1 16.5 3t34.5 4.5t51.5 4.5t62.5 1z" />
<glyph unicode="m" horiz-adv-x="898" d="M820 9q-4 -1 -16.5 -3t-34.5 -4.5t-51.5 -4t-61.5 -0.5q12 48 24 101t22 103.5t16 90.5t6 62q0 46 -11.5 66.5t-38.5 20.5q-31 0 -63 -28t-60.5 -73.5t-50 -98.5t-30.5 -102l-27 -139h-91l56 289q15 79 4 115.5t-46 36.5q-31 0 -63 -28t-60.5 -73.5t-49.5 -98.5t-30 -102 l-27 -139h-93l84 439q-6 3 -22.5 8.5t-42.5 10.5l6 31q5 1 17 3t34 4.5t50.5 4t59.5 0.5q-9 -50 -22 -98.5t-32 -111.5l2 -1q16 40 39.5 78.5t54 70t65.5 50t71 18.5q27 0 46 -9t29.5 -24.5t15 -34t4.5 -38.5q0 -27 -4 -52t-14 -54l2 -1q16 39 39.5 76.5t53 68.5t64.5 49.5 t71 18.5q56 0 80.5 -37t24.5 -96q0 -28 -6 -69t-15 -85t-18 -84t-19 -77q6 -3 23 -8.5t42 -9.5z" />
<glyph unicode="n" horiz-adv-x="591" d="M513 9q-4 -1 -16.5 -3t-34.5 -4.5t-51.5 -4t-61.5 -0.5q12 50 24 102.5t22 102.5t16 90.5t6 61.5q0 46 -11.5 66.5t-39.5 20.5q-31 0 -63 -28t-60.5 -73.5t-49.5 -98.5t-30 -102l-27 -139h-93l84 439q-6 3 -22.5 8.5t-42.5 10.5l6 31q18 4 61.5 9t99.5 3 q-9 -50 -22 -98.5t-32 -111.5l2 -1q16 40 39.5 78.5t54 70t65.5 50t71 18.5q29 0 49.5 -10.5t32.5 -29t17 -42t5 -51.5t-6 -69t-14.5 -84.5t-17 -80.5t-19.5 -81q6 -3 22.5 -8.5t42.5 -9.5z" />
<glyph unicode="o" horiz-adv-x="570" d="M530 322q0 -65 -21.5 -125t-62.5 -106.5t-98.5 -73t-127.5 -26.5q-94 0 -142 52t-48 134q0 65 21.5 124.5t62 106t98.5 73t128 26.5q94 0 142 -52t48 -133zM429 311q0 65 -30.5 103.5t-89.5 38.5q-51 0 -86.5 -29.5t-55 -73.5t-28 -88t-8.5 -74q0 -66 30 -104t90 -38 q51 0 86.5 29.5t55 73.5t28 88t8.5 74z" />
<glyph unicode="p" horiz-adv-x="567" d="M431 334q0 107 -62 107q-32 0 -64.5 -27.5t-61.5 -73t-50 -98.5t-30 -102l-14 -73q2 -2 8 -5.5t17.5 -8t28 -8t35.5 -3.5q49 0 86 28t60.5 72.5t35 95t11.5 96.5zM164 -237q-4 -1 -16.5 -3t-35 -4.5t-53 -4.5t-63.5 -1l131 689q-1 1 -5.5 2.5t-12.5 4.5t-20.5 6t-26.5 6 l6 31q5 1 17 3t34 4.5t50.5 4t59.5 0.5q-10 -51 -23 -103t-31 -107l2 -1q16 40 39.5 78.5t53.5 70t66 50t74 18.5q56 0 88 -42t32 -115q0 -67 -19.5 -131t-58.5 -115.5t-100 -81.5t-140 -30q-14 0 -27 1t-23.5 2.5t-16.5 2.5t-8 2l-36 -188l17.5 -5t20.5 -5.5l18 -4.5t13 -3 z" />
<glyph unicode="q" horiz-adv-x="553" d="M26 149q0 62 18 125.5t57 115.5t100.5 84.5t148.5 32.5q31 0 60 -4t51 -9q26 -5 48 -12l-127 -670q7 -3 18 -6q17 -6 50 -12l-6 -31q-23 -4 -49 -7q-23 -3 -53 -5t-65 -1l51 268q6 33 21 85.5t33 103.5l-3 1q-15 -38 -38.5 -77t-53.5 -70t-65.5 -50.5t-75.5 -19.5 q-56 0 -88 42t-32 116zM407 432q-11 7 -24 12q-11 5 -28 8.5t-37 3.5q-51 0 -88 -29.5t-60 -73.5t-34 -95t-11 -94q0 -106 62 -106q33 0 66 29t61 73t49 97t30 101z" />
<glyph unicode="r" horiz-adv-x="386" d="M393 404q-12 7 -24.5 11.5t-23.5 4.5q-19 0 -38.5 -14.5t-38 -39t-35 -56t-30 -64.5t-23 -65t-14.5 -57l-24 -124h-93l84 439q-15 6 -32 10.5t-37 8.5l5 31q10 1 30.5 4t42.5 5t46 3t46 0q-10 -54 -23.5 -105.5t-29.5 -101.5l2 -1q44 102 93 158.5t103 56.5q22 0 41 -9z " />
<glyph unicode="s" horiz-adv-x="420" d="M349 360h-36q-3 10 -7.5 33.5t-4.5 50.5q-6 3 -22 8t-35 5q-36 0 -56.5 -21.5t-20.5 -54.5q0 -21 12 -38t27 -28.5t45.5 -32t49 -37t30.5 -38.5t12 -51q0 -36 -17 -66t-46.5 -52t-67.5 -33.5t-80 -11.5q-40 0 -73.5 5.5t-48.5 9.5l27 143h36q3 -11 7.5 -34.5t5.5 -49.5 q9 -4 30 -11t44 -7q40 0 65.5 22t25.5 58q0 22 -12 39.5t-27 29t-45.5 32t-48.5 36.5t-30 38t-12 50q0 35 15 63.5t42 48.5t61.5 30.5t73.5 10.5q37 0 65.5 -5t40.5 -8z" />
<glyph unicode="t" horiz-adv-x="362" d="M358 450h-139l-57 -300q-9 -50 -3.5 -70.5t33.5 -20.5q20 0 44.5 7.5t42.5 18.5l12 -38q-33 -24 -68.5 -39.5t-70.5 -15.5q-59 0 -78.5 39t-5.5 113l58 306h-80l10 48h80l68 142h51l-26 -142h138z" />
<glyph unicode="u" horiz-adv-x="591" d="M453 59q6 -3 22.5 -8.5t42.5 -9.5l-5 -32q-4 -1 -16.5 -3t-34.5 -4.5t-50.5 -4t-59.5 -0.5q9 50 21.5 99t32.5 111l-2 1q-16 -40 -39.5 -78.5t-54 -70t-65.5 -50t-71 -18.5q-29 0 -49.5 10.5t-32.5 29t-17 42t-5 51.5t5.5 69t14.5 85t18.5 85t18.5 76q-6 3 -23 8.5 t-42 9.5l6 32q4 1 16 3t34 4.5t52 4t62 0.5q-12 -46 -24 -99t-22 -104t-16 -92t-6 -62q0 -46 11.5 -66t38.5 -20q31 0 63 27.5t61 73t50 98.5t30 102l16 81q-6 3 -23 8t-43 10l7 31q4 1 16 3t34 4.5t51.5 4t61.5 0.5z" />
<glyph unicode="v" horiz-adv-x="517" d="M256 -6h-84l-69 445q-5 3 -20 8.5t-39 10.5l6 31q4 1 14.5 2.5t29.5 4t44.5 4t52.5 1.5l58 -419h2l179 434l90 -23z" />
<glyph unicode="w" horiz-adv-x="770" d="M521 -3h-82l-37 325l-164 -325h-82l-52 442q-6 3 -21.5 8.5t-38.5 10.5l6 31q4 1 14.5 2.5t30 4t45 4t52.5 1.5l42 -405h1l153 313l-3 30q-6 3 -22.5 8.5t-39.5 10.5l5 31q4 1 15 2.5t31 4t46.5 4t53.5 1.5l39 -405h2l170 420l88 -26z" />
<glyph unicode="x" horiz-adv-x="544" d="M315 257l93 -199q16 -4 36.5 -11.5t36.5 -15.5l-6 -31h-147l-83 199l-189 -228l-70 38l238 233l-91 198q-15 3 -33 10.5t-36 16.5l5 31h143l82 -197l185 226l69 -37z" />
<glyph unicode="y" horiz-adv-x="521" d="M517 491q-39 -92 -88 -190t-102.5 -190.5t-105.5 -167t-96 -119.5q-41 -41 -80 -59t-82 -18q-10 0 -20.5 0.5t-15.5 1.5l24 77q5 -2 19 -4.5t32 -2.5q26 0 53.5 18.5t51 50.5t37.5 73.5t14 85.5q0 89 -16 187t-40 205q-5 3 -19.5 8.5t-38.5 10.5l6 31q4 1 14.5 2.5 t29.5 4t44 4t52 1.5q12 -54 22 -107.5t18 -105t12.5 -98t4.5 -82.5v-36h1q27 53 50.5 106.5t45 108t41 110t40.5 119.5z" />
<glyph unicode="z" horiz-adv-x="461" d="M438 450l-327 -402h191q11 24 23.5 47t26.5 44h34l-26 -139h-366l9 49l329 403h-177q-11 -23 -24 -46t-27 -41h-35l30 133h348z" />
<glyph unicode="{" horiz-adv-x="328" d="M382 730q-51 -1 -74 -34.5t-36 -101.5l-25 -133q-12 -63 -45.5 -98.5t-85.5 -44.5v-1q49 -8 68.5 -45.5t7.5 -100.5l-37 -192q-14 -68 -3.5 -101.5t62.5 -34.5l-8 -40h-17q-81 0 -108 44t-10 132l38 192q6 31 6 54t-8 38.5t-26 24t-48 10.5l8 38q31 2 51.5 9.5t34.5 21.5 t22 35.5t14 51.5l24 132q7 39 22 72.5t37.5 58.5t54 39t73.5 14h16z" />
<glyph unicode="|" horiz-adv-x="274" d="M74 -212h-61l191 1000h61z" />
<glyph unicode="}" horiz-adv-x="324" d="M310 298q-30 -2 -50.5 -10t-34.5 -22.5t-22.5 -36t-14.5 -50.5l-37 -192q-17 -92 -61 -138t-125 -46h-17l9 40q51 2 74 34.5t36 101.5l37 194q12 63 45.5 99.5t84.5 44.5v1q-50 7 -68.5 44t-7.5 97l26 134q6 34 7.5 60t-4.5 43t-21 25.5t-41 8.5l8 40h17q42 0 68 -13.5 t39.5 -37.5t15 -56t-5.5 -69l-24 -127q-6 -34 -7 -57.5t7 -39.5t25.5 -24t48.5 -10z" />
<glyph unicode="~" d="M542 409q-21 -109 -60 -157.5t-97 -48.5q-39 0 -68 22t-63 65.5t-51.5 61.5t-41.5 18q-30 0 -50.5 -29.5t-38.5 -110.5l-48 8q20 110 58.5 158t100.5 48q34 0 62.5 -22t63 -66t52 -62t39.5 -18q30 0 53.5 31.5t41.5 112.5z" />
<glyph unicode="&#xa1;" horiz-adv-x="301" d="M244 458q0 -14 -4.5 -25.5t-13 -20t-20 -13.5t-25.5 -5q-27 0 -42 16t-15 41q0 15 4.5 26.5t13 20t20 13t25.5 4.5q27 0 42 -16t15 -41zM111 -197h-103l130 522h51z" />
<glyph unicode="&#xa2;" horiz-adv-x="489" d="M439 370h-33q-6 24 -8.5 47t-0.5 45q-11 4 -29 6.5t-39 2.5q-46 0 -82 -23t-59 -60.5t-34.5 -82t-11.5 -87.5q0 -33 9.5 -56t27 -38t41.5 -21.5t54 -6.5q60 0 121 24v-43q-33 -16 -65.5 -26t-66.5 -13l-20 -106h-49l20 105q-34 1 -63.5 10.5t-53 29.5t-37 52t-13.5 76 q0 60 16.5 113.5t49 96t81.5 69t111 32.5l18 91h49l-18 -89q28 0 58 -5t52 -13z" />
<glyph unicode="&#xa3;" d="M467 73q-32 -42 -62.5 -62t-71.5 -20q-23 0 -45 3.5t-44 8t-45 8.5t-47 4q-17 0 -37 -2t-39.5 -5t-37 -7.5t-28.5 -9.5l-16 41q30 20 56 45.5t45.5 58.5t31 75t13.5 95h-87l9 49h78q0 16 -2 39t-2 49q0 60 19 105t53 75.5t80.5 45.5t100.5 15q28 0 58 -4t52 -11l-27 -142 h-36q-5 19 -9.5 43t-4.5 46q-14 7 -33 11.5t-35 4.5q-34 0 -56.5 -14.5t-36.5 -38t-20 -55.5t-6 -66q0 -30 1.5 -57t1.5 -46h138l-9 -49h-130q-4 -78 -36.5 -135t-87.5 -88l1 -1q19 7 39.5 10t44.5 3q23 0 43.5 -3.5t41.5 -8t42.5 -8t45.5 -3.5q20 0 37.5 8.5t37.5 23.5z " />
<glyph unicode="&#xa4;" d="M382 39l-47 108q-47 -25 -101 -25q-47 0 -77 18l-84 -101l-49 40l95 86q-29 32 -29 88q0 62 22 110.5t71 86.5l-68 94l65 39l49 -108q47 24 98 24q45 0 77 -17l85 101l50 -39l-97 -87q30 -31 30 -88q0 -60 -22.5 -110t-69.5 -87l67 -93zM385 350q0 44 -20 69.5t-63 25.5 q-30 0 -53.5 -14.5t-39.5 -39t-24 -55t-8 -63.5q0 -45 22 -70.5t63 -25.5q28 0 51 14t39 38.5t24.5 56t8.5 64.5z" />
<glyph unicode="&#xa5;" horiz-adv-x="589" d="M640 646q-11 -8 -25 -17t-28 -14l-226 -299h146l-8 -42h-159l-17 -94h158l-7 -42h-159l-16 -80q21 -6 37.5 -13.5t33.5 -16.5l-5 -28h-246l5 28q20 9 39.5 16.5t41.5 13.5l16 80h-158l7 42h158l19 94h-159l8 42h145l-114 301q-11 5 -23.5 12.5t-20.5 16.5l6 29h221 l-6 -29q-14 -9 -33 -16.5t-37 -13.5l94 -267h1l176 266q-15 5 -31 13.5t-28 17.5l6 29h194l-6 -29v0z" />
<glyph unicode="&#xa6;" horiz-adv-x="276" d="M195 408h-63l72 380h64zM77 -212h-64l75 394h64z" />
<glyph unicode="&#xa7;" horiz-adv-x="478" d="M427 657q-10 5 -21.5 10t-23.5 8.5t-24 5.5t-23 2q-14 0 -29.5 -4t-29.5 -15t-23 -28t-9 -43q0 -25 12.5 -50t31.5 -51.5t41 -53t41 -55t31.5 -59t12.5 -61.5q0 -44 -29 -84t-76 -74q14 -24 23 -48.5t9 -50.5q0 -36 -16.5 -67.5t-44.5 -55.5t-67 -38.5t-83 -14.5 q-13 0 -27 1t-27.5 3.5t-25.5 5.5t-21 7l33 67q25 -14 50.5 -21t46.5 -7q40 0 66 25.5t26 63.5q0 25 -13 50.5t-31.5 51.5t-40.5 53.5t-41 56t-31.5 58t-12.5 61.5q0 40 24.5 79t80.5 78q-15 25 -23.5 49t-8.5 51q0 29 13.5 60t40 56.5t66 42t90.5 16.5q13 0 27 -1t26.5 -3 t23.5 -5t18 -5zM328 230q1 25 -10 49.5t-27.5 49.5t-37 50t-40.5 51q-22 -21 -34.5 -45.5t-12.5 -48.5q0 -25 11 -49t28.5 -48.5t37.5 -49.5t38 -51q9 7 17 17t14.5 22t11 25.5t4.5 27.5z" />
<glyph unicode="&#xa8;" horiz-adv-x="431" d="M436 660q0 -24 -16.5 -40.5t-39.5 -16.5t-37.5 14.5t-14.5 37.5q0 24 16.5 40t40.5 16q23 0 37 -14t14 -37zM248 660q0 -24 -16.5 -40.5t-39.5 -16.5t-37.5 14.5t-14.5 37.5q0 24 16.5 40t40.5 16q23 0 37 -14t14 -37z" />
<glyph unicode="&#xa9;" horiz-adv-x="739" d="M489 393h-30q-4 16 -7 36t-3 38q-9 6 -19.5 7.5t-21.5 1.5q-32 0 -54 -17.5t-36.5 -44.5t-21 -57.5t-6.5 -55.5q0 -45 24 -67t77 -22q16 0 35 3.5t36 9.5l8 -35q-24 -14 -57 -24t-69 -10q-68 0 -105 34.5t-37 97.5q0 42 14.5 84t43 75t71.5 53.5t99 20.5q22 0 43.5 -2 t39.5 -5zM714 389q0 -84 -27.5 -155.5t-77 -124.5t-118.5 -82.5t-152 -29.5q-67 0 -122 18.5t-94 55t-60 91t-21 126.5q0 79 30 149.5t81 123.5t119.5 84t146.5 31q71 0 125.5 -22t92.5 -60.5t57.5 -91t19.5 -113.5zM345 50q68 0 124.5 24.5t97 68t63 104t22.5 132.5 q0 52 -16 96.5t-47 77t-75.5 51t-101.5 18.5q-66 0 -122 -27t-97 -71.5t-64.5 -104.5t-23.5 -126q0 -59 17 -104t48.5 -76t76 -47t98.5 -16z" />
<glyph unicode="&#xaa;" horiz-adv-x="412" d="M408 365q-13 -2 -29.5 -5t-34 -5.5t-34.5 -4t-32 -1.5q4 17 12.5 46t26.5 76h-1q-14 -35 -34.5 -59.5t-44 -39.5t-46.5 -22t-42 -7q-29 0 -47.5 25.5t-18.5 75.5q0 46 13.5 88.5t41.5 75.5t69.5 52.5t98.5 19.5q18 0 44 -1.5t55 -6.5l-51 -267q12 -3 28 -5.5t31 -4.5z M347 223h-289l9 47h288zM331 625q-9 2 -25.5 3.5t-37.5 1.5q-27 0 -48 -15t-35.5 -39.5t-22.5 -55.5t-8 -62q0 -33 7.5 -45.5t23.5 -12.5t36.5 12.5t40.5 37t37 61.5t27 86z" />
<glyph unicode="&#xab;" horiz-adv-x="523" d="M347 264l55 -174l-46 -22l-107 202l184 197l38 -24zM159 264l59 -187l-46 -22l-111 215l192 210l39 -23z" />
<glyph unicode="&#xac;" d="M384 81l31 159h-389l13 65h388h68l-43 -224h-68z" />
<glyph unicode="&#xae;" horiz-adv-x="551" d="M536 549q0 -50 -19.5 -93t-52 -74t-73 -48.5t-84.5 -17.5q-42 0 -78.5 15t-62.5 41.5t-40.5 62.5t-14.5 78q0 47 18.5 89t50 74t73 50.5t87.5 18.5q40 0 76 -14t63 -39.5t42 -62t15 -80.5zM486 542q0 36 -12 65t-33 50.5t-48 33t-56 11.5q-36 0 -67.5 -14t-55.5 -39.5 t-38 -59t-14 -72.5q0 -31 11.5 -60t31 -50.5t47 -34.5t59.5 -13q33 0 64.5 14t56 38.5t39.5 58t15 72.5zM425 610q0 -25 -14.5 -45t-49.5 -27q15 -3 20 -18t7.5 -32.5t6.5 -31t18 -11.5l-1 -19q-9 -4 -20 -6t-24 -2q-16 0 -21 16.5t-7.5 36.5t-6.5 37t-17 17h-14l-15 -75 q6 -2 12 -5.5t8 -6.5l-3 -16h-94l3 15q10 8 27 13l34 177q-14 4 -23 11l4 18h22q21 0 42.5 0.5t39.5 0.5q34 0 50 -12.5t16 -34.5zM374 603q0 12 -6.5 20t-21.5 8h-24l-16 -84h16q23 0 37.5 15t14.5 41z" />
<glyph unicode="&#xaf;" horiz-adv-x="412" d="M398 612h-255l10 56h255z" />
<glyph unicode="&#xb0;" horiz-adv-x="365" d="M371 622q0 -29 -10.5 -53.5t-29 -41.5t-43 -27t-53.5 -10q-56 0 -86.5 31t-30.5 82q0 32 11.5 57t30 41.5t42.5 25.5t50 9q29 0 51.5 -9t37.5 -25t22.5 -36.5t7.5 -43.5zM309 617q0 11 -3 24t-10 23.5t-19 17.5t-30 7q-26 0 -46.5 -23t-20.5 -59q0 -29 16.5 -49.5 t44.5 -20.5q33 0 50.5 23t17.5 57z" />
<glyph unicode="&#xb1;" d="M524 343h-201l-39 -206h-72l40 206h-202l13 64h201l39 205h71l-38 -205h201zM447 0h-448l10 57h448z" />
<glyph unicode="&#xb2;" horiz-adv-x="369" d="M297 406q6 11 16.5 28t22.5 32h33l-28 -116h-303l8 43l138 124q18 16 38.5 36t38.5 43t30.5 48t12.5 51q0 27 -17 43t-49 16q-12 0 -25.5 -3t-24.5 -10q-7 -14 -17.5 -34t-23.5 -36h-32l24 103q13 5 28.5 9.5t31.5 7.5t32 4.5t32 1.5q63 0 94 -26t31 -67q0 -32 -15 -61 t-37.5 -53.5t-47.5 -45.5t-44 -37l-118 -101h171z" />
<glyph unicode="&#xb3;" horiz-adv-x="350" d="M257 797q31 0 53.5 -6t37 -17.5t21.5 -27.5t7 -34q0 -22 -9 -41.5t-25 -35t-36.5 -27t-43.5 -18.5v-1q38 -4 64 -28t26 -62q0 -36 -18 -65t-47.5 -49.5t-67 -31t-77.5 -10.5q-33 0 -58 3.5t-42 10.5l22 57q17 -10 40 -18t54 -8q47 0 78.5 26.5t31.5 74.5q0 29 -25 48.5 t-85 19.5q-7 0 -18 -0.5t-20 -1.5l8 41q83 0 126.5 29.5t43.5 80.5q0 50 -60 50q-10 0 -21 -2.5t-21 -6.5q-6 -14 -16 -30t-21 -29h-31l21 91q22 8 49 13t59 5z" />
<glyph unicode="&#xb4;" horiz-adv-x="346" d="M165 577l-22 33l152 149l49 -70z" />
<glyph unicode="&#xb5;" horiz-adv-x="593" d="M468 120q-8 -42 -1.5 -56t30.5 -14q8 0 15 1t15 4l3 -32q-16 -12 -41.5 -21t-54.5 -9q-32 0 -47 14.5t-15 43.5q0 14 4 34t10 42t11.5 43t11.5 37l-2 1q-15 -38 -38 -76.5t-52 -69.5t-62.5 -50.5t-68.5 -19.5q-23 0 -39.5 10t-25.5 29l-42 -278h-77q16 104 34 206t37 205 q9 45 17 86t16 77t14 64t11 48q-16 6 -33.5 10.5t-35.5 8.5l6 31q34 7 80 10.5t87 1.5q-11 -44 -23 -97t-22 -103t-17 -92t-7 -65q0 -46 11.5 -66t39.5 -20q31 0 64 28.5t60.5 73.5t48.5 98t30 101l16 81q-13 5 -29.5 9t-35.5 9l7 31q33 7 77.5 10.5t85.5 1.5z" />
<glyph unicode="&#xb6;" horiz-adv-x="584" d="M297 155q-66 0 -110.5 17.5t-70.5 47t-37 67.5t-11 77q0 62 24 118.5t67.5 99t103.5 68t133 25.5zM614 645q-17 -10 -38 -18t-41 -13l-106 -555q-44 -226 -234 -226q-22 0 -46.5 2.5t-41.5 7.5l24 130h34q6 -23 10.5 -44t4.5 -44q6 -2 18.5 -4t23.5 -2q54 0 79.5 41.5 t39.5 119.5l120 635h159z" />
<glyph unicode="&#xb7;" horiz-adv-x="229" d="M179 296q0 -28 -18.5 -46t-45.5 -18q-25 0 -41.5 17t-16.5 43t18.5 45t44.5 19t42.5 -17t16.5 -43z" />
<glyph unicode="&#xb8;" horiz-adv-x="272" d="M101 -57q30 -18 37.5 -41.5t-5.5 -49.5t-45.5 -53t-80.5 -52l-30 26q66 41 74.5 72t-41.5 58l89 97h54z" />
<glyph unicode="&#xb9;" horiz-adv-x="284" d="M54 350l5 26q19 7 40.5 13t38.5 8l64 332l-79 -28l-9 33l123 58h54l-75 -395q13 -3 25 -8.5t27 -12.5l-5 -26h-209z" />
<glyph unicode="&#xba;" horiz-adv-x="419" d="M416 567q0 -48 -16 -89t-44 -71t-64.5 -47t-77.5 -17q-29 0 -52.5 6.5t-39.5 20t-24.5 35t-8.5 51.5q0 45 14.5 86t40.5 72.5t62.5 50t81.5 18.5q24 0 47 -5t41 -18.5t29 -35.5t11 -57zM332 223h-268l9 47h268zM342 555q0 16 -3.5 31t-11 26.5t-20 18t-30.5 6.5 q-25 0 -46.5 -14.5t-36 -37t-23 -52.5t-8.5 -62t14 -56t49 -24q25 0 46 13t36.5 35.5t24.5 52.5t9 63z" />
<glyph unicode="&#xbb;" horiz-adv-x="523" d="M267 55l-40 23l133 193l-59 187l47 22l111 -214zM86 68l-37 24l122 179l-54 174l47 22l107 -201z" />
<glyph unicode="&#xbc;" horiz-adv-x="760" d="M74 350l5 26q19 7 40.5 13t38.5 8l64 332l-79 -28l-9 33l123 58h54l-75 -395q13 -3 25 -8.5t27 -12.5l-5 -26h-209zM11 -133l-37 29l788 908l36 -29zM579 -12l-12 -64q14 -4 26 -9t23 -12l-4 -24h-188l5 24q14 7 29.5 12.5t33.5 8.5l11 64h-203l1 51l254 279h86l-52 -276 h83l-10 -54h-83zM555 256l-194 -214h153z" />
<glyph unicode="&#xbd;" horiz-adv-x="815" d="M11 -133l-37 29l788 908l36 -29zM74 350l5 26q19 7 40.5 13t38.5 8l64 332l-79 -28l-9 33l123 58h54l-75 -395q13 -3 25 -8.5t27 -12.5l-5 -26h-209zM633 -65q6 11 16.5 28t22.5 32h33l-28 -116h-303l8 43l138 124q18 16 38.5 36t38.5 43t30.5 48t12.5 51q0 27 -17 43 t-49 16q-12 0 -25.5 -3t-24.5 -10q-7 -14 -17.5 -34t-23.5 -36h-32l24 103q13 5 28.5 9.5t31.5 7.5t32 4.5t32 1.5q63 0 94 -26t31 -67q0 -32 -15 -61t-37.5 -53.5t-47.5 -45.5t-44 -37l-118 -101h171z" />
<glyph unicode="&#xbe;" horiz-adv-x="773" d="M23 -133l-37 29l788 908l36 -29zM277 797q31 0 53.5 -6t37 -17.5t21.5 -27.5t7 -34q0 -22 -9 -41.5t-25 -35t-36.5 -27t-43.5 -18.5v-1q38 -4 64 -28t26 -62q0 -36 -18 -65t-47.5 -49.5t-67 -31t-77.5 -10.5q-33 0 -58 3.5t-42 10.5l22 57q17 -10 40 -18t54 -8 q47 0 78.5 26.5t31.5 74.5q0 29 -25 48.5t-85 19.5q-7 0 -18 -0.5t-20 -1.5l8 41q83 0 126.5 29.5t43.5 80.5q0 50 -60 50q-10 0 -21 -2.5t-21 -6.5q-6 -14 -16 -30t-21 -29h-31l21 91q22 8 49 13t59 5zM591 -12l-12 -64q14 -4 26 -9t23 -12l-4 -24h-188l5 24 q14 7 29.5 12.5t33.5 8.5l11 64h-203l1 51l254 279h86l-52 -276h83l-10 -54h-83zM567 256l-194 -214h153z" />
<glyph unicode="&#xbf;" horiz-adv-x="412" d="M228 -206q-40 2 -79.5 14t-72.5 33t-53.5 51t-20.5 69q0 43 18 71.5t44 51t56 43.5t53.5 47t36.5 61.5t6 89.5h78q8 -50 -4.5 -86t-35 -63.5t-51 -49t-54 -43t-42.5 -46t-17 -59.5q0 -21 13 -39t35 -31.5t52 -23t64 -11.5zM328 458q0 -14 -4.5 -25.5t-13.5 -20t-20 -13.5 t-25 -5q-27 0 -42.5 16t-15.5 41q0 29 18 46.5t46 17.5q26 0 41.5 -16t15.5 -41z" />
<glyph unicode="&#xc0;" horiz-adv-x="653" d="M359 0l5 30q19 9 39 17t41 14l-20 117h-254l-59 -117q18 -6 32 -14t27 -17l-5 -30h-205l5 30q14 10 31 18t30 13l344 620h66l107 -620q16 -7 28 -14.5t23 -16.5l-6 -30h-229zM360 563h-1l-167 -337h224zM450 736l-186 74l41 75l164 -113z" />
<glyph unicode="&#xc1;" horiz-adv-x="653" d="M359 0l5 30q19 9 39 17t41 14l-20 117h-254l-59 -117q18 -6 32 -14t27 -17l-5 -30h-205l5 30q14 10 31 18t30 13l344 620h66l107 -620q16 -7 28 -14.5t23 -16.5l-6 -30h-229zM360 563h-1l-167 -337h224zM387 736l-14 36l181 103l30 -72z" />
<glyph unicode="&#xc2;" horiz-adv-x="653" d="M359 0l5 30q19 9 39 17t41 14l-20 117h-254l-59 -117q18 -6 32 -14t27 -17l-5 -30h-205l5 30q14 10 31 18t30 13l344 620h66l107 -620q16 -7 28 -14.5t23 -16.5l-6 -30h-229zM360 563h-1l-167 -337h224zM537 736l-114 67l-132 -67l-19 35l161 113l129 -115z" />
<glyph unicode="&#xc3;" horiz-adv-x="653" d="M359 0l5 30q19 9 39 17t41 14l-20 117h-254l-59 -117q18 -6 32 -14t27 -17l-5 -30h-205l5 30q14 10 31 18t30 13l344 620h66l107 -620q16 -7 28 -14.5t23 -16.5l-6 -30h-229zM360 563h-1l-167 -337h224zM586 812q-24 -28 -53.5 -44.5t-59.5 -16.5q-19 0 -34 5.5t-33 15.5 t-30.5 15t-28.5 5q-19 0 -35 -7.5t-31 -21.5l-20 30q25 29 54 45t59 16q19 0 34 -5.5t33 -15.5t30.5 -15t28.5 -5q19 0 35.5 7.5t30.5 21.5z" />
<glyph unicode="&#xc4;" horiz-adv-x="653" d="M359 0l5 30q19 9 39 17t41 14l-20 117h-254l-59 -117q18 -6 32 -14t27 -17l-5 -30h-205l5 30q14 10 31 18t30 13l344 620h66l107 -620q16 -7 28 -14.5t23 -16.5l-6 -30h-229zM360 563h-1l-167 -337h224zM569 792q0 -12 -4 -22t-12 -17.5t-18 -12t-21 -4.5q-23 0 -37 14 t-14 37q0 11 4.5 21t12 18t17.5 12t21 4q23 0 37 -14t14 -36zM375 792q0 -12 -4 -22t-12 -17.5t-18 -12t-21 -4.5q-23 0 -37 14t-14 37q0 11 4.5 21t12 18t17.5 12t22 4q22 0 36 -14t14 -36z" />
<glyph unicode="&#xc5;" horiz-adv-x="653" d="M359 0l5 30q19 9 39 17t41 14l-20 117h-254l-59 -117q18 -6 32 -14t27 -17l-5 -30h-205l5 30q14 10 31 18t30 13l344 620h66l107 -620q16 -7 28 -14.5t23 -16.5l-6 -30h-229zM360 563h-1l-167 -337h224zM532 828q0 -29 -10.5 -51.5t-28 -38t-41 -24t-51.5 -8.5 q-45 0 -68.5 22.5t-23.5 55.5q0 27 10 49t27 38t41 25t53 9q22 0 39.5 -6t28.5 -16.5t17.5 -24.5t6.5 -30zM478 818q0 21 -13 35.5t-36 14.5q-28 0 -47 -20t-19 -54q0 -22 13 -36.5t36 -14.5q14 0 26 5.5t21 15.5t14 23.5t5 30.5z" />
<glyph unicode="&#xc6;" horiz-adv-x="813" d="M789 527h-37q-3 13 -6 29q-3 14 -5.5 32t-2.5 38h-182l-48 -254h147q6 13 13.5 25t14.5 21q7 11 14 21h33l-34 -181h-33q-3 10 -7 20q-3 9 -5.5 21.5t-4.5 25.5h-147l-52 -274h188q7 19 16 37t17 33q10 17 19 34h39l-29 -155h-424l6 29q16 6 34.5 15t42.5 16l22 118h-215 l-81 -117q12 -5 22 -10t18 -10t15 -11l-6 -30h-197l7 31l16 10q8 6 17.5 11t20.5 10l409 555q-14 4 -26.5 8.5t-21.5 9.5q-11 5 -21 11l6 29h478zM460 615h-1l-265 -389h193z" />
<glyph unicode="&#xc7;" horiz-adv-x="592" d="M571 500h-38q-6 24 -9.5 51t-3.5 50q-22 11 -48.5 16.5t-60.5 5.5q-68 0 -119 -36t-83.5 -93.5t-47.5 -122.5t-15 -124q0 -86 45 -136.5t138 -50.5q44 0 84.5 10.5t78.5 32.5l12 -43q-43 -33 -98.5 -51t-112.5 -18q-131 0 -191.5 65.5t-60.5 174.5q0 85 26.5 166t78 146 t125.5 102.5t166 37.5q93 0 165 -21zM262 -57q30 -18 37.5 -41.5t-5.5 -49.5t-45.5 -53t-80.5 -52l-30 26q66 41 74.5 72t-41.5 58l89 97h54z" />
<glyph unicode="&#xc8;" horiz-adv-x="528" d="M508 527h-39q-6 22 -10 49.5t-4 49.5h-183l-48 -254h146q10 18 20.5 35t22.5 32h32l-34 -181h-33q-6 14 -10 32t-6 35h-147l-52 -274h185q9 23 23 50.5t29 53.5h38l-28 -155h-426l5 30q20 10 40.5 18t41.5 14l105 551q-19 6 -36.5 14t-33.5 18l7 30h423zM386 736l-186 74 l41 75l164 -113z" />
<glyph unicode="&#xc9;" horiz-adv-x="528" d="M508 527h-39q-6 22 -10 49.5t-4 49.5h-183l-48 -254h146q10 18 20.5 35t22.5 32h32l-34 -181h-33q-6 14 -10 32t-6 35h-147l-52 -274h185q9 23 23 50.5t29 53.5h38l-28 -155h-426l5 30q20 10 40.5 18t41.5 14l105 551q-19 6 -36.5 14t-33.5 18l7 30h423zM321 736l-14 36 l181 103l30 -72z" />
<glyph unicode="&#xca;" horiz-adv-x="528" d="M508 527h-39q-6 22 -10 49.5t-4 49.5h-183l-48 -254h146q10 18 20.5 35t22.5 32h32l-34 -181h-33q-6 14 -10 32t-6 35h-147l-52 -274h185q9 23 23 50.5t29 53.5h38l-28 -155h-426l5 30q20 10 40.5 18t41.5 14l105 551q-19 6 -36.5 14t-33.5 18l7 30h423zM477 736l-114 67 l-132 -67l-19 35l161 113l129 -115z" />
<glyph unicode="&#xcb;" horiz-adv-x="528" d="M508 527h-39q-6 22 -10 49.5t-4 49.5h-183l-48 -254h146q10 18 20.5 35t22.5 32h32l-34 -181h-33q-6 14 -10 32t-6 35h-147l-52 -274h185q9 23 23 50.5t29 53.5h38l-28 -155h-426l5 30q20 10 40.5 18t41.5 14l105 551q-19 6 -36.5 14t-33.5 18l7 30h423zM512 792 q0 -12 -4 -22t-12 -17.5t-18 -12t-21 -4.5q-23 0 -37 14t-14 37q0 11 4.5 21t12 18t17.5 12t21 4q23 0 37 -14t14 -36zM318 792q0 -12 -4 -22t-12 -17.5t-18 -12t-21 -4.5q-23 0 -37 14t-14 37q0 11 4.5 21t12 18t17.5 12t22 4q22 0 36 -14t14 -36z" />
<glyph unicode="&#xcc;" horiz-adv-x="318" d="M352 645q-10 -5 -33 -14.5t-49 -16.5l-105 -553q23 -7 42.5 -16.5t27.5 -14.5l-5 -30h-246l5 30q10 5 32.5 14.5t49.5 16.5l105 553q-23 7 -42.5 16.5t-27.5 14.5l7 30h245zM294 736l-186 74l41 75l164 -113z" />
<glyph unicode="&#xcd;" horiz-adv-x="318" d="M352 645q-10 -5 -33 -14.5t-49 -16.5l-105 -553q23 -7 42.5 -16.5t27.5 -14.5l-5 -30h-246l5 30q10 5 32.5 14.5t49.5 16.5l105 553q-23 7 -42.5 16.5t-27.5 14.5l7 30h245zM200 736l-14 36l181 103l30 -72z" />
<glyph unicode="&#xce;" horiz-adv-x="318" d="M352 645q-10 -5 -33 -14.5t-49 -16.5l-105 -553q23 -7 42.5 -16.5t27.5 -14.5l-5 -30h-246l5 30q10 5 32.5 14.5t49.5 16.5l105 553q-23 7 -42.5 16.5t-27.5 14.5l7 30h245zM369 736l-114 67l-132 -67l-19 35l161 113l129 -115z" />
<glyph unicode="&#xcf;" horiz-adv-x="318" d="M352 645q-10 -5 -33 -14.5t-49 -16.5l-105 -553q23 -7 42.5 -16.5t27.5 -14.5l-5 -30h-246l5 30q10 5 32.5 14.5t49.5 16.5l105 553q-23 7 -42.5 16.5t-27.5 14.5l7 30h245zM408 792q0 -12 -4 -22t-12 -17.5t-18 -12t-21 -4.5q-23 0 -37 14t-14 37q0 11 4.5 21t12 18 t17.5 12t21 4q23 0 37 -14t14 -36zM214 792q0 -12 -4 -22t-12 -17.5t-18 -12t-21 -4.5q-23 0 -37 14t-14 37q0 11 4.5 21t12 18t17.5 12t22 4q22 0 36 -14t14 -36z" />
<glyph unicode="&#xd0;" horiz-adv-x="726" d="M710 442q0 -83 -27 -162t-83 -143t-141 -102t-197 -38q-43 0 -103 1.5t-79 1.5h-78l6 30q20 10 40.5 18t41.5 14l49 263h-110l10 49h110l45 239q-18 6 -35.5 14t-33.5 18l5 30h78q17 0 36.5 0.5t56 1.5t62 1.5t49.5 0.5q151 0 224.5 -60t73.5 -177zM608 436 q0 47 -13.5 83t-41.5 61t-69.5 38t-97.5 13q-28 0 -50 -1.5t-45 -4.5l-48 -251h169l-10 -49h-169l-49 -259q22 -7 53 -11t65 -4q67 0 123.5 30.5t97.5 84t63 123.5t22 147z" />
<glyph unicode="&#xd1;" horiz-adv-x="709" d="M735 645q-23 -14 -37.5 -22t-31.5 -13l-117 -617h-57l-90 193.5t-83 177.5t-98 210q-6 -36 -18.5 -118t-19.5 -130.5t-18.5 -122.5t-21.5 -138q18 -7 35 -15.5t31 -18.5l-5 -31h-220l5 30q39 19 51 24.5t29 10.5l110 548q-18 4 -36 12.5t-36 19.5l6 30h171 q54 -116 88 -188t75.5 -161.5t79.5 -170.5l72 455q-15 5 -31 14t-32 21l6 30h200zM623 812q-24 -28 -53.5 -44.5t-59.5 -16.5q-19 0 -34 5.5t-33 15.5t-30.5 15t-28.5 5q-19 0 -35 -7.5t-31 -21.5l-20 30q25 29 54 45t59 16q19 0 34 -5.5t33 -15.5t30.5 -15t28.5 -5 q19 0 35.5 7.5t30.5 21.5z" />
<glyph unicode="&#xd2;" horiz-adv-x="720" d="M702 436q0 -88 -28.5 -168.5t-82 -143t-129 -98t-165.5 -35.5q-126 0 -191 67.5t-65 180.5q0 88 28.5 168.5t82 143t129 98t165.5 35.5q126 0 191 -67.5t65 -180.5zM597 419q0 96 -48 151t-136 55q-68 0 -119 -34.5t-84 -90.5t-48.5 -120.5t-15.5 -123.5q0 -47 12 -85 t35.5 -65t58 -41.5t78.5 -14.5q68 0 119 34.5t84 90.5t48.5 120.5t15.5 123.5zM480 736l-186 74l41 75l164 -113z" />
<glyph unicode="&#xd3;" horiz-adv-x="720" d="M702 436q0 -88 -28.5 -168.5t-82 -143t-129 -98t-165.5 -35.5q-126 0 -191 67.5t-65 180.5q0 88 28.5 168.5t82 143t129 98t165.5 35.5q126 0 191 -67.5t65 -180.5zM597 419q0 96 -48 151t-136 55q-68 0 -119 -34.5t-84 -90.5t-48.5 -120.5t-15.5 -123.5q0 -47 12 -85 t35.5 -65t58 -41.5t78.5 -14.5q68 0 119 34.5t84 90.5t48.5 120.5t15.5 123.5zM410 736l-14 36l181 103l30 -72z" />
<glyph unicode="&#xd4;" horiz-adv-x="720" d="M702 436q0 -88 -28.5 -168.5t-82 -143t-129 -98t-165.5 -35.5q-126 0 -191 67.5t-65 180.5q0 88 28.5 168.5t82 143t129 98t165.5 35.5q126 0 191 -67.5t65 -180.5zM597 419q0 96 -48 151t-136 55q-68 0 -119 -34.5t-84 -90.5t-48.5 -120.5t-15.5 -123.5q0 -47 12 -85 t35.5 -65t58 -41.5t78.5 -14.5q68 0 119 34.5t84 90.5t48.5 120.5t15.5 123.5zM572 736l-114 67l-132 -67l-19 35l161 113l129 -115z" />
<glyph unicode="&#xd5;" horiz-adv-x="720" d="M702 436q0 -88 -28.5 -168.5t-82 -143t-129 -98t-165.5 -35.5q-126 0 -191 67.5t-65 180.5q0 88 28.5 168.5t82 143t129 98t165.5 35.5q126 0 191 -67.5t65 -180.5zM597 419q0 96 -48 151t-136 55q-68 0 -119 -34.5t-84 -90.5t-48.5 -120.5t-15.5 -123.5q0 -47 12 -85 t35.5 -65t58 -41.5t78.5 -14.5q68 0 119 34.5t84 90.5t48.5 120.5t15.5 123.5zM626 812q-24 -28 -53.5 -44.5t-59.5 -16.5q-19 0 -34 5.5t-33 15.5t-30.5 15t-28.5 5q-19 0 -35 -7.5t-31 -21.5l-20 30q25 29 54 45t59 16q19 0 34 -5.5t33 -15.5t30.5 -15t28.5 -5 q19 0 35.5 7.5t30.5 21.5z" />
<glyph unicode="&#xd6;" horiz-adv-x="720" d="M702 436q0 -88 -28.5 -168.5t-82 -143t-129 -98t-165.5 -35.5q-126 0 -191 67.5t-65 180.5q0 88 28.5 168.5t82 143t129 98t165.5 35.5q126 0 191 -67.5t65 -180.5zM597 419q0 96 -48 151t-136 55q-68 0 -119 -34.5t-84 -90.5t-48.5 -120.5t-15.5 -123.5q0 -47 12 -85 t35.5 -65t58 -41.5t78.5 -14.5q68 0 119 34.5t84 90.5t48.5 120.5t15.5 123.5zM608 792q0 -12 -4 -22t-12 -17.5t-18 -12t-21 -4.5q-23 0 -37 14t-14 37q0 11 4.5 21t12 18t17.5 12t21 4q23 0 37 -14t14 -36zM414 792q0 -12 -4 -22t-12 -17.5t-18 -12t-21 -4.5q-23 0 -37 14 t-14 37q0 11 4.5 21t12 18t17.5 12t22 4q22 0 36 -14t14 -36z" />
<glyph unicode="&#xd7;" d="M319 269l132 -162l-53 -43l-131 162l-192 -162l-41 49l193 162l-131 163l52 44l131 -163l193 163l41 -49z" />
<glyph unicode="&#xd8;" horiz-adv-x="720" d="M702 436q0 -88 -28 -168.5t-81 -142t-128 -98t-167 -36.5q-39 0 -70.5 6.5t-55.5 17.5l-86 -117l-47 30l84 116q-37 29 -59.5 77.5t-22.5 117.5q0 88 28.5 168.5t81.5 142t127.5 98t168.5 36.5q34 0 65.5 -6t57.5 -18l86 117l47 -30l-84 -115q38 -30 60.5 -78.5 t22.5 -117.5zM599 420q0 45 -10 77t-27 56l-344 -473q21 -13 47 -22t64 -9q72 0 123.5 37t84 92.5t47.5 120.5t15 121zM524 595q-23 17 -51.5 24t-58.5 7q-72 0 -123.5 -37t-84 -92.5t-47.5 -120.5t-15 -121q0 -41 9.5 -74t27.5 -58z" />
<glyph unicode="&#xd9;" horiz-adv-x="711" d="M746 645q-32 -22 -70 -34l-69 -352q-24 -128 -104.5 -198.5t-205.5 -70.5q-68 0 -113.5 19.5t-69.5 54.5t-29.5 80t4.5 97l71 373q-14 5 -29 13.5t-25 17.5l6 30h228l-6 -30q-20 -10 -39.5 -18t-40.5 -13l-70 -369q-8 -40 -5.5 -74.5t17.5 -61t47 -42t81 -15.5 q90 0 144.5 54.5t72.5 154.5l61 350q-17 5 -33 14t-32 20l6 30h209zM470 736l-186 74l41 75l164 -113z" />
<glyph unicode="&#xda;" horiz-adv-x="711" d="M746 645q-32 -22 -70 -34l-69 -352q-24 -128 -104.5 -198.5t-205.5 -70.5q-68 0 -113.5 19.5t-69.5 54.5t-29.5 80t4.5 97l71 373q-14 5 -29 13.5t-25 17.5l6 30h228l-6 -30q-20 -10 -39.5 -18t-40.5 -13l-70 -369q-8 -40 -5.5 -74.5t17.5 -61t47 -42t81 -15.5 q90 0 144.5 54.5t72.5 154.5l61 350q-17 5 -33 14t-32 20l6 30h209zM425 736l-14 36l181 103l30 -72z" />
<glyph unicode="&#xdb;" horiz-adv-x="711" d="M746 645q-32 -22 -70 -34l-69 -352q-24 -128 -104.5 -198.5t-205.5 -70.5q-68 0 -113.5 19.5t-69.5 54.5t-29.5 80t4.5 97l71 373q-14 5 -29 13.5t-25 17.5l6 30h228l-6 -30q-20 -10 -39.5 -18t-40.5 -13l-70 -369q-8 -40 -5.5 -74.5t17.5 -61t47 -42t81 -15.5 q90 0 144.5 54.5t72.5 154.5l61 350q-17 5 -33 14t-32 20l6 30h209zM569 736l-114 67l-132 -67l-19 35l161 113l129 -115z" />
<glyph unicode="&#xdc;" horiz-adv-x="711" d="M746 645q-32 -22 -70 -34l-69 -352q-24 -128 -104.5 -198.5t-205.5 -70.5q-68 0 -113.5 19.5t-69.5 54.5t-29.5 80t4.5 97l71 373q-14 5 -29 13.5t-25 17.5l6 30h228l-6 -30q-20 -10 -39.5 -18t-40.5 -13l-70 -369q-8 -40 -5.5 -74.5t17.5 -61t47 -42t81 -15.5 q90 0 144.5 54.5t72.5 154.5l61 350q-17 5 -33 14t-32 20l6 30h209zM605 792q0 -12 -4 -22t-12 -17.5t-18 -12t-21 -4.5q-23 0 -37 14t-14 37q0 11 4.5 21t12 18t17.5 12t21 4q23 0 37 -14t14 -36zM411 792q0 -12 -4 -22t-12 -17.5t-18 -12t-21 -4.5q-23 0 -37 14t-14 37 q0 11 4.5 21t12 18t17.5 12t22 4q22 0 36 -14t14 -36z" />
<glyph unicode="&#xdd;" horiz-adv-x="576" d="M637 645q-24 -20 -54 -32l-244 -330l-43 -222q19 -5 36 -12.5t34 -18.5l-5 -30h-246l6 30q21 11 41 18.5t40 12.5l43 222l-122 332q-11 5 -23.5 13t-20.5 17l6 30h219l-6 -30q-14 -9 -33.5 -17.5t-37.5 -13.5q21 -60 37 -104.5t31.5 -88t27.5 -76.5h1q39 60 68 104.5 t58.5 89t48.5 74.5q-15 4 -31 13t-28 19l6 30h197zM352 736l-14 36l181 103l30 -72z" />
<glyph unicode="&#xde;" horiz-adv-x="575" d="M559 405q0 -60 -26.5 -109.5t-71 -84.5t-101.5 -54t-117 -19h-24t-20 1q-11 1 -19 3l-16 -84q15 -4 28 -8.5t24 -9.5t22 -11l-5 -29h-249l5 30q12 6 25 12q12 5 26.5 10t30.5 9l105 553q-14 4 -27 9t-22 10q-11 5 -21 12l7 30h244l-6 -29q-12 -7 -25 -11 q-11 -6 -25.5 -10t-29.5 -8l-10 -55q14 0 31 1q14 1 31.5 1.5t36.5 0.5q51 0 88 -10.5t62 -30.5t37 -50t12 -69zM459 394q0 26 -7 48.5t-22.5 39t-41 26t-64.5 9.5q-14 0 -27.5 -1t-23.5 -3q-12 -2 -23 -4l-57 -302q10 -4 23 -8q11 -3 25.5 -5.5t31.5 -2.5q43 0 77 16.5 t58.5 44.5t37.5 65t13 77z" />
<glyph unicode="&#xdf;" horiz-adv-x="588" d="M127 -77q-8 -41 -25 -74t-43 -56t-62 -34.5t-82 -11.5q-19 0 -36 1.5t-30 3.5q-14 3 -26 6l26 133h33q4 -13 8 -29q3 -13 4.5 -29.5t1.5 -34.5q4 -1 10 -2q9 -3 24 -3q46 0 69 31t34 91l100 524q-9 4 -20 7q-10 3 -22 6t-26 6l5 31q11 2 23 4q11 2 24 3.5t27 2.5l5 23 q9 50 33 90t57.5 68t76.5 42.5t91 14.5q36 0 63.5 -8.5t46.5 -24t28 -36t9 -43.5q0 -36 -12 -59.5t-30 -40.5t-39 -29.5t-39 -27.5t-30 -36t-12 -51q0 -21 11 -37t27.5 -29.5t36 -27.5t36 -31.5t28 -40t11.5 -53.5q0 -34 -17.5 -64.5t-47.5 -53.5t-69.5 -36.5t-82.5 -13.5 q-20 0 -37 1.5t-29 3.5q-15 2 -27 5l25 133h32q3 -13 7 -25q3 -12 5 -26t3 -27q6 -3 14 -5q7 -2 15.5 -3.5t18.5 -1.5q50 0 72.5 26.5t22.5 66.5q0 22 -11 39t-27.5 32t-36 28.5t-36 30.5t-27.5 38t-11 50q0 35 12 59t29.5 40.5t38.5 30.5t38.5 29.5t29.5 36.5t12 53 q0 31 -20 52.5t-60 21.5q-51 0 -85.5 -35.5t-49.5 -114.5z" />
<glyph unicode="&#xe0;" horiz-adv-x="566" d="M428 59q7 -3 24 -8.5t41 -9.5l-5 -32q-18 -4 -62 -9t-99 -3q5 25 10.5 50.5t12.5 51.5t14.5 53t16.5 55l-2 1q-16 -40 -39.5 -78.5t-53.5 -70t-66 -50t-74 -18.5q-56 0 -88 42.5t-32 115.5q0 65 18.5 128t58 115.5t101.5 83.5t146 31q52 0 96 -9.5t63 -15.5zM407 432 q-34 24 -89 24q-49 0 -86 -28t-60.5 -72.5t-35 -95t-11.5 -96.5q0 -106 62 -106q32 0 64.5 27.5t61.5 73t50 98t30 101.5zM372 575l-149 128l64 64l112 -164z" />
<glyph unicode="&#xe1;" horiz-adv-x="566" d="M428 59q7 -3 24 -8.5t41 -9.5l-5 -32q-18 -4 -62 -9t-99 -3q5 25 10.5 50.5t12.5 51.5t14.5 53t16.5 55l-2 1q-16 -40 -39.5 -78.5t-53.5 -70t-66 -50t-74 -18.5q-56 0 -88 42.5t-32 115.5q0 65 18.5 128t58 115.5t101.5 83.5t146 31q52 0 96 -9.5t63 -15.5zM407 432 q-34 24 -89 24q-49 0 -86 -28t-60.5 -72.5t-35 -95t-11.5 -96.5q0 -106 62 -106q32 0 64.5 27.5t61.5 73t50 98t30 101.5zM314 577l-22 33l152 149l49 -70z" />
<glyph unicode="&#xe2;" horiz-adv-x="566" d="M428 59q7 -3 24 -8.5t41 -9.5l-5 -32q-18 -4 -62 -9t-99 -3q5 25 10.5 50.5t12.5 51.5t14.5 53t16.5 55l-2 1q-16 -40 -39.5 -78.5t-53.5 -70t-66 -50t-74 -18.5q-56 0 -88 42.5t-32 115.5q0 65 18.5 128t58 115.5t101.5 83.5t146 31q52 0 96 -9.5t63 -15.5zM407 432 q-34 24 -89 24q-49 0 -86 -28t-60.5 -72.5t-35 -95t-11.5 -96.5q0 -106 62 -106q32 0 64.5 27.5t61.5 73t50 98t30 101.5zM446 575l-97 91l-121 -91l-23 31l160 159l111 -163z" />
<glyph unicode="&#xe3;" horiz-adv-x="566" d="M428 59q7 -3 24 -8.5t41 -9.5l-5 -32q-18 -4 -62 -9t-99 -3q5 25 10.5 50.5t12.5 51.5t14.5 53t16.5 55l-2 1q-16 -40 -39.5 -78.5t-53.5 -70t-66 -50t-74 -18.5q-56 0 -88 42.5t-32 115.5q0 65 18.5 128t58 115.5t101.5 83.5t146 31q52 0 96 -9.5t63 -15.5zM407 432 q-34 24 -89 24q-49 0 -86 -28t-60.5 -72.5t-35 -95t-11.5 -96.5q0 -106 62 -106q32 0 64.5 27.5t61.5 73t50 98t30 101.5zM510 662q-26 -30 -54.5 -46t-57.5 -16q-20 0 -34.5 5.5t-32 16t-28.5 15.5t-26 5q-18 0 -35 -7.5t-32 -21.5l-19 29q25 31 54 46.5t59 15.5 q20 0 34.5 -5.5t31.5 -16t27.5 -15.5t25.5 -5q19 0 35 7.5t32 21.5z" />
<glyph unicode="&#xe4;" horiz-adv-x="566" d="M428 59q7 -3 24 -8.5t41 -9.5l-5 -32q-18 -4 -62 -9t-99 -3q5 25 10.5 50.5t12.5 51.5t14.5 53t16.5 55l-2 1q-16 -40 -39.5 -78.5t-53.5 -70t-66 -50t-74 -18.5q-56 0 -88 42.5t-32 115.5q0 65 18.5 128t58 115.5t101.5 83.5t146 31q52 0 96 -9.5t63 -15.5zM407 432 q-34 24 -89 24q-49 0 -86 -28t-60.5 -72.5t-35 -95t-11.5 -96.5q0 -106 62 -106q32 0 64.5 27.5t61.5 73t50 98t30 101.5zM498 660q0 -24 -16.5 -40.5t-39.5 -16.5t-37.5 14.5t-14.5 37.5q0 24 16.5 40t40.5 16q23 0 37 -14t14 -37zM310 660q0 -24 -16.5 -40.5t-39.5 -16.5 t-37.5 14.5t-14.5 37.5q0 24 16.5 40t40.5 16q23 0 37 -14t14 -37z" />
<glyph unicode="&#xe5;" horiz-adv-x="566" d="M428 59q7 -3 24 -8.5t41 -9.5l-5 -32q-18 -4 -62 -9t-99 -3q5 25 10.5 50.5t12.5 51.5t14.5 53t16.5 55l-2 1q-16 -40 -39.5 -78.5t-53.5 -70t-66 -50t-74 -18.5q-56 0 -88 42.5t-32 115.5q0 65 18.5 128t58 115.5t101.5 83.5t146 31q52 0 96 -9.5t63 -15.5zM407 432 q-34 24 -89 24q-49 0 -86 -28t-60.5 -72.5t-35 -95t-11.5 -96.5q0 -106 62 -106q32 0 64.5 27.5t61.5 73t50 98t30 101.5zM467 687q0 -29 -10.5 -52.5t-29 -40t-43 -25.5t-53.5 -9q-47 0 -72 23.5t-25 58.5q0 28 10 51t28 39.5t43 26t55 9.5q23 0 41.5 -6.5t30.5 -17.5 t18.5 -25.5t6.5 -31.5zM409 677q0 22 -13 37t-37 15q-29 0 -48 -20.5t-19 -56.5q0 -22 13 -37t37 -15q14 0 26.5 5.5t22 15.5t14 24.5t4.5 31.5z" />
<glyph unicode="&#xe6;" horiz-adv-x="744" d="M720 401q0 -41 -19.5 -71.5t-59.5 -51t-101.5 -31t-144.5 -11.5q-2 -8 -3 -17t-1.5 -19.5t-0.5 -25.5q0 -56 27 -86.5t78 -30.5q47 0 85.5 14t69.5 30l10 -41q-42 -29 -92 -48.5t-106 -19.5q-35 0 -61.5 7t-45 20.5t-30.5 33t-18 44.5q-18 -24 -41.5 -44t-48 -33.5 t-50 -21t-47.5 -7.5q-28 0 -48.5 9t-34.5 25t-21 36.5t-7 42.5q0 42 24 76t65 59t96.5 38.5t119.5 13.5l10 55q10 52 -7.5 82.5t-66.5 30.5q-16 0 -30 -3t-24 -6q-12 -4 -22 -10q-9 -21 -18.5 -38t-16.5 -29q-10 -14 -17 -25h-36l25 129q23 8 51 15q23 5 51.5 10t59.5 5 q59 0 89 -18t43 -47q28 31 71 48t95 17q42 0 70.5 -9t46 -24t25 -34t7.5 -39zM622 391q0 27 -15.5 47t-51.5 20q-33 0 -59 -17t-45 -43t-30.5 -57.5t-17.5 -58.5q107 0 163 27t56 82zM305 244q-59 1 -97.5 -9t-61 -27.5t-31.5 -40.5t-9 -46q0 -28 13.5 -46t38.5 -18 q19 0 41 11.5t42 32.5t36 51.5t24 69.5z" />
<glyph unicode="&#xe7;" horiz-adv-x="450" d="M422 345h-35q-16 46 -16 92q-14 10 -33 14.5t-40 4.5q-41 0 -73 -27t-53 -69.5t-31.5 -88.5t-10.5 -84q0 -62 30.5 -96t90.5 -34q32 0 61.5 7.5t61.5 22.5l9 -38q-38 -26 -83 -41.5t-89 -15.5q-39 0 -72 10t-57.5 31t-38.5 54.5t-14 79.5q0 49 14 106.5t47 111t90.5 88 t139.5 34.5q36 0 69.5 -4.5t60.5 -12.5zM181 -57q30 -18 37.5 -41.5t-5.5 -49.5t-45.5 -53t-80.5 -52l-30 26q66 41 74.5 72t-41.5 58l89 97h54z" />
<glyph unicode="&#xe8;" horiz-adv-x="482" d="M458 401q0 -82 -79 -122.5t-246 -42.5q-1 -6 -3 -22.5t-2 -39.5q0 -56 27 -86.5t78 -30.5q42 0 79.5 12t74.5 32l11 -41q-45 -31 -95 -49.5t-103 -18.5q-86 0 -128.5 42.5t-42.5 122.5q0 62 15.5 123t49.5 113t88 83t127 31q40 0 69 -8.5t46.5 -23.5t25.5 -34t8 -40z M360 391q0 14 -4 26t-12 21.5t-21 14.5t-30 5q-32 0 -58 -16t-44.5 -42t-30.5 -56.5t-19 -61.5q107 0 163 27.5t56 81.5zM325 575l-149 128l64 64l112 -164z" />
<glyph unicode="&#xe9;" horiz-adv-x="482" d="M458 401q0 -82 -79 -122.5t-246 -42.5q-1 -6 -3 -22.5t-2 -39.5q0 -56 27 -86.5t78 -30.5q42 0 79.5 12t74.5 32l11 -41q-45 -31 -95 -49.5t-103 -18.5q-86 0 -128.5 42.5t-42.5 122.5q0 62 15.5 123t49.5 113t88 83t127 31q40 0 69 -8.5t46.5 -23.5t25.5 -34t8 -40z M360 391q0 14 -4 26t-12 21.5t-21 14.5t-30 5q-32 0 -58 -16t-44.5 -42t-30.5 -56.5t-19 -61.5q107 0 163 27.5t56 81.5zM279 577l-22 33l152 149l49 -70z" />
<glyph unicode="&#xea;" horiz-adv-x="482" d="M458 401q0 -82 -79 -122.5t-246 -42.5q-1 -6 -3 -22.5t-2 -39.5q0 -56 27 -86.5t78 -30.5q42 0 79.5 12t74.5 32l11 -41q-45 -31 -95 -49.5t-103 -18.5q-86 0 -128.5 42.5t-42.5 122.5q0 62 15.5 123t49.5 113t88 83t127 31q40 0 69 -8.5t46.5 -23.5t25.5 -34t8 -40z M360 391q0 14 -4 26t-12 21.5t-21 14.5t-30 5q-32 0 -58 -16t-44.5 -42t-30.5 -56.5t-19 -61.5q107 0 163 27.5t56 81.5zM412 575l-97 91l-121 -91l-23 31l160 159l111 -163z" />
<glyph unicode="&#xeb;" horiz-adv-x="482" d="M458 401q0 -82 -79 -122.5t-246 -42.5q-1 -6 -3 -22.5t-2 -39.5q0 -56 27 -86.5t78 -30.5q42 0 79.5 12t74.5 32l11 -41q-45 -31 -95 -49.5t-103 -18.5q-86 0 -128.5 42.5t-42.5 122.5q0 62 15.5 123t49.5 113t88 83t127 31q40 0 69 -8.5t46.5 -23.5t25.5 -34t8 -40z M360 391q0 14 -4 26t-12 21.5t-21 14.5t-30 5q-32 0 -58 -16t-44.5 -42t-30.5 -56.5t-19 -61.5q107 0 163 27.5t56 81.5zM467 660q0 -24 -16.5 -40.5t-39.5 -16.5t-37.5 14.5t-14.5 37.5q0 24 16.5 40t40.5 16q23 0 37 -14t14 -37zM279 660q0 -24 -16.5 -40.5t-39.5 -16.5 t-37.5 14.5t-14.5 37.5q0 24 16.5 40t40.5 16q23 0 37 -14t14 -37z" />
<glyph unicode="&#xec;" horiz-adv-x="284" d="M147 59q6 -3 22.5 -8.5t42.5 -9.5l-5 -32q-18 -4 -62 -9t-102 -3l84 442q-6 3 -22.5 8.5t-42.5 10.5l6 31q4 1 16.5 3t34.5 4.5t51 4t61 0.5zM227 575l-149 128l64 64l112 -164z" />
<glyph unicode="&#xed;" horiz-adv-x="284" d="M147 59q6 -3 22.5 -8.5t42.5 -9.5l-5 -32q-18 -4 -62 -9t-102 -3l84 442q-6 3 -22.5 8.5t-42.5 10.5l6 31q4 1 16.5 3t34.5 4.5t51 4t61 0.5zM162 577l-22 33l152 149l49 -70z" />
<glyph unicode="&#xee;" horiz-adv-x="284" d="M147 59q6 -3 22.5 -8.5t42.5 -9.5l-5 -32q-18 -4 -62 -9t-102 -3l84 442q-6 3 -22.5 8.5t-42.5 10.5l6 31q4 1 16.5 3t34.5 4.5t51 4t61 0.5zM307 575l-97 91l-121 -91l-23 31l160 159l111 -163z" />
<glyph unicode="&#xef;" horiz-adv-x="284" d="M147 59q6 -3 22.5 -8.5t42.5 -9.5l-5 -32q-18 -4 -62 -9t-102 -3l84 442q-6 3 -22.5 8.5t-42.5 10.5l6 31q4 1 16.5 3t34.5 4.5t51 4t61 0.5zM350 660q0 -24 -16.5 -40t-39.5 -16t-37.5 14t-14.5 37q0 24 16.5 40t40.5 16q23 0 37 -14.5t14 -36.5zM180 660 q0 -24 -16.5 -40t-40.5 -16q-23 0 -37 14t-14 37q0 24 16.5 40t39.5 16q24 0 38 -14.5t14 -36.5z" />
<glyph unicode="&#xf0;" horiz-adv-x="524" d="M494 391q0 -80 -20.5 -152.5t-59.5 -128.5t-94.5 -87.5t-123.5 -31.5q-86 0 -130 45t-44 129q0 70 21.5 131.5t63 108t100 72.5t129.5 26q8 0 19.5 -0.5t22.5 -1.5q-9 26 -24 51.5t-36 50.5l-142 -66l-16 41l119 56l-33 28.5t-27 19.5q-15 5 -33 9t-37 6l6 31 q30 5 62.5 8t72.5 3q22 -14 42.5 -30.5t38.5 -33.5l132 61l17 -40l-117 -54q45 -51 68 -113.5t23 -137.5zM395 364q0 23 -1.5 41.5t-4.5 34.5q-33 14 -77 14q-34 0 -62 -13.5t-49.5 -36.5t-37 -52t-25 -60t-14 -60.5t-4.5 -54.5q0 -61 24 -96t71 -35q45 0 79 30t56.5 78 t33.5 103.5t11 106.5z" />
<glyph unicode="&#xf1;" horiz-adv-x="591" d="M513 9q-4 -1 -16.5 -3t-34.5 -4.5t-51.5 -4t-61.5 -0.5q12 50 24 102.5t22 102.5t16 90.5t6 61.5q0 46 -11.5 66.5t-39.5 20.5q-31 0 -63 -28t-60.5 -73.5t-49.5 -98.5t-30 -102l-27 -139h-93l84 439q-6 3 -22.5 8.5t-42.5 10.5l6 31q18 4 61.5 9t99.5 3 q-9 -50 -22 -98.5t-32 -111.5l2 -1q16 40 39.5 78.5t54 70t65.5 50t71 18.5q29 0 49.5 -10.5t32.5 -29t17 -42t5 -51.5t-6 -69t-14.5 -84.5t-17 -80.5t-19.5 -81q6 -3 22.5 -8.5t42.5 -9.5zM532 662q-26 -30 -54.5 -46t-57.5 -16q-20 0 -34.5 5.5t-32 16t-28.5 15.5t-26 5 q-18 0 -35 -7.5t-32 -21.5l-19 29q25 31 54 46.5t59 15.5q20 0 34.5 -5.5t31.5 -16t27.5 -15.5t25.5 -5q19 0 35 7.5t32 21.5z" />
<glyph unicode="&#xf2;" horiz-adv-x="570" d="M530 322q0 -65 -21.5 -125t-62.5 -106.5t-98.5 -73t-127.5 -26.5q-94 0 -142 52t-48 134q0 65 21.5 124.5t62 106t98.5 73t128 26.5q94 0 142 -52t48 -133zM429 311q0 65 -30.5 103.5t-89.5 38.5q-51 0 -86.5 -29.5t-55 -73.5t-28 -88t-8.5 -74q0 -66 30 -104t90 -38 q51 0 86.5 29.5t55 73.5t28 88t8.5 74zM372 575l-149 128l64 64l112 -164z" />
<glyph unicode="&#xf3;" horiz-adv-x="570" d="M530 322q0 -65 -21.5 -125t-62.5 -106.5t-98.5 -73t-127.5 -26.5q-94 0 -142 52t-48 134q0 65 21.5 124.5t62 106t98.5 73t128 26.5q94 0 142 -52t48 -133zM429 311q0 65 -30.5 103.5t-89.5 38.5q-51 0 -86.5 -29.5t-55 -73.5t-28 -88t-8.5 -74q0 -66 30 -104t90 -38 q51 0 86.5 29.5t55 73.5t28 88t8.5 74zM317 577l-22 33l152 149l49 -70z" />
<glyph unicode="&#xf4;" horiz-adv-x="570" d="M530 322q0 -65 -21.5 -125t-62.5 -106.5t-98.5 -73t-127.5 -26.5q-94 0 -142 52t-48 134q0 65 21.5 124.5t62 106t98.5 73t128 26.5q94 0 142 -52t48 -133zM429 311q0 65 -30.5 103.5t-89.5 38.5q-51 0 -86.5 -29.5t-55 -73.5t-28 -88t-8.5 -74q0 -66 30 -104t90 -38 q51 0 86.5 29.5t55 73.5t28 88t8.5 74zM450 575l-97 91l-121 -91l-23 31l160 159l111 -163z" />
<glyph unicode="&#xf5;" horiz-adv-x="570" d="M530 322q0 -65 -21.5 -125t-62.5 -106.5t-98.5 -73t-127.5 -26.5q-94 0 -142 52t-48 134q0 65 21.5 124.5t62 106t98.5 73t128 26.5q94 0 142 -52t48 -133zM429 311q0 65 -30.5 103.5t-89.5 38.5q-51 0 -86.5 -29.5t-55 -73.5t-28 -88t-8.5 -74q0 -66 30 -104t90 -38 q51 0 86.5 29.5t55 73.5t28 88t8.5 74zM518 662q-26 -30 -54.5 -46t-57.5 -16q-20 0 -34.5 5.5t-32 16t-28.5 15.5t-26 5q-18 0 -35 -7.5t-32 -21.5l-19 29q25 31 54 46.5t59 15.5q20 0 34.5 -5.5t31.5 -16t27.5 -15.5t25.5 -5q19 0 35 7.5t32 21.5z" />
<glyph unicode="&#xf6;" horiz-adv-x="570" d="M530 322q0 -65 -21.5 -125t-62.5 -106.5t-98.5 -73t-127.5 -26.5q-94 0 -142 52t-48 134q0 65 21.5 124.5t62 106t98.5 73t128 26.5q94 0 142 -52t48 -133zM429 311q0 65 -30.5 103.5t-89.5 38.5q-51 0 -86.5 -29.5t-55 -73.5t-28 -88t-8.5 -74q0 -66 30 -104t90 -38 q51 0 86.5 29.5t55 73.5t28 88t8.5 74zM504 660q0 -24 -16.5 -40.5t-39.5 -16.5t-37.5 14.5t-14.5 37.5q0 24 16.5 40t40.5 16q23 0 37 -14t14 -37zM316 660q0 -24 -16.5 -40.5t-39.5 -16.5t-37.5 14.5t-14.5 37.5q0 24 16.5 40t40.5 16q23 0 37 -14t14 -37z" />
<glyph unicode="&#xf7;" d="M27 241l12 63h482l-12 -63h-482zM366 477q0 -11 -4.5 -21.5t-12.5 -18.5t-18 -12.5t-21 -4.5q-12 0 -21.5 4t-16.5 11.5t-11 17t-4 20.5t4.5 21.5t12.5 18t18 12.5t22 5q11 0 20.5 -4t16.5 -11t11 -16.5t4 -21.5zM289 72q0 -12 -4.5 -22.5t-12 -18.5t-18 -12t-21.5 -4 q-12 0 -21.5 3.5t-16.5 11t-11 17t-4 20.5t5 21.5t12.5 18t17.5 12.5t22 5q11 0 20.5 -4t16.5 -11t11 -16.5t4 -20.5z" />
<glyph unicode="&#xf8;" horiz-adv-x="570" d="M470 466q27 -23 43.5 -58t16.5 -86q0 -66 -21.5 -125t-61.5 -105.5t-97.5 -73.5t-129.5 -27q-25 0 -45.5 4t-36.5 11l-80 -111l-44 29l77 107q-28 23 -44.5 60t-16.5 86q0 64 21.5 124t61.5 106t97.5 73t129.5 27q22 0 43 -3.5t41 -12.5l77 107l44 -29zM181 64 q13 -9 30.5 -14.5t39.5 -5.5q37 0 65 15t48 39.5t33 54t20.5 59t10.5 54t3 39.5q0 28 -4 47t-12 37zM382 432q-18 13 -36.5 18t-36.5 5q-37 0 -65 -15.5t-48 -39.5t-33 -54t-20.5 -59t-10.5 -54t-3 -41q0 -51 17 -84z" />
<glyph unicode="&#xf9;" horiz-adv-x="591" d="M453 59q6 -3 22.5 -8.5t42.5 -9.5l-5 -32q-4 -1 -16.5 -3t-34.5 -4.5t-50.5 -4t-59.5 -0.5q9 50 21.5 99t32.5 111l-2 1q-16 -40 -39.5 -78.5t-54 -70t-65.5 -50t-71 -18.5q-29 0 -49.5 10.5t-32.5 29t-17 42t-5 51.5t5.5 69t14.5 85t18.5 85t18.5 76q-6 3 -23 8.5 t-42 9.5l6 32q4 1 16 3t34 4.5t52 4t62 0.5q-12 -46 -24 -99t-22 -104t-16 -92t-6 -62q0 -46 11.5 -66t38.5 -20q31 0 63 27.5t61 73t50 98.5t30 102l16 81q-6 3 -23 8t-43 10l7 31q4 1 16 3t34 4.5t51.5 4t61.5 0.5zM346 575l-149 128l64 64l112 -164z" />
<glyph unicode="&#xfa;" horiz-adv-x="591" d="M453 59q6 -3 22.5 -8.5t42.5 -9.5l-5 -32q-4 -1 -16.5 -3t-34.5 -4.5t-50.5 -4t-59.5 -0.5q9 50 21.5 99t32.5 111l-2 1q-16 -40 -39.5 -78.5t-54 -70t-65.5 -50t-71 -18.5q-29 0 -49.5 10.5t-32.5 29t-17 42t-5 51.5t5.5 69t14.5 85t18.5 85t18.5 76q-6 3 -23 8.5 t-42 9.5l6 32q4 1 16 3t34 4.5t52 4t62 0.5q-12 -46 -24 -99t-22 -104t-16 -92t-6 -62q0 -46 11.5 -66t38.5 -20q31 0 63 27.5t61 73t50 98.5t30 102l16 81q-6 3 -23 8t-43 10l7 31q4 1 16 3t34 4.5t51.5 4t61.5 0.5zM331 577l-22 33l152 149l49 -70z" />
<glyph unicode="&#xfb;" horiz-adv-x="591" d="M453 59q6 -3 22.5 -8.5t42.5 -9.5l-5 -32q-4 -1 -16.5 -3t-34.5 -4.5t-50.5 -4t-59.5 -0.5q9 50 21.5 99t32.5 111l-2 1q-16 -40 -39.5 -78.5t-54 -70t-65.5 -50t-71 -18.5q-29 0 -49.5 10.5t-32.5 29t-17 42t-5 51.5t5.5 69t14.5 85t18.5 85t18.5 76q-6 3 -23 8.5 t-42 9.5l6 32q4 1 16 3t34 4.5t52 4t62 0.5q-12 -46 -24 -99t-22 -104t-16 -92t-6 -62q0 -46 11.5 -66t38.5 -20q31 0 63 27.5t61 73t50 98.5t30 102l16 81q-6 3 -23 8t-43 10l7 31q4 1 16 3t34 4.5t51.5 4t61.5 0.5zM457 575l-97 91l-121 -91l-23 31l160 159l111 -163z" />
<glyph unicode="&#xfc;" horiz-adv-x="591" d="M453 59q6 -3 22.5 -8.5t42.5 -9.5l-5 -32q-4 -1 -16.5 -3t-34.5 -4.5t-50.5 -4t-59.5 -0.5q9 50 21.5 99t32.5 111l-2 1q-16 -40 -39.5 -78.5t-54 -70t-65.5 -50t-71 -18.5q-29 0 -49.5 10.5t-32.5 29t-17 42t-5 51.5t5.5 69t14.5 85t18.5 85t18.5 76q-6 3 -23 8.5 t-42 9.5l6 32q4 1 16 3t34 4.5t52 4t62 0.5q-12 -46 -24 -99t-22 -104t-16 -92t-6 -62q0 -46 11.5 -66t38.5 -20q31 0 63 27.5t61 73t50 98.5t30 102l16 81q-6 3 -23 8t-43 10l7 31q4 1 16 3t34 4.5t51.5 4t61.5 0.5zM510 660q0 -24 -16.5 -40.5t-39.5 -16.5t-37.5 14.5 t-14.5 37.5q0 24 16.5 40t40.5 16q23 0 37 -14t14 -37zM322 660q0 -24 -16.5 -40.5t-39.5 -16.5t-37.5 14.5t-14.5 37.5q0 24 16.5 40t40.5 16q23 0 37 -14t14 -37z" />
<glyph unicode="&#xfd;" horiz-adv-x="521" d="M517 491q-39 -92 -88 -190t-102.5 -190.5t-105.5 -167t-96 -119.5q-41 -41 -80 -59t-82 -18q-10 0 -20.5 0.5t-15.5 1.5l24 77q5 -2 19 -4.5t32 -2.5q26 0 53.5 18.5t51 50.5t37.5 73.5t14 85.5q0 89 -16 187t-40 205q-5 3 -19.5 8.5t-38.5 10.5l6 31q4 1 14.5 2.5 t29.5 4t44 4t52 1.5q12 -54 22 -107.5t18 -105t12.5 -98t4.5 -82.5v-36h1q27 53 50.5 106.5t45 108t41 110t40.5 119.5zM312 577l-22 33l152 149l49 -70z" />
<glyph unicode="&#xfe;" horiz-adv-x="553" d="M516 350q0 -63 -18 -126.5t-56.5 -115t-100 -84.5t-148.5 -33q-14 0 -27 1t-23 3q-11 2 -21 4l-35 -186q20 -6 36.5 -13t31.5 -16l-6 -31h-238l5 31q18 8 38 16t41 13l163 861q-7 2 -18 5q-9 3 -21.5 6t-28.5 7l7 31q21 4 48 7q22 3 52.5 4.5t65.5 1.5l-49 -256 q-3 -16 -8.5 -38t-12.5 -47t-15 -51.5t-17 -52.5l2 -1q15 38 38.5 77t53.5 70t66 50.5t75 19.5q57 0 88.5 -42t31.5 -115zM417 334q0 52 -15.5 79.5t-46.5 27.5q-33 0 -66 -29t-61 -73.5t-48.5 -97.5t-29.5 -101l-15 -73q10 -7 24 -13q12 -4 28.5 -8t37.5 -4q51 0 87.5 29.5 t59.5 73.5t34 95t11 94z" />
<glyph unicode="&#xff;" horiz-adv-x="521" d="M517 491q-39 -92 -88 -190t-102.5 -190.5t-105.5 -167t-96 -119.5q-41 -41 -80 -59t-82 -18q-10 0 -20.5 0.5t-15.5 1.5l24 77q5 -2 19 -4.5t32 -2.5q26 0 53.5 18.5t51 50.5t37.5 73.5t14 85.5q0 89 -16 187t-40 205q-5 3 -19.5 8.5t-38.5 10.5l6 31q4 1 14.5 2.5 t29.5 4t44 4t52 1.5q12 -54 22 -107.5t18 -105t12.5 -98t4.5 -82.5v-36h1q27 53 50.5 106.5t45 108t41 110t40.5 119.5zM481 660q0 -24 -16.5 -40.5t-39.5 -16.5t-37.5 14.5t-14.5 37.5q0 24 16.5 40t40.5 16q23 0 37 -14t14 -37zM293 660q0 -24 -16.5 -40.5t-39.5 -16.5 t-37.5 14.5t-14.5 37.5q0 24 16.5 40t40.5 16q23 0 37 -14t14 -37z" />
<glyph unicode="&#x100;" horiz-adv-x="653" d="M359 0l5 30q19 9 39 17t41 14l-20 117h-254l-59 -117q18 -6 32 -14t27 -17l-5 -30h-205l5 30q14 10 31 18t30 13l344 620h66l107 -620q16 -7 28 -14.5t23 -16.5l-6 -30h-229zM360 563h-1l-167 -337h224zM283 766l11 54h262l-11 -54h-262z" />
<glyph unicode="&#x101;" horiz-adv-x="566" d="M428 59q7 -3 24 -8.5t41 -9.5l-5 -32q-18 -4 -62 -9t-99 -3q5 25 10.5 50.5t12.5 51.5t14.5 53t16.5 55l-2 1q-16 -40 -39.5 -78.5t-53.5 -70t-66 -50t-74 -18.5q-56 0 -88 42.5t-32 115.5q0 65 18.5 128t58 115.5t101.5 83.5t146 31q52 0 96 -9.5t63 -15.5zM407 432 q-34 24 -89 24q-49 0 -86 -28t-60.5 -72.5t-35 -95t-11.5 -96.5q0 -106 62 -106q32 0 64.5 27.5t61.5 73t50 98t30 101.5zM468 612h-255l10 56h255z" />
<glyph unicode="&#x102;" horiz-adv-x="653" d="M359 0l5 30q19 9 39 17t41 14l-20 117h-254l-59 -117q18 -6 32 -14t27 -17l-5 -30h-205l5 30q14 10 31 18t30 13l344 620h66l107 -620q16 -7 28 -14.5t23 -16.5l-6 -30h-229zM360 563h-1l-167 -337h224zM548 859q-5 -25 -15.5 -48t-28 -40.5t-42.5 -28.5t-57 -11 q-31 0 -52 11t-32 28.5t-13.5 40.5t2.5 48h45q-5 -29 11 -47.5t50 -18.5q31 0 56 16.5t31 49.5h45v0z" />
<glyph unicode="&#x103;" horiz-adv-x="566" d="M428 59q7 -3 24 -8.5t41 -9.5l-5 -32q-18 -4 -62 -9t-99 -3q5 25 10.5 50.5t12.5 51.5t14.5 53t16.5 55l-2 1q-16 -40 -39.5 -78.5t-53.5 -70t-66 -50t-74 -18.5q-56 0 -88 42.5t-32 115.5q0 65 18.5 128t58 115.5t101.5 83.5t146 31q52 0 96 -9.5t63 -15.5zM407 432 q-34 24 -89 24q-49 0 -86 -28t-60.5 -72.5t-35 -95t-11.5 -96.5q0 -106 62 -106q32 0 64.5 27.5t61.5 73t50 98t30 101.5zM475 721q-4 -25 -14.5 -48.5t-27.5 -42t-41.5 -29.5t-55.5 -11t-51 11.5t-30 29.5t-12.5 41.5t2.5 48.5h45q-5 -28 9.5 -48t46.5 -20q31 0 54 17 t30 51h45v0z" />
<glyph unicode="&#x104;" horiz-adv-x="653" d="M359 0l5 30q19 9 39 17t41 14l-20 117h-254l-59 -117q18 -6 32 -14t27 -17l-5 -30h-205l5 30q14 10 31 18t30 13l344 620h66l107 -620q16 -7 28 -14.5t23 -16.5l-6 -30h-229zM360 563h-1l-167 -337h224zM525 -189q-33 -31 -65.5 -46.5t-64.5 -15.5q-22 0 -38 5.5 t-25.5 15.5t-14 22.5t-4.5 27.5q0 45 35.5 92.5t99.5 87.5h62q-29 -20 -50 -41t-34.5 -41.5t-19.5 -39t-6 -34.5q0 -14 7.5 -23t25.5 -9q16 0 34 7.5t39 22.5z" />
<glyph unicode="&#x105;" horiz-adv-x="566" d="M428 59q7 -3 18 -6q8 -3 20.5 -6.5t26.5 -5.5l-5 -32q-29 -3 -56 -20.5t-48 -41.5t-34.5 -51.5t-13.5 -51.5q0 -11 6.5 -21.5t26.5 -10.5q16 0 34 7t39 23l19 -31q-33 -31 -65.5 -46.5t-65.5 -15.5q-23 0 -39 6t-25 15.5t-13 22t-4 27.5q0 46 35 92t98 86q-9 0 -18 -1 q-8 -1 -17.5 -1t-19.5 1q10 50 23 101.5t31 108.5l-2 1q-15 -38 -38.5 -77t-53.5 -70t-66 -50.5t-75 -19.5q-56 0 -88 42t-32 116q0 62 18 125.5t57 115t100 84.5t149 33q31 0 59.5 -3.5t51.5 -9.5q26 -5 48 -12zM407 432q-11 6 -24 12q-12 4 -28.5 8t-36.5 4 q-52 0 -88.5 -29.5t-60 -73.5t-34 -95t-10.5 -94q0 -52 15.5 -79t46.5 -27q34 0 66.5 28.5t60.5 73t48.5 97.5t30.5 101z" />
<glyph unicode="&#x106;" horiz-adv-x="592" d="M571 500h-38q-6 24 -9.5 51t-3.5 50q-22 11 -48.5 16.5t-60.5 5.5q-68 0 -119 -36t-83.5 -93.5t-47.5 -122.5t-15 -124q0 -86 45 -136.5t138 -50.5q44 0 84.5 10.5t78.5 32.5l12 -43q-43 -33 -98.5 -51t-112.5 -18q-131 0 -191.5 65.5t-60.5 174.5q0 85 26.5 166t78 146 t125.5 102.5t166 37.5q93 0 165 -21zM387 736l-14 36l181 103l30 -72z" />
<glyph unicode="&#x107;" horiz-adv-x="450" d="M422 345h-35q-16 46 -16 92q-14 10 -33 14.5t-40 4.5q-41 0 -73 -27t-53 -69.5t-31.5 -88.5t-10.5 -84q0 -62 30.5 -96t90.5 -34q32 0 61.5 7.5t61.5 22.5l9 -38q-38 -26 -83 -41.5t-89 -15.5q-39 0 -72 10t-57.5 31t-38.5 54.5t-14 79.5q0 49 14 106.5t47 111t90.5 88 t139.5 34.5q36 0 69.5 -4.5t60.5 -12.5zM290 577l-22 33l152 149l49 -70z" />
<glyph unicode="&#x10c;" horiz-adv-x="592" d="M571 500h-38q-6 24 -9.5 51t-3.5 50q-22 11 -48.5 16.5t-60.5 5.5q-68 0 -119 -36t-83.5 -93.5t-47.5 -122.5t-15 -124q0 -86 45 -136.5t138 -50.5q44 0 84.5 10.5t78.5 32.5l12 -43q-43 -33 -98.5 -51t-112.5 -18q-131 0 -191.5 65.5t-60.5 174.5q0 85 26.5 166t78 146 t125.5 102.5t166 37.5q93 0 165 -21zM330 878l113 -67l133 67l18 -35l-161 -113l-128 115z" />
<glyph unicode="&#x10d;" horiz-adv-x="450" d="M422 345h-35q-16 46 -16 92q-14 10 -33 14.5t-40 4.5q-41 0 -73 -27t-53 -69.5t-31.5 -88.5t-10.5 -84q0 -62 30.5 -96t90.5 -34q32 0 61.5 7.5t61.5 22.5l9 -38q-38 -26 -83 -41.5t-89 -15.5q-39 0 -72 10t-57.5 31t-38.5 54.5t-14 79.5q0 49 14 106.5t47 111t90.5 88 t139.5 34.5q36 0 69.5 -4.5t60.5 -12.5zM241 759l97 -91l120 91l23 -31l-160 -159l-110 163z" />
<glyph unicode="&#x10e;" horiz-adv-x="708" d="M691 442q0 -83 -27 -162t-83 -143t-141 -102t-197 -38q-43 0 -103 1.5t-79 1.5h-77l5 30q20 10 40.5 18t41.5 14l105 551q-19 6 -36.5 14t-33.5 18l6 30h77q17 0 36.5 0.5t56 1.5t62 1.5t49.5 0.5q151 0 224.5 -60t73.5 -177zM589 436q0 47 -13.5 83t-41.5 61t-69.5 38 t-97.5 13q-27 0 -49.5 -1.5t-45.5 -4.5l-106 -559q22 -7 52.5 -11t64.5 -4q67 0 123.5 30.5t97.5 84t63 123.5t22 147zM295 878l113 -67l133 67l18 -35l-161 -113l-128 115z" />
<glyph unicode="&#x10f;" horiz-adv-x="592" d="M428 59q7 -3 24 -8.5t41 -9.5l-5 -32q-18 -4 -62 -9t-99 -3q10 51 23 103t31 107l-2 1q-16 -40 -39.5 -78.5t-53.5 -70t-66 -50t-74 -18.5q-56 0 -88 42.5t-32 115.5q0 67 19.5 130.5t59 115t100 81.5t139.5 30q26 0 46.5 -3t28.5 -5l34 176q-7 3 -25 8t-45 10l6 31 q5 1 17.5 3t35 4.5t53 4.5t63.5 1zM407 432q-34 24 -89 24q-49 0 -86 -28t-60.5 -72.5t-35 -95t-11.5 -96.5q0 -106 62 -106q32 0 64.5 27.5t61.5 73t50 98t30 101.5zM600 582l-34 11l81 202l71 -24z" />
<glyph unicode="&#x110;" horiz-adv-x="726" d="M710 442q0 -83 -27 -162t-83 -143t-141 -102t-197 -38q-43 0 -103 1.5t-79 1.5h-78l6 30q20 10 40.5 18t41.5 14l49 263h-110l10 49h110l45 239q-18 6 -35.5 14t-33.5 18l5 30h78q17 0 36.5 0.5t56 1.5t62 1.5t49.5 0.5q151 0 224.5 -60t73.5 -177zM608 436 q0 47 -13.5 83t-41.5 61t-69.5 38t-97.5 13q-28 0 -50 -1.5t-45 -4.5l-48 -251h169l-10 -49h-169l-49 -259q22 -7 53 -11t65 -4q67 0 123.5 30.5t97.5 84t63 123.5t22 147z" />
<glyph unicode="&#x111;" horiz-adv-x="566" d="M428 59q7 -3 24 -8.5t41 -9.5l-5 -32q-18 -4 -62 -9t-99 -3q10 51 23 103t31 107l-2 1q-16 -40 -39.5 -78.5t-53.5 -70t-66 -50t-74 -18.5q-56 0 -88 42.5t-32 115.5q0 66 19 129.5t58 114.5t99 81t140 30q41 0 77 -8l16 82h-166l8 44h166l11 59q-6 3 -24 8t-46 9l6 30 q5 1 17.5 3t35 4.5t53 4t63.5 0.5l-23 -118h79l-7 -44h-80zM407 430q-9 6 -32 15t-57 9q-49 0 -86 -27.5t-60.5 -71.5t-35 -94.5t-11.5 -96.5q0 -106 62 -106q32 0 64.5 27.5t61.5 73t50 98t30 101.5z" />
<glyph unicode="&#x112;" horiz-adv-x="528" d="M508 527h-39q-6 22 -10 49.5t-4 49.5h-183l-48 -254h146q10 18 20.5 35t22.5 32h32l-34 -181h-33q-6 14 -10 32t-6 35h-147l-52 -274h185q9 23 23 50.5t29 53.5h38l-28 -155h-426l5 30q20 10 40.5 18t41.5 14l105 551q-19 6 -36.5 14t-33.5 18l7 30h423zM222 766l11 54 h262l-11 -54h-262z" />
<glyph unicode="&#x113;" horiz-adv-x="482" d="M458 401q0 -82 -79 -122.5t-246 -42.5q-1 -6 -3 -22.5t-2 -39.5q0 -56 27 -86.5t78 -30.5q42 0 79.5 12t74.5 32l11 -41q-45 -31 -95 -49.5t-103 -18.5q-86 0 -128.5 42.5t-42.5 122.5q0 62 15.5 123t49.5 113t88 83t127 31q40 0 69 -8.5t46.5 -23.5t25.5 -34t8 -40z M360 391q0 14 -4 26t-12 21.5t-21 14.5t-30 5q-32 0 -58 -16t-44.5 -42t-30.5 -56.5t-19 -61.5q107 0 163 27.5t56 81.5zM430 612h-255l10 56h255z" />
<glyph unicode="&#x116;" horiz-adv-x="528" d="M508 527h-39q-6 22 -10 49.5t-4 49.5h-183l-48 -254h146q10 18 20.5 35t22.5 32h32l-34 -181h-33q-6 14 -10 32t-6 35h-147l-52 -274h185q9 23 23 50.5t29 53.5h38l-28 -155h-426l5 30q20 10 40.5 18t41.5 14l105 551q-19 6 -36.5 14t-33.5 18l7 30h423zM414 793 q0 -13 -5 -24.5t-14 -20t-20.5 -13t-24.5 -4.5q-25 0 -41.5 16.5t-16.5 40.5q0 13 5 24t13.5 19.5t20 13t24.5 4.5q25 0 42 -16.5t17 -39.5z" />
<glyph unicode="&#x117;" horiz-adv-x="482" d="M458 401q0 -82 -79 -122.5t-246 -42.5q-1 -6 -3 -22.5t-2 -39.5q0 -56 27 -86.5t78 -30.5q42 0 79.5 12t74.5 32l11 -41q-45 -31 -95 -49.5t-103 -18.5q-86 0 -128.5 42.5t-42.5 122.5q0 62 15.5 123t49.5 113t88 83t127 31q40 0 69 -8.5t46.5 -23.5t25.5 -34t8 -40z M360 391q0 14 -4 26t-12 21.5t-21 14.5t-30 5q-32 0 -58 -16t-44.5 -42t-30.5 -56.5t-19 -61.5q107 0 163 27.5t56 81.5zM367 661q0 -29 -19 -47t-47 -18q-26 0 -43 17t-17 43q0 29 19 47t47 18q26 0 43 -17t17 -43z" />
<glyph unicode="&#x118;" horiz-adv-x="528" d="M380 -189q-33 -31 -65.5 -46.5t-64.5 -15.5q-24 0 -39.5 6t-25 15.5t-13 22t-3.5 27.5q0 26 12.5 52.5t33 50.5t46 44t50.5 33h-327l5 30q20 10 40.5 18t41.5 14l105 551q-19 6 -36.5 14.5t-33.5 17.5l7 30h423l-28 -148h-39q-5 21 -9.5 48.5t-4.5 50.5h-183l-48 -254 h146q9 18 20.5 35t22.5 32h32l-34 -181h-33q-6 14 -10 32t-6 35h-147l-52 -274h185q10 25 24 52.5t28 51.5h38l-28 -155h-7q-27 0 -53.5 -16t-47.5 -39.5t-33.5 -51t-12.5 -49.5q0 -32 32 -32q16 0 34 7t39 23z" />
<glyph unicode="&#x119;" horiz-adv-x="482" d="M398 60q-15 -9 -36.5 -22t-44.5 -28t-46 -33.5t-40.5 -39t-28.5 -44t-11 -49.5q0 -11 6 -21.5t26 -10.5q17 0 34.5 7t39.5 23l19 -31q-33 -31 -65.5 -46.5t-65.5 -15.5q-24 0 -39.5 6t-24.5 15.5t-13 22t-4 27.5q0 44 32.5 89.5t96.5 86.5q-18 -4 -39 -4 q-38 0 -68.5 10.5t-52 30.5t-33 51t-11.5 73q0 58 15 120.5t48 113t86.5 83.5t130.5 33q42 0 70.5 -9t46 -24t25 -34t7.5 -39q0 -41 -19.5 -71.5t-59.5 -51t-101.5 -31t-144.5 -11.5q-2 -8 -3 -17t-1.5 -20t-0.5 -25q0 -56 27 -86.5t78 -30.5q47 0 85.5 14t68.5 30zM360 391 q0 27 -15.5 47t-51.5 20q-33 0 -59 -17t-45 -43t-31 -57.5t-17 -58.5q107 0 163 27t56 82z" />
<glyph unicode="&#x11a;" horiz-adv-x="528" d="M508 527h-39q-6 22 -10 49.5t-4 49.5h-183l-48 -254h146q10 18 20.5 35t22.5 32h32l-34 -181h-33q-6 14 -10 32t-6 35h-147l-52 -274h185q9 23 23 50.5t29 53.5h38l-28 -155h-426l5 30q20 10 40.5 18t41.5 14l105 551q-19 6 -36.5 14t-33.5 18l7 30h423zM249 878l113 -67 l133 67l18 -35l-161 -113l-128 115z" />
<glyph unicode="&#x11b;" horiz-adv-x="482" d="M458 401q0 -82 -79 -122.5t-246 -42.5q-1 -6 -3 -22.5t-2 -39.5q0 -56 27 -86.5t78 -30.5q42 0 79.5 12t74.5 32l11 -41q-45 -31 -95 -49.5t-103 -18.5q-86 0 -128.5 42.5t-42.5 122.5q0 62 15.5 123t49.5 113t88 83t127 31q40 0 69 -8.5t46.5 -23.5t25.5 -34t8 -40z M360 391q0 14 -4 26t-12 21.5t-21 14.5t-30 5q-32 0 -58 -16t-44.5 -42t-30.5 -56.5t-19 -61.5q107 0 163 27.5t56 81.5zM213 759l97 -91l120 91l23 -31l-160 -159l-110 163z" />
<glyph unicode="&#x11e;" horiz-adv-x="692" d="M664 308q-13 -9 -31 -18t-35 -15l-42 -225q-59 -28 -121.5 -43.5t-127.5 -15.5q-127 0 -196 63.5t-69 191.5q0 76 24.5 152.5t76 141.5t132.5 104.5t189 39.5q106 0 195 -25l-32 -160h-38q-6 24 -9.5 49.5t-3.5 48.5q-27 13 -66 20.5t-77 7.5q-51 0 -93 -16t-73.5 -44 t-54.5 -64.5t-37.5 -78.5t-21.5 -84.5t-7 -83.5q0 -98 51.5 -148.5t149.5 -50.5q64 0 119 20l38 199q-19 6 -36.5 15t-31.5 19l5 32h229zM594 859q-5 -25 -15.5 -48t-28 -40.5t-42.5 -28.5t-57 -11q-31 0 -52 11t-32 28.5t-13.5 40.5t2.5 48h45q-5 -29 11 -47.5t50 -18.5 q31 0 56 16.5t31 49.5h45v0z" />
<glyph unicode="&#x11f;" horiz-adv-x="552" d="M416 -4q-10 -55 -37 -100.5t-67 -79t-91 -51.5t-109 -18q-41 0 -76.5 6t-50.5 10l28 80q4 -1 14 -4t28 -7t41 -7t46 -3q43 0 73.5 8.5t50.5 26t32.5 45t20.5 67.5q12 62 27 121t36 117l-3 1q-16 -40 -39.5 -78.5t-53.5 -70t-66 -50t-74 -18.5q-56 0 -88 42.5t-32 115.5 q0 65 18.5 128t58 115.5t101.5 83.5t146 31q52 0 96 -9.5t63 -15.5zM407 432q-34 24 -89 24q-49 0 -86 -28t-60.5 -72.5t-35 -95t-11.5 -96.5q0 -106 62 -106q32 0 64.5 27.5t61.5 73t50 98t30 101.5zM475 721q-4 -25 -14.5 -48.5t-27.5 -42t-41.5 -29.5t-55.5 -11t-51 11.5 t-30 29.5t-12.5 41.5t2.5 48.5h45q-5 -28 9.5 -48t46.5 -20q31 0 54 17t30 51h45v0z" />
<glyph unicode="&#x122;" horiz-adv-x="692" d="M664 308q-13 -9 -31 -18t-35 -15l-42 -225q-59 -28 -121.5 -43.5t-127.5 -15.5q-127 0 -196 63.5t-69 191.5q0 76 24.5 152.5t76 141.5t132.5 104.5t189 39.5q106 0 195 -25l-32 -160h-38q-6 24 -9.5 49.5t-3.5 48.5q-27 13 -66 20.5t-77 7.5q-51 0 -93 -16t-73.5 -44 t-54.5 -64.5t-37.5 -78.5t-21.5 -84.5t-7 -83.5q0 -98 51.5 -148.5t149.5 -50.5q64 0 119 20l38 199q-19 6 -36.5 15t-31.5 19l5 32h229zM344 -99q0 -21 -9.5 -43t-28.5 -42t-48 -39t-68 -35l-13 34q29 17 46 34t23.5 31.5t7.5 24t1 12.5q0 8 -1.5 13.5t-3 11.5t-1.5 11 q0 14 12 27t33 13q24 0 37 -15t13 -38z" />
<glyph unicode="&#x123;" horiz-adv-x="552" d="M416 -4q-10 -55 -37 -100.5t-67 -79t-91 -51.5t-109 -18q-41 0 -76.5 6t-50.5 10l28 80q4 -1 14 -4t28 -7t41 -7t46 -3q43 0 73.5 8.5t50.5 26t32.5 45t20.5 67.5q12 62 27 121t36 117l-3 1q-16 -40 -39.5 -78.5t-53.5 -70t-66 -50t-74 -18.5q-56 0 -88 42.5t-32 115.5 q0 65 18.5 128t58 115.5t101.5 83.5t146 31q52 0 96 -9.5t63 -15.5zM407 432q-34 24 -89 24q-49 0 -86 -28t-60.5 -72.5t-35 -95t-11.5 -96.5q0 -106 62 -106q32 0 64.5 27.5t61.5 73t50 98t30 101.5zM451 744q-29 -17 -45 -34t-23.5 -33t-7.5 -29.5t3 -23.5q6 -23 -6 -40 t-37 -17q-23 0 -36.5 15t-13.5 38q0 21 9.5 42.5t29 41.5t48.5 39t68 35l11 -34v0z" />
<glyph unicode="&#x12a;" horiz-adv-x="318" d="M352 645q-10 -5 -33 -14.5t-49 -16.5l-105 -553q23 -7 42.5 -16.5t27.5 -14.5l-5 -30h-246l5 30q10 5 32.5 14.5t49.5 16.5l105 553q-23 7 -42.5 16.5t-27.5 14.5l7 30h245zM121 766l11 54h262l-11 -54h-262z" />
<glyph unicode="&#x12b;" horiz-adv-x="284" d="M147 59q6 -3 22.5 -8.5t42.5 -9.5l-5 -32q-18 -4 -62 -9t-102 -3l84 442q-6 3 -22.5 8.5t-42.5 10.5l6 31q4 1 16.5 3t34.5 4.5t51 4t61 0.5zM326 612h-255l10 56h255z" />
<glyph unicode="&#x12e;" horiz-adv-x="318" d="M352 645q-10 -5 -33 -14.5t-49 -16.5l-105 -553q23 -7 42.5 -16.5t27.5 -14.5l-5 -30h-246l5 30q10 5 32.5 14.5t49.5 16.5l105 553q-23 7 -42.5 16.5t-27.5 14.5l7 30h245zM168 -189q-33 -31 -65.5 -46.5t-64.5 -15.5q-22 0 -38 5.5t-25.5 15.5t-14 22.5t-4.5 27.5 q0 45 35.5 92.5t99.5 87.5h62q-29 -20 -50 -41t-34.5 -41.5t-19.5 -39t-6 -34.5q0 -14 7.5 -23t25.5 -9q16 0 34 7.5t39 22.5z" />
<glyph unicode="&#x12f;" horiz-adv-x="284" d="M207 9q-26 -3 -53 -20.5t-48.5 -41.5t-35 -51t-13.5 -52q0 -11 6.5 -21.5t26.5 -10.5q16 0 34 7t39 23l19 -31q-33 -31 -65.5 -46.5t-64.5 -15.5q-23 0 -39 6t-25.5 15.5t-13.5 22.5t-4 27q0 46 35.5 92.5t96.5 85.5q-8 -1 -17 -1q-8 -1 -18.5 -1t-23.5 1l84 442 q-7 3 -17 6q-8 3 -20 6l-28 7l6 31q21 3 47 7q23 2 52 4t64 1l-84 -442q7 -3 17 -6q8 -3 20 -6.5t28 -5.5zM278 659q0 -15 -5 -27t-14.5 -20.5t-21.5 -13t-25 -4.5t-24 4.5t-19 12.5t-12.5 19t-4.5 24q0 14 5 26.5t14 20.5t20.5 13t26.5 5q13 0 24 -4.5t19 -12.5t12.5 -19 t4.5 -24z" />
<glyph unicode="&#x130;" horiz-adv-x="318" d="M352 645q-10 -5 -33 -14.5t-49 -16.5l-105 -553q23 -7 42.5 -16.5t27.5 -14.5l-5 -30h-246l5 30q10 5 32.5 14.5t49.5 16.5l105 553q-23 7 -42.5 16.5t-27.5 14.5l7 30h245zM304 793q0 -13 -5 -24.5t-14 -20t-20.5 -13t-24.5 -4.5q-25 0 -41.5 16.5t-16.5 40.5q0 13 5 24 t13.5 19.5t20 13t24.5 4.5q25 0 42 -16.5t17 -39.5z" />
<glyph unicode="&#x131;" horiz-adv-x="284" d="M147 59q6 -3 22.5 -8.5t42.5 -9.5l-5 -32q-18 -4 -62 -9t-102 -3l84 442q-6 3 -22.5 8.5t-42.5 10.5l6 31q4 1 16.5 3t34.5 4.5t51 4t61 0.5z" />
<glyph unicode="&#x136;" horiz-adv-x="655" d="M679 644q-19 -10 -37 -18.5t-33 -13.5l-299 -242l222 -307q16 -6 31 -14t28 -19l-5 -30h-248l6 30q19 11 35 19t34 13l-196 274l-52 -275q17 -5 33 -13t30 -18l-5 -30h-239l5 30q23 11 42.5 18.5t39.5 12.5l105 553q-17 5 -33 12.5t-37 18.5l7 30h235l-6 -30 q-35 -19 -72 -31l-47 -252l283 250q-26 12 -50 33l7 30h222zM319 -99q0 -21 -9.5 -43t-28.5 -42t-48 -39t-68 -35l-13 34q29 17 46 34t23.5 31.5t7.5 24t1 12.5q0 8 -1.5 13.5t-3 11.5t-1.5 11q0 14 12 27t33 13q24 0 37 -15t13 -38z" />
<glyph unicode="&#x137;" horiz-adv-x="523" d="M499 404q0 -61 -57 -101.5t-167 -57.5l102 -187q17 -4 30.5 -10t34.5 -17l-6 -31h-135l-131 249l-47 -249h-93l128 674q-6 3 -24 8t-44 10l7 31q5 1 17.5 3t35 4.5t52 4.5t61.5 1l-28 -148q-10 -51 -24.5 -102.5t-35.5 -114.5h2q30 64 76.5 100t110.5 36q60 0 97.5 -28.5 t37.5 -74.5zM399 391q0 28 -16.5 44.5t-48.5 16.5q-27 0 -52 -16t-46.5 -43t-36.5 -59.5t-24 -64.5q120 17 172 46t52 76zM246 -99q0 -21 -9.5 -43t-28.5 -42t-48 -39t-68 -35l-13 34q29 17 46 34t23.5 31.5t7.5 24t1 12.5q0 8 -1.5 13.5t-3 11.5t-1.5 11q0 14 12 27t33 13 q24 0 37 -15t13 -38z" />
<glyph unicode="&#x139;" horiz-adv-x="501" d="M421 0h-437l5 30q20 10 40.5 18t41.5 14l105 551q-17 6 -34.5 14t-35.5 18l7 30h245l-6 -30q-27 -12 -45.5 -19t-36.5 -12l-107 -563l197 9q9 22 24 52.5t30 56.5h38zM273 736l-14 36l181 103l30 -72z" />
<glyph unicode="&#x13a;" horiz-adv-x="271" d="M134 59q7 -3 24 -8.5t41 -9.5l-6 -32q-18 -4 -62 -9t-101 -3l128 677q-6 3 -24 8t-44 10l7 31q4 1 16.5 3t34.5 4.5t51.5 4.5t62.5 1zM186 781l-14 36l181 103l30 -72z" />
<glyph unicode="&#x13b;" horiz-adv-x="501" d="M421 0h-437l5 30q20 10 40.5 18t41.5 14l105 551q-17 6 -34.5 14t-35.5 18l7 30h245l-6 -30q-27 -12 -45.5 -19t-36.5 -12l-107 -563l197 9q9 22 24 52.5t30 56.5h38zM250 -99q0 -21 -9.5 -43t-28.5 -42t-48 -39t-68 -35l-13 34q29 17 46 34t23.5 31.5t7.5 24t1 12.5 q0 8 -1.5 13.5t-3 11.5t-1.5 11q0 14 12 27t33 13q24 0 37 -15t13 -38z" />
<glyph unicode="&#x13c;" horiz-adv-x="271" d="M134 59q7 -3 24 -8.5t41 -9.5l-6 -32q-18 -4 -62 -9t-101 -3l128 677q-6 3 -24 8t-44 10l7 31q4 1 16.5 3t34.5 4.5t51.5 4.5t62.5 1zM116 -99q0 -21 -9.5 -43t-28.5 -42t-48 -39t-68 -35l-13 34q29 17 46 34t23.5 31.5t7.5 24t1 12.5q0 8 -1.5 13.5t-3 11.5t-1.5 11 q0 14 12 27t33 13q24 0 37 -15t13 -38z" />
<glyph unicode="&#x13d;" horiz-adv-x="503" d="M421 0h-437l5 30q20 10 40.5 18t41.5 14l105 551q-17 6 -34.5 14t-35.5 18l7 30h245l-6 -30q-27 -12 -45.5 -19t-36.5 -12l-107 -563l197 9q9 22 24 52.5t30 56.5h38zM428 582l-34 11l81 202l71 -24z" />
<glyph unicode="&#x13e;" horiz-adv-x="298" d="M134 59q7 -3 24 -8.5t41 -9.5l-6 -32q-18 -4 -62 -9t-101 -3l128 677q-6 3 -24 8t-44 10l7 31q4 1 16.5 3t34.5 4.5t51.5 4.5t62.5 1zM305 582l-34 11l81 202l71 -24z" />
<glyph unicode="&#x141;" horiz-adv-x="521" d="M4 0l6 30q20 9 39.5 17.5t41.5 14.5l53 277l-84 -47l-14 44l109 60l41 217q-18 6 -36 14.5t-34 17.5l6 30h246l-6 -30q-18 -9 -39.5 -17.5t-42.5 -13.5l-31 -164l130 73l15 -44l-156 -86l-65 -342l196 8q10 24 24 51.5t31 54.5h37l-30 -165h-437z" />
<glyph unicode="&#x142;" horiz-adv-x="308" d="M221 413l-67 -354q7 -3 18 -6q8 -3 20 -6.5t27 -5.5l-6 -32q-22 -3 -48 -7q-23 -2 -52.5 -4.5t-63.5 -0.5l69 365l-75 -42l-20 42l106 58l49 254q-7 2 -18 6q-9 2 -21.5 5.5t-28.5 6.5l7 31q21 4 47 7q23 3 53 4.5t66 1.5l-51 -266l77 43l20 -42z" />
<glyph unicode="&#x143;" horiz-adv-x="709" d="M735 645q-23 -14 -37.5 -22t-31.5 -13l-117 -617h-57l-90 193.5t-83 177.5t-98 210q-6 -36 -18.5 -118t-19.5 -130.5t-18.5 -122.5t-21.5 -138q18 -7 35 -15.5t31 -18.5l-5 -31h-220l5 30q39 19 51 24.5t29 10.5l110 548q-18 4 -36 12.5t-36 19.5l6 30h171 q54 -116 88 -188t75.5 -161.5t79.5 -170.5l72 455q-15 5 -31 14t-32 21l6 30h200zM415 736l-14 36l181 103l30 -72z" />
<glyph unicode="&#x144;" horiz-adv-x="591" d="M513 9q-4 -1 -16.5 -3t-34.5 -4.5t-51.5 -4t-61.5 -0.5q12 50 24 102.5t22 102.5t16 90.5t6 61.5q0 46 -11.5 66.5t-39.5 20.5q-31 0 -63 -28t-60.5 -73.5t-49.5 -98.5t-30 -102l-27 -139h-93l84 439q-6 3 -22.5 8.5t-42.5 10.5l6 31q18 4 61.5 9t99.5 3 q-9 -50 -22 -98.5t-32 -111.5l2 -1q16 40 39.5 78.5t54 70t65.5 50t71 18.5q29 0 49.5 -10.5t32.5 -29t17 -42t5 -51.5t-6 -69t-14.5 -84.5t-17 -80.5t-19.5 -81q6 -3 22.5 -8.5t42.5 -9.5zM341 577l-22 33l152 149l49 -70z" />
<glyph unicode="&#x145;" horiz-adv-x="709" d="M735 645q-23 -14 -37.5 -22t-31.5 -13l-117 -617h-57l-90 193.5t-83 177.5t-98 210q-6 -36 -18.5 -118t-19.5 -130.5t-18.5 -122.5t-21.5 -138q18 -7 35 -15.5t31 -18.5l-5 -31h-220l5 30q39 19 51 24.5t29 10.5l110 548q-18 4 -36 12.5t-36 19.5l6 30h171 q54 -116 88 -188t75.5 -161.5t79.5 -170.5l72 455q-15 5 -31 14t-32 21l6 30h200zM353 -99q0 -21 -9.5 -43t-28.5 -42t-48 -39t-68 -35l-13 34q29 17 46 34t23.5 31.5t7.5 24t1 12.5q0 8 -1.5 13.5t-3 11.5t-1.5 11q0 14 12 27t33 13q24 0 37 -15t13 -38z" />
<glyph unicode="&#x146;" horiz-adv-x="591" d="M513 9q-4 -1 -16.5 -3t-34.5 -4.5t-51.5 -4t-61.5 -0.5q12 50 24 102.5t22 102.5t16 90.5t6 61.5q0 46 -11.5 66.5t-39.5 20.5q-31 0 -63 -28t-60.5 -73.5t-49.5 -98.5t-30 -102l-27 -139h-93l84 439q-6 3 -22.5 8.5t-42.5 10.5l6 31q18 4 61.5 9t99.5 3 q-9 -50 -22 -98.5t-32 -111.5l2 -1q16 40 39.5 78.5t54 70t65.5 50t71 18.5q29 0 49.5 -10.5t32.5 -29t17 -42t5 -51.5t-6 -69t-14.5 -84.5t-17 -80.5t-19.5 -81q6 -3 22.5 -8.5t42.5 -9.5zM279 -99q0 -21 -9.5 -43t-28.5 -42t-48 -39t-68 -35l-13 34q29 17 46 34t23.5 31.5 t7.5 24t1 12.5q0 8 -1.5 13.5t-3 11.5t-1.5 11q0 14 12 27t33 13q24 0 37 -15t13 -38z" />
<glyph unicode="&#x147;" horiz-adv-x="709" d="M735 645q-23 -14 -37.5 -22t-31.5 -13l-117 -617h-57l-90 193.5t-83 177.5t-98 210q-6 -36 -18.5 -118t-19.5 -130.5t-18.5 -122.5t-21.5 -138q18 -7 35 -15.5t31 -18.5l-5 -31h-220l5 30q39 19 51 24.5t29 10.5l110 548q-18 4 -36 12.5t-36 19.5l6 30h171 q54 -116 88 -188t75.5 -161.5t79.5 -170.5l72 455q-15 5 -31 14t-32 21l6 30h200zM336 878l113 -67l133 67l18 -35l-161 -113l-128 115z" />
<glyph unicode="&#x148;" horiz-adv-x="591" d="M513 9q-4 -1 -16.5 -3t-34.5 -4.5t-51.5 -4t-61.5 -0.5q12 50 24 102.5t22 102.5t16 90.5t6 61.5q0 46 -11.5 66.5t-39.5 20.5q-31 0 -63 -28t-60.5 -73.5t-49.5 -98.5t-30 -102l-27 -139h-93l84 439q-6 3 -22.5 8.5t-42.5 10.5l6 31q18 4 61.5 9t99.5 3 q-9 -50 -22 -98.5t-32 -111.5l2 -1q16 40 39.5 78.5t54 70t65.5 50t71 18.5q29 0 49.5 -10.5t32.5 -29t17 -42t5 -51.5t-6 -69t-14.5 -84.5t-17 -80.5t-19.5 -81q6 -3 22.5 -8.5t42.5 -9.5zM278 759l97 -91l120 91l23 -31l-160 -159l-110 163z" />
<glyph unicode="&#x14c;" horiz-adv-x="720" d="M702 436q0 -88 -28.5 -168.5t-82 -143t-129 -98t-165.5 -35.5q-126 0 -191 67.5t-65 180.5q0 88 28.5 168.5t82 143t129 98t165.5 35.5q126 0 191 -67.5t65 -180.5zM597 419q0 96 -48 151t-136 55q-68 0 -119 -34.5t-84 -90.5t-48.5 -120.5t-15.5 -123.5q0 -47 12 -85 t35.5 -65t58 -41.5t78.5 -14.5q68 0 119 34.5t84 90.5t48.5 120.5t15.5 123.5zM319 766l11 54h262l-11 -54h-262z" />
<glyph unicode="&#x14d;" horiz-adv-x="570" d="M530 322q0 -65 -21.5 -125t-62.5 -106.5t-98.5 -73t-127.5 -26.5q-94 0 -142 52t-48 134q0 65 21.5 124.5t62 106t98.5 73t128 26.5q94 0 142 -52t48 -133zM429 311q0 65 -30.5 103.5t-89.5 38.5q-51 0 -86.5 -29.5t-55 -73.5t-28 -88t-8.5 -74q0 -66 30 -104t90 -38 q51 0 86.5 29.5t55 73.5t28 88t8.5 74zM476 612h-255l10 56h255z" />
<glyph unicode="&#x150;" horiz-adv-x="720" d="M702 436q0 -88 -28.5 -168.5t-82 -143t-129 -98t-165.5 -35.5q-126 0 -191 67.5t-65 180.5q0 88 28.5 168.5t82 143t129 98t165.5 35.5q126 0 191 -67.5t65 -180.5zM597 419q0 96 -48 151t-136 55q-68 0 -119 -34.5t-84 -90.5t-48.5 -120.5t-15.5 -123.5q0 -47 12 -85 t35.5 -65t58 -41.5t78.5 -14.5q68 0 119 34.5t84 90.5t48.5 120.5t15.5 123.5zM534 729l-20 33l172 122l38 -66zM356 732l-23 30l163 134l43 -62z" />
<glyph unicode="&#x151;" horiz-adv-x="570" d="M530 322q0 -65 -21.5 -125t-62.5 -106.5t-98.5 -73t-127.5 -26.5q-94 0 -142 52t-48 134q0 65 21.5 124.5t62 106t98.5 73t128 26.5q94 0 142 -52t48 -133zM429 311q0 65 -30.5 103.5t-89.5 38.5q-51 0 -86.5 -29.5t-55 -73.5t-28 -88t-8.5 -74q0 -66 30 -104t90 -38 q51 0 86.5 29.5t55 73.5t28 88t8.5 74zM423 574l-26 29l147 156l53 -63zM261 574l-29 26l131 169l59 -56z" />
<glyph unicode="&#x152;" horiz-adv-x="865" d="M844 527h-38q-5 21 -9.5 48.5t-3.5 50.5h-184l-49 -254h148q8 18 19 35t23 32h32l-34 -181h-33q-6 14 -10.5 32t-5.5 35h-147l-52 -274h185q9 25 23 52.5t29 51.5h38l-28 -155h-353q-25 -5 -50 -7t-47 -2q-66 0 -114 18.5t-79.5 51.5t-47 78.5t-15.5 99.5 q0 88 28.5 168.5t81.5 142t127.5 98t167.5 36.5q22 0 45 -2t47 -7h335zM511 607q-27 11 -51.5 14.5t-46.5 3.5q-71 0 -122 -36.5t-83 -92t-47 -120t-15 -120.5q0 -95 47 -150.5t137 -55.5q19 0 39 3t39 10z" />
<glyph unicode="&#x153;" horiz-adv-x="866" d="M842 401q0 -41 -19.5 -71.5t-59.5 -51t-101.5 -31t-144.5 -11.5q-2 -8 -3 -17t-1.5 -19.5t-0.5 -25.5q0 -56 27 -86.5t78 -30.5q47 0 85.5 14.5t69.5 30.5l11 -41q-42 -29 -92.5 -49t-106.5 -20q-62 0 -100 23t-51 75q-39 -46 -90 -72.5t-123 -26.5q-49 0 -84.5 14.5 t-59 40t-35 59.5t-11.5 72q0 64 21.5 124t61.5 106t97.5 73t129.5 27q63 0 103.5 -24.5t58.5 -67.5q35 46 83.5 69t107.5 23q42 0 70.5 -9t46 -24t25 -34t7.5 -39zM429 311q0 63 -29 102.5t-91 39.5q-37 0 -64.5 -15t-47 -39.5t-32.5 -54t-20.5 -59.5t-10.5 -55.5t-3 -41.5 q0 -63 29 -102.5t91 -39.5q37 0 64.5 14.5t47 39t32.5 54t20.5 59.5t10.5 55.5t3 42.5zM744 391q0 27 -15.5 47t-51.5 20q-33 0 -59 -17t-45 -43t-30.5 -57.5t-17.5 -58.5q107 0 163 27t56 82z" />
<glyph unicode="&#x154;" horiz-adv-x="603" d="M575 542q0 -45 -15 -80t-41.5 -61t-60.5 -43t-74 -26q28 -5 44.5 -29t24.5 -54.5t16 -79t15 -75t22 -42.5t41 -10l-1 -37q-24 -8 -44.5 -12t-41.5 -4q-26 0 -42 22t-24 52t-18 84.5t-19.5 87.5t-28.5 55t-49 22h-66l-48 -251q34 -12 63 -31l-5 -30h-239l5 30 q10 5 32.5 14.5t49.5 16.5l105 553q-23 7 -42.5 16.5t-27.5 14.5l7 30h68q11 0 79.5 2t117.5 2q96 0 146.5 -36t50.5 -101zM474 533q0 48 -33 73t-93 25q-25 0 -46 -2.5t-30 -4.5l-50 -264h37.5h36.5q44 0 78 14t56 39t33 55.5t11 64.5zM329 736l-14 36l181 103l30 -72z" />
<glyph unicode="&#x155;" horiz-adv-x="386" d="M393 404q-12 7 -24.5 11.5t-23.5 4.5q-19 0 -38.5 -14.5t-38 -39t-35 -56t-30 -64.5t-23 -65t-14.5 -57l-24 -124h-93l84 439q-15 6 -32 10.5t-37 8.5l5 31q10 1 30.5 4t42.5 5t46 3t46 0q-10 -54 -23.5 -105.5t-29.5 -101.5l2 -1q44 102 93 158.5t103 56.5q22 0 41 -9z M255 577l-22 33l152 149l49 -70z" />
<glyph unicode="&#x156;" horiz-adv-x="603" d="M575 542q0 -45 -15 -80t-41.5 -61t-60.5 -43t-74 -26q28 -5 44.5 -29t24.5 -54.5t16 -79t15 -75t22 -42.5t41 -10l-1 -37q-24 -8 -44.5 -12t-41.5 -4q-26 0 -42 22t-24 52t-18 84.5t-19.5 87.5t-28.5 55t-49 22h-66l-48 -251q34 -12 63 -31l-5 -30h-239l5 30 q10 5 32.5 14.5t49.5 16.5l105 553q-23 7 -42.5 16.5t-27.5 14.5l7 30h68q11 0 79.5 2t117.5 2q96 0 146.5 -36t50.5 -101zM474 533q0 48 -33 73t-93 25q-25 0 -46 -2.5t-30 -4.5l-50 -264h37.5h36.5q44 0 78 14t56 39t33 55.5t11 64.5zM321 -99q0 -21 -9.5 -43t-28.5 -42 t-48 -39t-68 -35l-13 34q29 17 46 34t23.5 31.5t7.5 24t1 12.5q0 8 -1.5 13.5t-3 11.5t-1.5 11q0 14 12 27t33 13q24 0 37 -15t13 -38z" />
<glyph unicode="&#x157;" horiz-adv-x="386" d="M393 404q-12 7 -24.5 11.5t-23.5 4.5q-19 0 -38.5 -14.5t-38 -39t-35 -56t-30 -64.5t-23 -65t-14.5 -57l-24 -124h-93l84 439q-15 6 -32 10.5t-37 8.5l5 31q10 1 30.5 4t42.5 5t46 3t46 0q-10 -54 -23.5 -105.5t-29.5 -101.5l2 -1q44 102 93 158.5t103 56.5q22 0 41 -9z M136 -99q0 -21 -9.5 -43t-28.5 -42t-48 -39t-68 -35l-13 34q29 17 46 34t23.5 31.5t7.5 24t1 12.5q0 8 -1.5 13.5t-3 11.5t-1.5 11q0 14 12 27t33 13q24 0 37 -15t13 -38z" />
<glyph unicode="&#x158;" horiz-adv-x="603" d="M575 542q0 -45 -15 -80t-41.5 -61t-60.5 -43t-74 -26q28 -5 44.5 -29t24.5 -54.5t16 -79t15 -75t22 -42.5t41 -10l-1 -37q-24 -8 -44.5 -12t-41.5 -4q-26 0 -42 22t-24 52t-18 84.5t-19.5 87.5t-28.5 55t-49 22h-66l-48 -251q34 -12 63 -31l-5 -30h-239l5 30 q10 5 32.5 14.5t49.5 16.5l105 553q-23 7 -42.5 16.5t-27.5 14.5l7 30h68q11 0 79.5 2t117.5 2q96 0 146.5 -36t50.5 -101zM474 533q0 48 -33 73t-93 25q-25 0 -46 -2.5t-30 -4.5l-50 -264h37.5h36.5q44 0 78 14t56 39t33 55.5t11 64.5zM265 878l113 -67l133 67l18 -35 l-161 -113l-128 115z" />
<glyph unicode="&#x159;" horiz-adv-x="386" d="M393 404q-12 7 -24.5 11.5t-23.5 4.5q-19 0 -38.5 -14.5t-38 -39t-35 -56t-30 -64.5t-23 -65t-14.5 -57l-24 -124h-93l84 439q-15 6 -32 10.5t-37 8.5l5 31q10 1 30.5 4t42.5 5t46 3t46 0q-10 -54 -23.5 -105.5t-29.5 -101.5l2 -1q44 102 93 158.5t103 56.5q22 0 41 -9z M190 759l97 -91l120 91l23 -31l-160 -159l-110 163z" />
<glyph unicode="&#x15a;" horiz-adv-x="490" d="M443 511h-37q-8 23 -12 49.5t-4 50.5q-16 5 -35.5 8t-39.5 3q-62 0 -92 -35t-30 -84q0 -30 15.5 -53t36 -38.5t60 -41.5t63.5 -47t39.5 -50.5t15.5 -67.5q0 -48 -23 -88t-62 -68t-87 -43t-96 -15q-81 0 -146 20l33 175h39q6 -28 9.5 -56t4.5 -51q19 -9 42.5 -15t49.5 -6 q136 0 136 124q0 30 -15.5 53.5t-36.5 40t-60 42.5t-63 47t-39.5 49.5t-15.5 65.5q0 46 20 84t55.5 65t81 41t95.5 14q29 0 64 -4t64 -11zM302 736l-14 36l181 103l30 -72z" />
<glyph unicode="&#x15b;" horiz-adv-x="420" d="M349 360h-36q-3 10 -7.5 33.5t-4.5 50.5q-6 3 -22 8t-35 5q-36 0 -56.5 -21.5t-20.5 -54.5q0 -21 12 -38t27 -28.5t45.5 -32t49 -37t30.5 -38.5t12 -51q0 -36 -17 -66t-46.5 -52t-67.5 -33.5t-80 -11.5q-40 0 -73.5 5.5t-48.5 9.5l27 143h36q3 -11 7.5 -34.5t5.5 -49.5 q9 -4 30 -11t44 -7q40 0 65.5 22t25.5 58q0 22 -12 39.5t-27 29t-45.5 32t-48.5 36.5t-30 38t-12 50q0 35 15 63.5t42 48.5t61.5 30.5t73.5 10.5q37 0 65.5 -5t40.5 -8zM240 577l-22 33l152 149l49 -70z" />
<glyph unicode="&#x15e;" horiz-adv-x="490" d="M443 511h-37q-8 23 -12 49.5t-4 50.5q-16 5 -35.5 8t-39.5 3q-62 0 -92 -35t-30 -84q0 -30 15.5 -53t36 -38.5t60 -41.5t63.5 -47t39.5 -50.5t15.5 -67.5q0 -48 -23 -88t-62 -68t-87 -43t-96 -15q-81 0 -146 20l33 175h39q6 -28 9.5 -56t4.5 -51q19 -9 42.5 -15t49.5 -6 q136 0 136 124q0 30 -15.5 53.5t-36.5 40t-60 42.5t-63 47t-39.5 49.5t-15.5 65.5q0 46 20 84t55.5 65t81 41t95.5 14q29 0 64 -4t64 -11zM160 -57q30 -18 37.5 -41.5t-5.5 -49.5t-45.5 -53t-80.5 -52l-30 26q66 41 74.5 72t-41.5 58l89 97h54z" />
<glyph unicode="&#x15f;" horiz-adv-x="420" d="M349 360h-36q-3 10 -7.5 33.5t-4.5 50.5q-6 3 -22 8t-35 5q-36 0 -56.5 -21.5t-20.5 -54.5q0 -21 12 -38t27 -28.5t45.5 -32t49 -37t30.5 -38.5t12 -51q0 -36 -17 -66t-46.5 -52t-67.5 -33.5t-80 -11.5q-40 0 -73.5 5.5t-48.5 9.5l27 143h36q3 -11 7.5 -34.5t5.5 -49.5 q9 -4 30 -11t44 -7q40 0 65.5 22t25.5 58q0 22 -12 39.5t-27 29t-45.5 32t-48.5 36.5t-30 38t-12 50q0 35 15 63.5t42 48.5t61.5 30.5t73.5 10.5q37 0 65.5 -5t40.5 -8zM125 -57q30 -18 37.5 -41.5t-5.5 -49.5t-45.5 -53t-80.5 -52l-30 26q66 41 74.5 72t-41.5 58l89 97h54z " />
<glyph unicode="&#x160;" horiz-adv-x="490" d="M443 511h-37q-8 23 -12 49.5t-4 50.5q-16 5 -35.5 8t-39.5 3q-62 0 -92 -35t-30 -84q0 -30 15.5 -53t36 -38.5t60 -41.5t63.5 -47t39.5 -50.5t15.5 -67.5q0 -48 -23 -88t-62 -68t-87 -43t-96 -15q-81 0 -146 20l33 175h39q6 -28 9.5 -56t4.5 -51q19 -9 42.5 -15t49.5 -6 q136 0 136 124q0 30 -15.5 53.5t-36.5 40t-60 42.5t-63 47t-39.5 49.5t-15.5 65.5q0 46 20 84t55.5 65t81 41t95.5 14q29 0 64 -4t64 -11zM229 878l113 -67l133 67l18 -35l-161 -113l-128 115z" />
<glyph unicode="&#x161;" horiz-adv-x="420" d="M349 360h-36q-3 10 -7.5 33.5t-4.5 50.5q-6 3 -22 8t-35 5q-36 0 -56.5 -21.5t-20.5 -54.5q0 -21 12 -38t27 -28.5t45.5 -32t49 -37t30.5 -38.5t12 -51q0 -36 -17 -66t-46.5 -52t-67.5 -33.5t-80 -11.5q-40 0 -73.5 5.5t-48.5 9.5l27 143h36q3 -11 7.5 -34.5t5.5 -49.5 q9 -4 30 -11t44 -7q40 0 65.5 22t25.5 58q0 22 -12 39.5t-27 29t-45.5 32t-48.5 36.5t-30 38t-12 50q0 35 15 63.5t42 48.5t61.5 30.5t73.5 10.5q37 0 65.5 -5t40.5 -8zM180 759l97 -91l120 91l23 -31l-160 -159l-110 163z" />
<glyph unicode="&#x162;" horiz-adv-x="555" d="M583 513h-35q-4 14 -10.5 45.5t-7.5 67.5h-140l-106 -564q42 -12 77 -32l-5 -30h-261l5 30q11 5 35.5 15t53.5 17l108 564h-140q-14 -36 -32 -67.5t-27 -45.5h-35l30 162h521zM212 -57q30 -18 37.5 -41.5t-5.5 -49.5t-45.5 -53t-80.5 -52l-30 26q66 41 74.5 72t-41.5 58 l89 97h54z" />
<glyph unicode="&#x163;" horiz-adv-x="362" d="M358 450h-139l-57 -300q-9 -50 -3.5 -70.5t33.5 -20.5q20 0 44.5 7.5t42.5 18.5l12 -38q-33 -24 -68.5 -39.5t-70.5 -15.5q-59 0 -78.5 39t-5.5 113l58 306h-80l10 48h80l68 142h51l-26 -142h138zM128 -57q30 -18 37.5 -41.5t-5.5 -49.5t-45.5 -53t-80.5 -52l-30 26 q66 41 74.5 72t-41.5 58l89 97h54z" />
<glyph unicode="&#x164;" horiz-adv-x="555" d="M583 513h-35q-4 14 -10.5 45.5t-7.5 67.5h-140l-106 -564q42 -12 77 -32l-5 -30h-261l5 30q11 5 35.5 15t53.5 17l108 564h-140q-14 -36 -32 -67.5t-27 -45.5h-35l30 162h521zM253 878l113 -67l133 67l18 -35l-161 -113l-128 115z" />
<glyph unicode="&#x165;" horiz-adv-x="371" d="M358 450h-139l-57 -300q-9 -50 -3.5 -70.5t33.5 -20.5q20 0 44.5 7.5t42.5 18.5l12 -38q-33 -24 -68.5 -39.5t-70.5 -15.5q-59 0 -78.5 39t-5.5 113l58 306h-80l10 48h80l68 142h51l-26 -142h138zM334 582l-34 11l81 202l71 -24z" />
<glyph unicode="&#x16a;" horiz-adv-x="711" d="M746 645q-32 -22 -70 -34l-69 -352q-24 -128 -104.5 -198.5t-205.5 -70.5q-68 0 -113.5 19.5t-69.5 54.5t-29.5 80t4.5 97l71 373q-14 5 -29 13.5t-25 17.5l6 30h228l-6 -30q-20 -10 -39.5 -18t-40.5 -13l-70 -369q-8 -40 -5.5 -74.5t17.5 -61t47 -42t81 -15.5 q90 0 144.5 54.5t72.5 154.5l61 350q-17 5 -33 14t-32 20l6 30h209zM316 766l11 54h262l-11 -54h-262z" />
<glyph unicode="&#x16b;" horiz-adv-x="591" d="M453 59q6 -3 22.5 -8.5t42.5 -9.5l-5 -32q-4 -1 -16.5 -3t-34.5 -4.5t-50.5 -4t-59.5 -0.5q9 50 21.5 99t32.5 111l-2 1q-16 -40 -39.5 -78.5t-54 -70t-65.5 -50t-71 -18.5q-29 0 -49.5 10.5t-32.5 29t-17 42t-5 51.5t5.5 69t14.5 85t18.5 85t18.5 76q-6 3 -23 8.5 t-42 9.5l6 32q4 1 16 3t34 4.5t52 4t62 0.5q-12 -46 -24 -99t-22 -104t-16 -92t-6 -62q0 -46 11.5 -66t38.5 -20q31 0 63 27.5t61 73t50 98.5t30 102l16 81q-6 3 -23 8t-43 10l7 31q4 1 16 3t34 4.5t51.5 4t61.5 0.5zM485 612h-255l10 56h255z" />
<glyph unicode="&#x16e;" horiz-adv-x="711" d="M746 645q-32 -22 -70 -34l-69 -352q-24 -128 -104.5 -198.5t-205.5 -70.5q-68 0 -113.5 19.5t-69.5 54.5t-29.5 80t4.5 97l71 373q-14 5 -29 13.5t-25 17.5l6 30h228l-6 -30q-20 -10 -39.5 -18t-40.5 -13l-70 -369q-8 -40 -5.5 -74.5t17.5 -61t47 -42t81 -15.5 q90 0 144.5 54.5t72.5 154.5l61 350q-17 5 -33 14t-32 20l6 30h209zM568 828q0 -29 -10.5 -51.5t-28 -38t-41 -24t-51.5 -8.5q-45 0 -68.5 22.5t-23.5 55.5q0 27 10 49t27 38t41 25t53 9q22 0 39.5 -6t28.5 -16.5t17.5 -24.5t6.5 -30zM514 818q0 21 -13 35.5t-36 14.5 q-28 0 -47 -20t-19 -54q0 -22 13 -36.5t36 -14.5q14 0 26 5.5t21 15.5t14 23.5t5 30.5z" />
<glyph unicode="&#x16f;" horiz-adv-x="591" d="M453 59q6 -3 22.5 -8.5t42.5 -9.5l-5 -32q-4 -1 -16.5 -3t-34.5 -4.5t-50.5 -4t-59.5 -0.5q9 50 21.5 99t32.5 111l-2 1q-16 -40 -39.5 -78.5t-54 -70t-65.5 -50t-71 -18.5q-29 0 -49.5 10.5t-32.5 29t-17 42t-5 51.5t5.5 69t14.5 85t18.5 85t18.5 76q-6 3 -23 8.5 t-42 9.5l6 32q4 1 16 3t34 4.5t52 4t62 0.5q-12 -46 -24 -99t-22 -104t-16 -92t-6 -62q0 -46 11.5 -66t38.5 -20q31 0 63 27.5t61 73t50 98.5t30 102l16 81q-6 3 -23 8t-43 10l7 31q4 1 16 3t34 4.5t51.5 4t61.5 0.5zM483 685q0 -29 -10.5 -52.5t-29 -40t-43 -25.5t-53.5 -9 q-47 0 -72 23.5t-25 58.5q0 28 10 51t28 39.5t43 26t55 9.5q23 0 41.5 -6.5t30.5 -17.5t18.5 -25.5t6.5 -31.5zM425 675q0 22 -13 37t-37 15q-29 0 -48 -20.5t-19 -56.5q0 -22 13 -37t37 -15q14 0 26.5 5.5t22 15.5t14 24.5t4.5 31.5z" />
<glyph unicode="&#x170;" horiz-adv-x="711" d="M746 645q-32 -22 -70 -34l-69 -352q-24 -128 -104.5 -198.5t-205.5 -70.5q-68 0 -113.5 19.5t-69.5 54.5t-29.5 80t4.5 97l71 373q-14 5 -29 13.5t-25 17.5l6 30h228l-6 -30q-20 -10 -39.5 -18t-40.5 -13l-70 -369q-8 -40 -5.5 -74.5t17.5 -61t47 -42t81 -15.5 q90 0 144.5 54.5t72.5 154.5l61 350q-17 5 -33 14t-32 20l6 30h209zM525 729l-20 33l172 122l38 -66zM347 732l-23 30l163 134l43 -62z" />
<glyph unicode="&#x171;" horiz-adv-x="591" d="M453 59q6 -3 22.5 -8.5t42.5 -9.5l-5 -32q-4 -1 -16.5 -3t-34.5 -4.5t-50.5 -4t-59.5 -0.5q9 50 21.5 99t32.5 111l-2 1q-16 -40 -39.5 -78.5t-54 -70t-65.5 -50t-71 -18.5q-29 0 -49.5 10.5t-32.5 29t-17 42t-5 51.5t5.5 69t14.5 85t18.5 85t18.5 76q-6 3 -23 8.5 t-42 9.5l6 32q4 1 16 3t34 4.5t52 4t62 0.5q-12 -46 -24 -99t-22 -104t-16 -92t-6 -62q0 -46 11.5 -66t38.5 -20q31 0 63 27.5t61 73t50 98.5t30 102l16 81q-6 3 -23 8t-43 10l7 31q4 1 16 3t34 4.5t51.5 4t61.5 0.5zM427 574l-26 29l147 156l53 -63zM265 574l-29 26 l131 169l59 -56z" />
<glyph unicode="&#x172;" horiz-adv-x="711" d="M746 645q-17 -11 -34.5 -19.5t-35.5 -14.5l-69 -352q-11 -57 -33 -103.5t-59 -83.5q-16 -17 -35.5 -29.5t-39.5 -25.5t-41 -27.5t-40 -33.5q-24 -24 -40.5 -54t-16.5 -58q0 -11 6.5 -21.5t26.5 -10.5q17 0 34.5 7t38.5 23l20 -31q-34 -31 -66 -46.5t-64 -15.5 q-24 0 -40 6t-25.5 15.5t-13.5 22.5t-4 27q0 46 35.5 93t98.5 84q-14 -4 -27.5 -5.5t-26.5 -1.5q-69 0 -113.5 20.5t-68.5 55t-28.5 79.5t4.5 95l71 374q-14 5 -28.5 13t-25.5 18l6 30h227l-5 -30q-18 -10 -38.5 -18t-41.5 -13l-70 -368q-7 -39 -5.5 -74t17 -61.5 t46.5 -42.5t82 -16q92 0 146 55t71 154l61 350q-16 6 -33.5 15t-31.5 19l5 30h209z" />
<glyph unicode="&#x173;" horiz-adv-x="591" d="M513 9q-30 -4 -57.5 -21.5t-49 -41.5t-34.5 -51t-13 -51q0 -11 6.5 -21.5t26.5 -10.5q16 0 34 7t39 23l19 -31q-33 -31 -65.5 -46.5t-64.5 -15.5q-23 0 -39 6t-25.5 15.5t-13.5 22.5t-4 27q0 46 35.5 92.5t97.5 85.5q-7 0 -16 -1q-7 0 -16.5 -0.5t-20.5 0.5 q9 53 22.5 102t31.5 108l-2 1q-15 -38 -38.5 -77t-53.5 -70t-65 -50.5t-73 -19.5q-31 0 -50.5 10.5t-31.5 29.5t-17 43t-5 50q0 30 6 72t15 86.5t18.5 86t17.5 70.5q-7 3 -17 6q-8 3 -20 6t-28 6l6 32q22 3 47 7q22 2 52 4t65 1q-11 -44 -23 -97t-22 -103.5t-16.5 -92.5 t-6.5 -64q0 -46 11 -66t39 -20q32 0 64.5 29t60 73.5t48.5 97.5t31 101l16 81q-7 2 -18 5q-8 3 -20 6l-28 7l7 31q21 3 47 7q22 2 51.5 4t64.5 1l-85 -442q7 -3 17 -6q8 -3 20 -6.5t28 -5.5z" />
<glyph unicode="&#x178;" horiz-adv-x="576" d="M637 645q-24 -20 -54 -32l-244 -330l-43 -222q19 -5 36 -12.5t34 -18.5l-5 -30h-246l6 30q21 11 41 18.5t40 12.5l43 222l-122 332q-11 5 -23.5 13t-20.5 17l6 30h219l-6 -30q-14 -9 -33.5 -17.5t-37.5 -13.5q21 -60 37 -104.5t31.5 -88t27.5 -76.5h1q39 60 68 104.5 t58.5 89t48.5 74.5q-15 4 -31 13t-28 19l6 30h197zM534 792q0 -12 -4 -22t-12 -17.5t-18 -12t-21 -4.5q-23 0 -37 14t-14 37q0 11 4.5 21t12 18t17.5 12t21 4q23 0 37 -14t14 -36zM340 792q0 -12 -4 -22t-12 -17.5t-18 -12t-21 -4.5q-23 0 -37 14t-14 37q0 11 4.5 21t12 18 t17.5 12t22 4q22 0 36 -14t14 -36z" />
<glyph unicode="&#x179;" horiz-adv-x="538" d="M564 629l-455 -578l278 9q11 25 26.5 53.5t32.5 53.5h37l-30 -167h-466l8 46l455 578l-258 -7q-11 -26 -27.5 -54.5t-33.5 -50.5h-37l37 163h442zM333 736l-14 36l181 103l30 -72z" />
<glyph unicode="&#x17a;" horiz-adv-x="461" d="M438 450l-327 -402h191q11 24 23.5 47t26.5 44h34l-26 -139h-366l9 49l329 403h-177q-11 -23 -24 -46t-27 -41h-35l30 133h348zM269 577l-22 33l152 149l49 -70z" />
<glyph unicode="&#x17b;" horiz-adv-x="538" d="M564 629l-455 -578l278 9q11 25 26.5 53.5t32.5 53.5h37l-30 -167h-466l8 46l455 578l-258 -7q-11 -26 -27.5 -54.5t-33.5 -50.5h-37l37 163h442zM416 793q0 -13 -5 -24.5t-14 -20t-20.5 -13t-24.5 -4.5q-25 0 -41.5 16.5t-16.5 40.5q0 13 5 24t13.5 19.5t20 13t24.5 4.5 q25 0 42 -16.5t17 -39.5z" />
<glyph unicode="&#x17c;" horiz-adv-x="461" d="M438 450l-327 -402h191q11 24 23.5 47t26.5 44h34l-26 -139h-366l9 49l329 403h-177q-11 -23 -24 -46t-27 -41h-35l30 133h348zM353 659q0 -29 -19 -47t-47 -18q-26 0 -43 17t-17 43q0 29 19 47t47 18q26 0 43 -17t17 -43z" />
<glyph unicode="&#x17d;" horiz-adv-x="538" d="M564 629l-455 -578l278 9q11 25 26.5 53.5t32.5 53.5h37l-30 -167h-466l8 46l455 578l-258 -7q-11 -26 -27.5 -54.5t-33.5 -50.5h-37l37 163h442zM252 878l113 -67l133 67l18 -35l-161 -113l-128 115z" />
<glyph unicode="&#x17e;" horiz-adv-x="461" d="M438 450l-327 -402h191q11 24 23.5 47t26.5 44h34l-26 -139h-366l9 49l329 403h-177q-11 -23 -24 -46t-27 -41h-35l30 133h348zM207 759l97 -91l120 91l23 -31l-160 -159l-110 163z" />
<glyph unicode="&#x192;" d="M516 586q-7 20 -11 44.5t-4 46.5q-11 12 -43 12q-13 0 -24 -5t-22 -19t-22 -37.5t-22 -59.5l-50 -170h149l-10 -49h-152l-95 -315q-14 -48 -34 -83.5t-46 -59t-58 -35t-69 -11.5q-30 0 -55 3t-45 9l28 137h34q7 -20 10.5 -44.5t3.5 -46.5q14 -12 45 -12q12 0 23 5t22 19 t22 37.5t22 59.5l100 337h-124l10 49h128l44 148q14 48 34 83.5t46.5 59t58 35t69.5 11.5q29 0 54.5 -3t44.5 -9l-27 -137h-35z" />
<glyph unicode="&#x218;" horiz-adv-x="490" d="M443 511h-37q-8 23 -12 49.5t-4 50.5q-16 5 -35.5 8t-39.5 3q-62 0 -92 -35t-30 -84q0 -30 15.5 -53t36 -38.5t60 -41.5t63.5 -47t39.5 -50.5t15.5 -67.5q0 -48 -23 -88t-62 -68t-87 -43t-96 -15q-81 0 -146 20l33 175h39q6 -28 9.5 -56t4.5 -51q19 -9 42.5 -15t49.5 -6 q136 0 136 124q0 30 -15.5 53.5t-36.5 40t-60 42.5t-63 47t-39.5 49.5t-15.5 65.5q0 46 20 84t55.5 65t81 41t95.5 14q29 0 64 -4t64 -11zM235 -99q0 -21 -9.5 -43t-28.5 -42t-48 -39t-68 -35l-13 34q29 17 46 34t23.5 31.5t7.5 24t1 12.5q0 8 -1.5 13.5t-3 11.5t-1.5 11 q0 14 12 27t33 13q24 0 37 -15t13 -38z" />
<glyph unicode="&#x219;" horiz-adv-x="420" d="M349 360h-36q-3 10 -7.5 33.5t-4.5 50.5q-6 3 -22 8t-35 5q-36 0 -56.5 -21.5t-20.5 -54.5q0 -21 12 -38t27 -28.5t45.5 -32t49 -37t30.5 -38.5t12 -51q0 -36 -17 -66t-46.5 -52t-67.5 -33.5t-80 -11.5q-40 0 -73.5 5.5t-48.5 9.5l27 143h36q3 -11 7.5 -34.5t5.5 -49.5 q9 -4 30 -11t44 -7q40 0 65.5 22t25.5 58q0 22 -12 39.5t-27 29t-45.5 32t-48.5 36.5t-30 38t-12 50q0 35 15 63.5t42 48.5t61.5 30.5t73.5 10.5q37 0 65.5 -5t40.5 -8zM194 -99q0 -21 -9.5 -43t-28.5 -42t-48 -39t-68 -35l-13 34q29 17 46 34t23.5 31.5t7.5 24t1 12.5 q0 8 -1.5 13.5t-3 11.5t-1.5 11q0 14 12 27t33 13q24 0 37 -15t13 -38z" />
<glyph unicode="&#x21a;" horiz-adv-x="555" d="M583 513h-35q-4 14 -10.5 45.5t-7.5 67.5h-140l-106 -564q42 -12 77 -32l-5 -30h-261l5 30q11 5 35.5 15t53.5 17l108 564h-140q-14 -36 -32 -67.5t-27 -45.5h-35l30 162h521zM261 -99q0 -21 -9.5 -43t-28.5 -42t-48 -39t-68 -35l-13 34q29 17 46 34t23.5 31.5t7.5 24 t1 12.5q0 8 -1.5 13.5t-3 11.5t-1.5 11q0 14 12 27t33 13q24 0 37 -15t13 -38z" />
<glyph unicode="&#x21b;" horiz-adv-x="362" d="M358 450h-139l-57 -300q-9 -50 -3.5 -70.5t33.5 -20.5q20 0 44.5 7.5t42.5 18.5l12 -38q-33 -24 -68.5 -39.5t-70.5 -15.5q-59 0 -78.5 39t-5.5 113l58 306h-80l10 48h80l68 142h51l-26 -142h138zM179 -99q0 -21 -9.5 -43t-28.5 -42t-48 -39t-68 -35l-13 34q29 17 46 34 t23.5 31.5t7.5 24t1 12.5q0 8 -1.5 13.5t-3 11.5t-1.5 11q0 14 12 27t33 13q24 0 37 -15t13 -38z" />
<glyph unicode="&#x2c6;" horiz-adv-x="409" d="M373 575l-97 91l-121 -91l-23 31l160 159l111 -163z" />
<glyph unicode="&#x2c7;" horiz-adv-x="409" d="M183 759l97 -91l120 91l23 -31l-160 -159l-110 163z" />
<glyph unicode="&#x2d8;" horiz-adv-x="380" d="M387 721q-4 -25 -14.5 -48.5t-27.5 -42t-41.5 -29.5t-55.5 -11t-51 11.5t-30 29.5t-12.5 41.5t2.5 48.5h45q-5 -28 9.5 -48t46.5 -20q31 0 54 17t30 51h45v0z" />
<glyph unicode="&#x2d9;" horiz-adv-x="260" d="M265 659q0 -29 -19 -47t-47 -18q-26 0 -43 17t-17 43q0 29 19 47t47 18q26 0 43 -17t17 -43z" />
<glyph unicode="&#x2da;" horiz-adv-x="366" d="M373 685q0 -29 -10.5 -52.5t-29 -40t-43 -25.5t-53.5 -9q-47 0 -72 23.5t-25 58.5q0 28 10 51t28 39.5t43 26t55 9.5q23 0 41.5 -6.5t30.5 -17.5t18.5 -25.5t6.5 -31.5zM315 675q0 22 -13 37t-37 15q-29 0 -48 -20.5t-19 -56.5q0 -22 13 -37t37 -15q14 0 26.5 5.5 t22 15.5t14 24.5t4.5 31.5z" />
<glyph unicode="&#x2db;" horiz-adv-x="360" d="M200 -189q-33 -31 -65.5 -46.5t-64.5 -15.5q-22 0 -38 5.5t-25.5 15.5t-14 22.5t-4.5 27.5q0 45 35.5 92.5t99.5 87.5h62q-29 -20 -50 -41t-34.5 -41.5t-19.5 -39t-6 -34.5q0 -14 7.5 -23t25.5 -9q16 0 34 7.5t39 22.5z" />
<glyph unicode="&#x2dc;" horiz-adv-x="473" d="M467 662q-26 -30 -54.5 -46t-57.5 -16q-20 0 -34.5 5.5t-32 16t-28.5 15.5t-26 5q-18 0 -35 -7.5t-32 -21.5l-19 29q25 31 54 46.5t59 15.5q20 0 34.5 -5.5t31.5 -16t27.5 -15.5t25.5 -5q19 0 35 7.5t32 21.5z" />
<glyph unicode="&#x2dd;" horiz-adv-x="486" d="M323 574l-26 29l147 156l53 -63zM161 574l-29 26l131 169l59 -56z" />
<glyph unicode="&#x312;" horiz-adv-x="284" d="M303 744q-29 -17 -45 -34t-23.5 -33t-7.5 -29.5t3 -23.5q6 -23 -6 -40t-37 -17q-23 0 -36.5 15t-13.5 38q0 21 9.5 42.5t29 41.5t48.5 39t68 35l11 -34v0z" />
<glyph unicode="&#x315;" horiz-adv-x="214" d="M143 582l-34 11l81 202l71 -24z" />
<glyph unicode="&#x326;" horiz-adv-x="286" d="M144 -99q0 -21 -9.5 -43t-28.5 -42t-48 -39t-68 -35l-13 34q29 17 46 34t23.5 31.5t7.5 24t1 12.5q0 8 -1.5 13.5t-3 11.5t-1.5 11q0 14 12 27t33 13q24 0 37 -15t13 -38z" />
<glyph unicode="&#x3c0;" horiz-adv-x="639" d="M643 430h-120q-10 -57 -19 -107.5t-15 -92.5t-9.5 -74t-3.5 -50q0 -30 10 -40t30 -10q14 0 27.5 2.5t24.5 6.5l7 -33q-21 -15 -51 -27t-62 -12q-47 0 -65.5 21.5t-18.5 65.5q0 21 5.5 57t15 82.5t21 100t24.5 110.5h-193q-11 -56 -23.5 -114.5t-29 -115t-34.5 -110 t-40 -100.5l-102 21q24 42 46.5 92t41.5 104t34.5 110.5t27.5 112.5h-23q-28 0 -50.5 -4t-47.5 -15l-4 37q31 27 66 38.5t76 11.5h467z" />
<glyph unicode="&#x2013;" horiz-adv-x="500" d="M-5 253l13 67h500l-13 -67h-500z" />
<glyph unicode="&#x2014;" horiz-adv-x="1000" d="M91 253l13 67h808l-13 -67h-808z" />
<glyph unicode="&#x2018;" horiz-adv-x="237" d="M166 498q-25 0 -40 17t-15 43q0 47 41 97t110 94l20 -28q-36 -26 -55.5 -56.5t-19.5 -55.5q0 -9 2 -14.5t5 -11t5 -12t2 -16.5q0 -11 -4 -21.5t-11 -18.5t-17.5 -12.5t-22.5 -4.5z" />
<glyph unicode="&#x2019;" horiz-adv-x="237" d="M203 745q25 0 39.5 -17t14.5 -43q0 -47 -41 -97t-109 -94l-21 28q36 26 55.5 56.5t19.5 55.5q0 8 -2 14t-5 11t-5 11.5t-2 17.5t4 21.5t11.5 18.5t18 12.5t22.5 4.5z" />
<glyph unicode="&#x201a;" horiz-adv-x="226" d="M66 114q26 0 42 -16.5t16 -44.5q0 -49 -41.5 -100t-113.5 -97l-23 29q40 28 59 56.5t19 54.5q0 10 -2.5 16l-5 12t-5 12.5t-2.5 17.5q0 12 4 23.5t12 19t18 12.5t23 5z" />
<glyph unicode="&#x201c;" horiz-adv-x="427" d="M354 498q-25 0 -40 15t-15 42q0 52 40 100t110 95l22 -29q-40 -32 -58 -60t-18 -55q0 -8 2 -13t5 -10.5t5 -12.5t2 -17q0 -11 -4 -21t-11 -17.5t-17.5 -12t-22.5 -4.5zM166 498q-25 0 -40 15t-15 42q0 52 40.5 100t110.5 95l22 -29q-41 -32 -59 -60t-18 -55q0 -8 2 -13 t5 -10.5t5 -12.5t2 -17q0 -11 -3.5 -21t-11 -17.5t-18 -12t-22.5 -4.5z" />
<glyph unicode="&#x201d;" horiz-adv-x="425" d="M201 742q25 0 40 -15.5t15 -42.5q0 -51 -40 -99.5t-110 -94.5l-22 28q40 32 58 60t18 56q0 7 -2 12.5t-5 11t-5 12.5t-2 17t4 20t11 18t17.5 12.5t22.5 4.5zM389 742q25 0 40 -15.5t15 -42.5q0 -51 -40.5 -99.5t-110.5 -94.5l-22 28q41 32 59 60t18 56q0 7 -2 12.5t-5 11 t-5.5 12.5t-2.5 17t4 20t11.5 18t18 12.5t22.5 4.5z" />
<glyph unicode="&#x201e;" horiz-adv-x="410" d="M64 102q25 0 40 -15.5t15 -42.5q0 -51 -40.5 -99t-110.5 -95l-22 28q41 32 59 60.5t18 55.5q0 8 -2.5 13t-5 10.5t-5 12.5t-2.5 17t4 20t11.5 18t18 12.5t22.5 4.5zM251 102q25 0 40 -15.5t15 -42.5q0 -51 -40 -99t-110 -95l-22 28q40 32 58 60.5t18 55.5q0 8 -2 13 t-5 10.5t-5 12.5t-2 17t4 20t11.5 18t17.5 12.5t22 4.5z" />
<glyph unicode="&#x2020;" horiz-adv-x="457" d="M458 503h-164l-4 -159l-93 -344h-42l39 344l56 159h-165l9 49h165l7 176h97l-60 -176h165z" />
<glyph unicode="&#x2021;" horiz-adv-x="457" d="M459 506h-165v-135l-52 -134h165l-9 -49h-165l-9 -188h-97l62 188h-165l10 49h164v134l52 135h-164l9 49h164l6 173h97l-58 -173h164z" />
<glyph unicode="&#x2022;" horiz-adv-x="422" d="M98 289q0 25 9 46.5t24.5 37.5t36.5 24.5t44 8.5q22 0 41.5 -8.5t34.5 -23.5t23 -34.5t8 -40.5q0 -25 -8.5 -46.5t-24.5 -37.5t-36.5 -24.5t-44.5 -8.5q-22 0 -41.5 8.5t-34 23.5t-23 34.5t-8.5 40.5z" />
<glyph unicode="&#x2026;" horiz-adv-x="672" d="M565 55q0 -27 -18.5 -45.5t-44.5 -18.5q-25 0 -41 16.5t-16 42.5q0 27 18 45t44 18t42 -16t16 -42zM346 55q0 -27 -18 -45.5t-44 -18.5t-41.5 16.5t-15.5 42.5q0 27 18 45t44 18t41.5 -16t15.5 -42zM128 55q0 -27 -18 -45.5t-44 -18.5t-41.5 16.5t-15.5 42.5q0 27 18 45 t44 18t41.5 -16t15.5 -42z" />
<glyph unicode="&#x2030;" horiz-adv-x="1156" d="M1092 227q0 -42 -12.5 -84t-37.5 -76t-61 -54t-81 -20q-25 0 -46 7.5t-36 22.5t-23 37.5t-8 52.5q0 42 12.5 84t37.5 76t61 54t81 20q25 0 46 -7.5t36 -22.5t23 -37.5t8 -52.5zM392 562q0 -42 -12.5 -84t-37.5 -76t-61 -54t-81 -20q-25 0 -46 7.5t-36 22.5t-23 37.5 t-8 52.5q0 42 12.5 84t37.5 76t61 54t81 20q25 0 46 -7.5t36 -22.5t23 -37.5t8 -52.5zM102 -23l-34 31l644 690l33 -31zM721 227q0 -42 -12.5 -84t-37.5 -76t-61 -54t-81 -20q-25 0 -46 7.5t-36 22.5t-23 37.5t-8 52.5q0 42 12.5 84t37.5 76t61 54t81 20q52 0 82.5 -30.5 t30.5 -89.5zM1021 221q0 78 -60 78q-50 0 -76.5 -59t-26.5 -121q0 -78 60 -78q26 0 46 17.5t32.5 45.5t18.5 59t6 58zM321 556q0 78 -60 78q-50 0 -76.5 -59t-26.5 -121q0 -40 15.5 -59t44.5 -19q26 0 46 17.5t32.5 45.5t18.5 59t6 58zM650 221q0 78 -60 78q-50 0 -76.5 -59 t-26.5 -121q0 -40 15.5 -59t44.5 -19q26 0 46 17.5t32.5 45.5t18.5 59t6 58z" />
<glyph unicode="&#x2039;" horiz-adv-x="340" d="M159 264l62 -180l-48 -23l-112 208l190 205l40 -24z" />
<glyph unicode="&#x203a;" horiz-adv-x="340" d="M85 61l-39 24l131 186l-61 180l48 23l112 -208z" />
<glyph unicode="&#x2044;" horiz-adv-x="143" d="M-293 -133l-37 29l788 908l36 -29z" />
<glyph unicode="&#x2070;" horiz-adv-x="479" d="M499 627q0 -52 -16.5 -103t-48.5 -91t-79.5 -65t-109.5 -25q-80 0 -117 45t-37 125q0 52 16.5 102.5t49 91t79.5 65.5t109 25q81 0 117.5 -45t36.5 -125zM263 392q40 0 70 22t49 55t28 73t9 76q0 28 -4 52t-14.5 41t-28 27t-44.5 10q-41 0 -71 -22t-49 -55t-28 -73 t-9 -76q0 -28 4 -52t14.5 -41t28 -27t45.5 -10z" />
<glyph unicode="&#x2074;" horiz-adv-x="414" d="M342 459l-12 -64q14 -4 26 -9t23 -12l-4 -24h-188l5 24q14 7 29.5 12.5t33.5 8.5l11 64h-203l1 51l254 279h86l-52 -276h83l-10 -54h-83zM318 727l-194 -214h153z" />
<glyph unicode="&#x20ac;" horiz-adv-x="594" d="M577 508h-35q-6 23 -9 46.5t-3 45.5q-20 12 -46 18.5t-55 6.5q-38 0 -68.5 -15t-53.5 -42t-39.5 -62.5t-28.5 -78.5h185l-7 -44h-190q-6 -25 -11 -50.5t-7 -46.5h189l-8 -44h-184q-3 -42 3.5 -74.5t24 -55.5t49.5 -35t79 -12q38 0 73 8.5t68 23.5l8 -46q-46 -28 -92 -44 t-98 -16q-65 0 -108.5 17.5t-68.5 50t-34 78.5t-6 105h-86l8 44h82q4 26 8.5 50.5t10.5 46.5h-82l8 44h86q19 59 46 105t65 79.5t90 52t118 18.5q40 0 78.5 -5t70.5 -13z" />
<glyph unicode="&#x2122;" horiz-adv-x="856" d="M861 645q-30 -14 -54 -17l3 -231q14 -4 24.5 -8.5t16.5 -10.5l-4 -28h-164l4 27q13 7 25.5 12.5t23.5 7.5l2 208l-121 -255h-46l-31 255l-66 -208q11 -4 20.5 -9t17.5 -11l-5 -27h-149l5 28q11 6 23 10.5t25 8.5l94 231q-13 1 -25.5 6t-23.5 11l5 30h139l25 -207l100 207 h142zM392 562h-30q-4 17 -5.5 36.5t-1.5 36.5h-60l-45 -237q12 -1 26 -7t25 -14l-4 -27h-181l5 27q14 8 30 14t29 7l45 237h-60q-6 -18 -15 -37t-21 -36h-29l22 113h292z" />
<glyph unicode="&#x2126;" horiz-adv-x="765" d="M727 453q0 -65 -20.5 -120t-55 -102t-80.5 -86.5t-97 -71.5l-1 -5h132q4 9 8.5 20.5t10.5 22.5t11.5 20.5t9.5 15.5h37l-29 -147h-252l15 83q48 31 86 70t64 83.5t40 94t14 100.5q0 41 -11 77t-33.5 62t-56.5 40.5t-80 14.5q-56 0 -103 -25.5t-81.5 -70t-54 -105.5 t-19.5 -131q0 -61 23.5 -115t73.5 -95l-16 -83h-252l27 147h36q4 -19 6 -41t2 -38h134l1 6q-27 15 -52 37t-44 51t-30 65t-11 79q0 74 30 142.5t82.5 120.5t123.5 83.5t153 31.5q61 0 109.5 -16.5t81.5 -47.5t50.5 -73.5t17.5 -93.5z" />
<glyph unicode="&#x2202;" horiz-adv-x="524" d="M185 -9q-83 0 -124 45.5t-41 125.5q0 33 6.5 71t21 76t39 73t59 62.5t81.5 44t109 16.5h19t20 -1q-16 49 -54.5 91t-96.5 79q-15 6 -33.5 10.5t-36.5 7.5l6 31q28 6 69.5 10t82.5 3q44 -33 78 -69.5t57.5 -79t36 -90.5t12.5 -105q0 -51 -9 -101.5t-26 -95t-43 -82 t-61 -64.5t-78 -42.5t-94 -15.5zM395 365q0 39 -7 76q-15 7 -33.5 11t-40.5 4q-39 0 -68 -14.5t-50.5 -38t-35.5 -53t-22.5 -60t-12 -60t-3.5 -51.5q0 -58 24.5 -91.5t75.5 -33.5q45 0 77.5 30t54 76.5t31.5 101t10 103.5z" />
<glyph unicode="&#x2206;" horiz-adv-x="603" d="M-10 0l10 52l353 629h66l103 -629l-10 -52h-522zM342 567l-261 -505h338z" />
<glyph unicode="&#x220f;" horiz-adv-x="702" d="M368 -97l6 31q21 9 41 17.5t41 13.5l140 735h-310l-140 -735q19 -5 36 -13.5t34 -17.5l-7 -31h-244l6 31q20 9 40 17.5t42 13.5l138 730q-19 5 -35.5 13.5t-33.5 17.5l5 30h649l-6 -30q-20 -9 -40.5 -17.5t-41.5 -13.5l-139 -730q21 -5 37.5 -13.5t32.5 -17.5l-6 -31 h-245z" />
<glyph unicode="&#x2211;" horiz-adv-x="708" d="M-5 -97l11 54l374 385l-229 367l9 47h543l-32 -164h-38q-7 24 -11 52t-4 59h-347l209 -337l-357 -377h379q11 26 26 55.5t36 62.5h37l-39 -204h-567z" />
<glyph unicode="&#x2212;" d="M28 240l13 65h480l-13 -65h-480z" />
<glyph unicode="&#x221a;" d="M255 0h-90l-42 379l-73 -28l11 60l145 50l27 -264q5 -54 7 -118h2q12 29 24 56.5t24 54.5l266 568h70z" />
<glyph unicode="&#x221e;" horiz-adv-x="983" d="M928 335q0 -39 -16.5 -73t-45 -59.5t-66 -40t-78.5 -14.5q-31 0 -60.5 9t-59.5 25.5t-59.5 37.5t-59.5 45q-31 -22 -62.5 -43.5t-63 -37.5t-62.5 -26t-62 -10q-41 0 -72 11.5t-52.5 31.5t-32.5 47t-11 57q0 38 17 71.5t46 58.5t66 39.5t77 14.5q31 0 61.5 -10t60.5 -26.5 t59 -38t59 -45.5q31 23 62.5 44t63 38t63 27.5t60.5 10.5q40 0 71.5 -11.5t53 -31t32.5 -45.5t11 -56zM846 318q0 38 -29.5 63t-75.5 25q-41 0 -86.5 -25t-95.5 -60q25 -21 49 -39.5t46.5 -32t44.5 -21.5t43 -8q46 0 75 27t29 71zM437 304q-26 21 -50 39.5t-47 32.5t-45 22 t-42 8q-46 0 -75.5 -27t-29.5 -72q0 -19 8.5 -35t22 -27.5t33 -18t42.5 -6.5q40 0 86 24t97 60z" />
<glyph unicode="&#x222b;" horiz-adv-x="371" d="M422 785q3 -3 3 -8q0 -7 -5 -17.5t-12.5 -20.5t-16 -16.5t-15.5 -6.5q-8 0 -20 12.5t-22 12.5q-15 0 -25.5 -15.5t-17.5 -53.5l-44 -223l-48 -246q-21 -107 -43.5 -176.5t-48.5 -108t-55 -54t-65 -15.5q-34 0 -56 14q-3 1 -3 7q0 7 5 17.5t12.5 20.5t16 16.5t16.5 6.5 t19.5 -12.5t22.5 -12.5q15 0 25.5 16t17.5 54l92 474q20 102 42 169.5t47.5 107t55 56t66.5 16.5q16 0 30.5 -4t25.5 -10z" />
<glyph unicode="&#x2248;" d="M516 357q-26 -21 -60 -38t-75 -17q-36 0 -59 9.5t-42.5 21t-40 20.5t-51.5 9q-16 0 -31 -4t-28.5 -10t-25.5 -13.5t-21 -14.5l-15 55q26 20 61.5 37t75.5 17q35 0 59 -9.5t44 -21t40.5 -21t49.5 -9.5q26 0 51 12t53 32zM481 169q-13 -9 -28.5 -17.5t-32.5 -16t-36 -12 t-38 -4.5q-37 0 -60.5 9.5t-43 21t-39.5 20.5t-50 9q-17 0 -31.5 -4t-27.5 -10t-25 -13.5t-21 -14.5l-16 55q13 10 28 19.5t32 17t36 12.5t39 5q35 0 58.5 -9.5t43.5 -21t41.5 -21t51.5 -9.5q27 0 52 10t51 29z" />
<glyph unicode="&#x2260;" d="M228 149l-87 -133h-66l87 133h-133l12 64h161l77 118h-216l12 64h245l87 133h66l-87 -133h133l-12 -64h-162l-77 -118h217l-12 -64h-245z" />
<glyph unicode="&#x2264;" d="M383 136l-298 239l390 246l32 -58l-315 -191l240 -179zM-1 0l10 57h448l-10 -57h-448z" />
<glyph unicode="&#x2265;" d="M-1 0l10 57h448l-10 -57h-448zM204 621l300 -239l-391 -246l-33 57l317 192l-240 179z" />
<glyph unicode="&#x25ca;" horiz-adv-x="604" d="M275 -8h-48l-178 349l306 342h46l178 -348zM359 599l-225 -256l136 -265l226 252z" />
<glyph unicode="&#x25fc;" horiz-adv-x="525" d="M0 525h525v-525h-525v525z" />
<glyph unicode="&#xf001;" horiz-adv-x="588" d="M579 658q0 -29 -17.5 -46t-45.5 -17q-16 0 -28.5 7t-20 19t-8 26.5t6.5 28.5q-6 7 -25.5 16.5t-57.5 9.5q-53 0 -87 -39t-50 -119l-9 -46h297l-83 -439q6 -3 22.5 -8.5t42.5 -9.5l-5 -32q-18 -4 -62 -9t-102 -3l86 453h-206l-101 -527q-16 -85 -68.5 -130.5t-142.5 -45.5 q-33 0 -57.5 4t-34.5 7l26 133h33q4 -12 9.5 -38t4.5 -55q15 -5 34 -5q45 0 68 30t35 92l102 535h-88l9 48h89l6 31q22 109 89 164t167 55q38 0 69.5 -6.5t54.5 -18.5t35.5 -28.5t12.5 -36.5z" />
<glyph unicode="&#xf002;" horiz-adv-x="600" d="M463 59q7 -3 24 -8.5t41 -9.5l-6 -32q-18 -4 -62 -9t-101 -3l130 686q-11 4 -36.5 9.5t-53.5 5.5q-68 0 -103 -36t-51 -118l-9 -46h115l-9 -48h-115l-101 -527q-16 -85 -68.5 -130.5t-142.5 -45.5q-33 0 -57.5 4t-34.5 7l26 133h33q4 -12 9.5 -38t4.5 -55q15 -5 34 -5 q45 0 68 30t35 92l102 535h-88l9 48h89l7 40q21 106 84.5 156.5t176.5 50.5q54 0 104.5 -6.5t72.5 -11.5z" />
<glyph unicode="&#xf8ff;" horiz-adv-x="1041" d="M144 358v-38l-119 -7q-3 26 0 52zM158 666q16 19 36 36l79 -89q-7 -6 -14 -12.5t-13 -13.5l-88 79v0zM540 699q-20 2 -38 0l-7 117q13 2 26 1.5t25 -1.5l-6 -117v0zM846 701q20 -15 37 -36l-88 -78q-13 14 -27 27zM1016 365q1 -27 0 -52l-119 7q2 19 0 38l119 7v0z M757 338q0 -52 -19.5 -95t-48.5 -70v-77l-16 -5l32 -74l-30 -7l30 -71l-30 -8l10 -25l-29 -66h-49q-3 -18 -27.5 -30.5t-58.5 -12.5q-35 0 -59.5 12.5t-26.5 30.5h-50l-49 118l31 8l-31 74l34 9l-19 46v77q-29 30 -48.5 73t-19.5 93q0 49 18.5 92.5t51 76t75.5 51t93 18.5 q49 0 92 -18.5t75 -51t50.5 -76t18.5 -92.5zM458 191l-17 141q-13 -3 -21 -6.5t-15 -5.5t-10.5 3.5t-4.5 13t1 15t6 8.5q28 8 60 14t64 6t63.5 -6t60.5 -14q4 -1 5.5 -8t1 -15t-4 -13.5t-10.5 -3.5q-8 3 -17 6t-22 6l-14 -141h62q26 24 46.5 61.5t20.5 85.5q0 40 -15 75.5 t-41 61.5t-61 41.5t-75 15.5t-75 -15.5t-61.5 -41.5t-41.5 -61.5t-15 -75.5q0 -42 17 -80.5t51 -66.5h62zM566 337q-14 3 -24 3.5t-21 0.5q-10 0 -21.5 -0.5t-25.5 -3.5l15 -146h63l14 146v0zM394 155v-57l16 -39l237 60v36h-253zM633 81l-243 -62l17 -42l244 61zM634 -1 l-244 -62l26 -64h210l14 35l-7 14l-76 -19l-11 30l105 27zM510 358h-2v6h-1v-7h3v1zM513 362v-3q0 -2 -0.5 -1.5t-0.5 1.5v3h-1v-3q0 -2 1.5 -2t1.5 2v3h-1zM518 358q-2 -1 -2 1.5t2 1.5v1q-2 1 -2.5 -2.5t2.5 -2.5v1zM522 355q-3 5 0 10q-2 0 -2 -5t2 -5zM525 357h1v3 q0 5 -4 1q2 0 3 -1q-2 0 -3 -2t3 0v-1zM525 359q-2 -2 -2 -0.5t2 0.5zM528 357q5 0 2.5 2t-0.5 2v1q-5 0 -2 -2t0 -2v-1v0zM531 355q2 0 2 5t-2 5q3 -5 0 -10z" />
<glyph unicode="&#xfb00;" horiz-adv-x="627" d="M737 602h-34q-14 45 -13 92q-4 2 -13 4t-21 2q-44 0 -67.5 -30t-36.5 -92l-15 -80h130l-9 -48h-130l-92 -481q-20 -105 -83 -157.5t-169 -52.5q-42 0 -76 4.5t-68 16.5q-25 -16 -55.5 -24.5t-69.5 -8.5q-33 0 -57.5 4t-34.5 7l26 133h33q4 -12 9.5 -38t4.5 -55 q4 -1 13 -3t21 -2q23 0 40 8t29 23t20 37.5t14 53.5l102 535h-88l9 48h89l6 34q10 50 30.5 87.5t51.5 63t73.5 38.5t95.5 13q40 0 74.5 -5t69.5 -16q25 16 55.5 24.5t69.5 8.5q33 0 57.5 -4t34.5 -7zM500 665q-20 10 -52 16.5t-60 6.5q-120 -6 -145 -155l-7 -35h210l13 71 q6 27 16 51.5t25 44.5zM227 450l-100 -526q-6 -27 -16 -51.5t-25 -44.5q20 -10 51.5 -16.5t60.5 -6.5q61 0 95 36t50 121l93 488h-209z" />
<glyph unicode="&#xfb01;" horiz-adv-x="588" d="M579 658q0 -29 -17.5 -46t-45.5 -17q-16 0 -28.5 7t-20 19t-8 26.5t6.5 28.5q-6 7 -25.5 16.5t-57.5 9.5q-53 0 -87 -39t-50 -119l-9 -46h297l-83 -439q6 -3 22.5 -8.5t42.5 -9.5l-5 -32q-18 -4 -62 -9t-102 -3l86 453h-206l-101 -527q-16 -85 -68.5 -130.5t-142.5 -45.5 q-33 0 -57.5 4t-34.5 7l26 133h33q4 -12 9.5 -38t4.5 -55q15 -5 34 -5q45 0 68 30t35 92l102 535h-88l9 48h89l6 31q22 109 89 164t167 55q38 0 69.5 -6.5t54.5 -18.5t35.5 -28.5t12.5 -36.5z" />
<glyph unicode="&#xfb02;" horiz-adv-x="600" d="M463 59q7 -3 24 -8.5t41 -9.5l-6 -32q-18 -4 -62 -9t-101 -3l130 686q-11 4 -36.5 9.5t-53.5 5.5q-68 0 -103 -36t-51 -118l-9 -46h115l-9 -48h-115l-101 -527q-16 -85 -68.5 -130.5t-142.5 -45.5q-33 0 -57.5 4t-34.5 7l26 133h33q4 -12 9.5 -38t4.5 -55q15 -5 34 -5 q45 0 68 30t35 92l102 535h-88l9 48h89l7 40q21 106 84.5 156.5t176.5 50.5q54 0 104.5 -6.5t72.5 -11.5z" />
<glyph unicode="&#xfb03;" horiz-adv-x="889" d="M880 658q0 -29 -17.5 -46t-45.5 -17q-16 0 -28.5 7t-20 19t-8 26.5t6.5 28.5q-6 7 -25.5 16.5t-57.5 9.5q-54 0 -88 -38.5t-50 -119.5l-9 -46h299l-84 -439q6 -3 22.5 -8.5t42.5 -9.5l-5 -32q-18 -4 -62 -9t-102 -3l86 453h-206l-92 -481q-20 -105 -83 -157.5t-169 -52.5 q-42 0 -76 4.5t-68 16.5q-25 -16 -55.5 -24.5t-69.5 -8.5q-33 0 -57.5 4t-34.5 7l26 133h33q4 -12 9.5 -38t4.5 -55q4 -1 13 -3t21 -2q23 0 40 8t29 23t20 37.5t14 53.5l102 535h-88l9 48h89l6 34q10 50 30.5 87.5t51.5 63t73.5 38.5t95.5 13q47 0 84.5 -6.5t73.5 -19.5 q29 19 66.5 29.5t81.5 10.5q38 0 69.5 -6.5t54.5 -18.5t35.5 -28.5t12.5 -36.5zM511 661q-23 11 -56 19t-67 8q-115 0 -145 -155l-7 -35h210l6 31q8 41 23.5 73.5t35.5 58.5zM227 450l-100 -526q-6 -27 -16 -51.5t-25 -44.5q20 -10 51.5 -16.5t60.5 -6.5q61 0 95 36t50 121 l93 488h-209z" />
<glyph unicode="&#xfb04;" horiz-adv-x="902" d="M764 59q27 -11 65 -18l-6 -32q-18 -4 -62 -9t-101 -3l130 686q-11 4 -36.5 9.5t-52.5 5.5q-68 0 -103.5 -36t-51.5 -117l-9 -47h116l-10 -48h-115l-92 -481q-20 -105 -83 -157.5t-169 -52.5q-41 0 -75.5 4.5t-68.5 16.5q-25 -16 -55.5 -24.5t-69.5 -8.5q-33 0 -57.5 4 t-34.5 7l26 133h33q4 -12 9.5 -38t4.5 -55q4 -1 13 -3t21 -2q23 0 40 8t29 23t20 37.5t14 53.5l102 535h-88l9 48h89l6 34q10 50 30.5 87.5t51.5 63t73.5 38.5t95.5 13q90 0 155 -27q28 18 67.5 28t89.5 10q54 0 104.5 -6.5t72.5 -11.5zM507 661q-19 12 -52.5 19.5 t-66.5 7.5q-115 0 -145 -155l-7 -35h210l8 41q13 73 53 122zM227 450l-100 -526q-6 -27 -16 -51.5t-25 -44.5q20 -10 51.5 -16.5t60.5 -6.5q61 0 95 36t50 121l93 488h-209z" />
<glyph horiz-adv-x="960" d="M880 571q0 -4 -2 -4q-11 2 -21 0.5t-21 -2.5q-34 -2 -53.5 -3t-36.5 -4q-8 -7 -7 -16t-3 -17q0 -5 1.5 -8t2.5 -7q4 -5 14 -7q7 1 13.5 4t9.5 9q0 7 -7 12q-5 4 -10.5 3t-9.5 4q3 5 9.5 4t12.5 -1q10 -3 15 -16q-1 -15 -18 -27q-5 -2 -10.5 -2.5t-10.5 -2.5 q-12 3 -24.5 8t-20.5 16q-4 12 -1 22.5t4 21.5q-2 5 -6 4t-9 0l-33 -1q0 2 -1 2t-1 2q3 2 7 2t7 1q9 -2 19 -1t19 1q4 3 4.5 7.5t0.5 9.5q3 7 3.5 16t5.5 14q5 3 8 -1t6 -6q5 -8 3 -17.5t2 -18.5q4 -6 10.5 -4t11.5 0q23 2 49 1.5t64 4.5q3 -2 4 -3zM648 502 q-12 0 -25.5 -0.5t-25.5 -4.5q-4 2 -7.5 2.5t-5.5 5.5q2 14 3.5 28t-2.5 28q-2 3 -6.5 0.5t-7.5 -4.5q-14 -8 -26.5 -19.5t-14.5 -28.5q-4 -4 -9 -5.5t-10 0.5q-5 7 -3 15t0 16l-1 31q-3 3 -8 1.5t-10 0.5q-2 2 -6.5 1t-4.5 4q13 -1 25.5 1t26.5 0q3 -3 3 -7v-8t0.5 -7.5 t5.5 -4.5q14 6 26 14.5t26 13.5q6 -4 14 -1.5t10 -7.5q2 -11 1.5 -21.5t0.5 -21.5q2 -3 1.5 -6.5t2.5 -5.5q9 -2 13 0q4 0 8 -1t9 -1q2 -3 0 -5zM447 559q3 -19 -7 -31q-11 -7 -20 -15.5t-22 -10.5q-6 2 -7 -3.5t-6 -1.5t-12 2t-13 -1q-6 0 -11 0.5t-10 2.5q-8 7 -15.5 15.5 t-2.5 20.5q3 9 8.5 17t15.5 13q11 5 22 10.5t25 2.5q16 -1 31.5 -4t23.5 -17zM452 664q-12 -13 -29 -8q-5 6 -9 11.5t-5 12.5q-13 20 -35 25t-43 11l-31 2q-2 -2 -6 -1t-7 -1q-33 -10 -55 -21q-6 -8 -15.5 -13.5t-11.5 -16.5q-6 -15 -8 -34t-3 -36q5 -4 11 -2.5t11 0.5 q21 2 42 2h44q4 -2 1 -7q-8 -6 -15.5 -0.5t-15.5 2.5q-10 1 -20.5 -0.5t-20.5 -0.5q-9 -2 -18.5 -2t-17.5 -5l-3 -4q-2 -19 -1.5 -31t2.5 -32q2 -7 0.5 -14t3.5 -14q13 -1 20.5 -0.5t14 1t14 1.5t20.5 1q3 2 6.5 1t6.5 -2q1 -1 0.5 -2t0.5 -2l-4 -2q-12 2 -21 1.5t-18 -1.5 t-20 -2t-26 0q-11 -1 -23 -2t-23 0q-16 -1 -33 -1t-31 4l-2 3q3 3 9 5q8 -4 18 -4.5t21 -2.5q7 1 14 0.5t12 3.5q-1 26 4 46t7 47q-1 2 -3 4q-15 1 -28.5 0t-27.5 5q-2 5 3 5q14 -4 28 -4t28 1l2 3q2 17 5.5 34.5t9.5 31.5v3q23 26 52.5 42t66.5 20q18 2 36 -2t34 -11 q5 -2 10 -2t10 -2q17 -4 34 -12t28 -23q2 -2 0 -9zM767 -62q-22 2 -49 -2.5t-48 -1.5q-56 2 -109 -4t-108 0q-25 -4 -48.5 -1.5t-47.5 4.5q-29 2 -59.5 1.5t-61.5 -0.5q-21 0 -50 -1.5t-50 -6.5q-4 -1 -8.5 -1t-6.5 5q0 16 -1 32.5t4 32.5q2 20 1 40t2 40q-4 23 -0.5 44.5 t-0.5 44.5q0 32 2.5 64.5t4.5 66.5q2 36 0.5 71.5t0.5 71.5q4 8 11.5 6.5t14.5 0.5q8 -5 18.5 -2.5t18.5 1.5q3 3 7.5 5.5t5.5 -4.5q2 -2 0.5 -6t2.5 -6q-2 -14 -1.5 -38t2 -52t3.5 -57.5t3 -53.5q32 10 58.5 27.5t57.5 28.5q5 2 9.5 6t11.5 6q2 1 4 3t6 0q5 -2 4 -7t-1 -10 q-10 -29 -5 -61q2 -5 6.5 -3t7.5 2q8 7 17 11.5t17 10.5q10 6 20 11.5t21 9.5q12 8 23.5 16t24.5 13l20 16q1 4 6 7q3 0 5.5 -2t5.5 -4q0 -14 3 -28.5t3 -28.5q1 -3 3 -2.5t3 -1.5q4 -5 2 -10l-4 -10l2 -2q17 4 31.5 13t29 19t29 19t31.5 13q5 5 11 6.5t11 6.5q5 1 9 4.5 t8.5 6.5t9.5 4t11 -3q2 0 4 -1t3 -3q-1 -4 0.5 -6.5t3.5 -5.5q-2 -8 0 -14.5t-2 -12.5q1 -13 0 -25t5 -23q-2 -7 2.5 -12.5t-0.5 -10.5q1 -8 0 -14.5t4 -12.5q1 -5 1.5 -9.5t-2.5 -8.5q2 -11 2.5 -23t4.5 -23q-2 -4 -1 -8t1 -8q0 -38 5.5 -73.5t6.5 -73.5q0 -2 1.5 -4.5 t-0.5 -4.5zM425 539q-2 11 -7.5 21.5t-18.5 12.5q-2 -5 -6.5 -3.5t-7.5 0.5q-7 3 -14 1t-12 -7q-11 -15 -3.5 -29t15.5 -27q2 -4 5 -3t7 0q7 -2 13 1.5t12 5.5q6 6 13.5 11t3.5 16zM739 -10q-4 8 -8 16.5t-10 15.5q-6 11 -13 20.5t-9 22.5q-2 5 -5 8.5t-1 8.5q7 8 16.5 13 t16.5 13l-9 17q-9 -1 -16 -4.5t-15 -5.5q-4 -2 -9 -6t-10 1q1 20 1.5 39.5t-0.5 38.5l-2 3q-8 0 -14 2.5t-13 4.5q-2 -11 -3.5 -23.5t0.5 -24.5q-3 -8 -0.5 -19.5t-1.5 -19.5q1 -31 -1.5 -52t0.5 -51l-1 -7h24q3 1 6.5 -1t5.5 1v13.5t-1 14.5q0 4 -1 8t-1.5 8t1 7t6.5 5 q5 -2 5.5 -6.5t3.5 -8.5q-1 -7 3.5 -12t6.5 -11q10 -6 15 -16t14 -17q3 1 5.5 -1.5t7.5 -0.5q6 0 6 6zM608 179q-4 11 -12 15q-2 2 -5 2.5t-5 -2.5q-5 -6 -7 -15t3 -15q2 -5 8 -5.5t11 1.5q9 6 7 19zM610 15q0 20 -1 39t-1 37q0 7 1 13.5t-1 12.5q-7 5 -13.5 2t-14.5 -2 q-7 -11 -5 -24t0 -26q-2 -5 -2 -12t-1 -14q2 -10 0.5 -22t5.5 -22q15 0 30 5q2 3 2 6.5v6.5zM560 123q-8 -1 -16.5 -2.5t-13.5 -10.5q-4 -4 -5 -11.5t-10 -5.5q-2 8 -2 14.5v14.5q-4 2 -7.5 0t-7.5 0q-7 -4 -11 -13q0 -29 0.5 -55.5t3.5 -55.5l3 -4q5 -4 11.5 -1.5t11.5 0.5 q-3 11 -0.5 20.5t-1.5 20.5q2 11 5 22.5t11 21.5q6 5 13 6.5t13 6.5q1 8 3 16t0 16zM458 30q9 17 6.5 35t-6.5 38q1 3 -2.5 6t-8 5l-9 4t-5.5 4q-2 2 -4.5 2t-3.5 -3q-11 1 -19 -4q-5 -3 -7.5 -8t-6.5 -7q-5 -3 -9 3q4 18 2 36.5t-5 37.5l-2 7h-8q-9 -3 -8 -11t-1 -14 q-3 -17 -2 -34t-2 -34q2 -17 0 -33t0 -31q0 -9 -1.5 -17.5t-0.5 -18.5q7 -4 15.5 -1t15.5 6q10 4 14 -3t10 -11q8 0 13 1q11 6 23.5 19.5t11.5 25.5zM333 34q-3 11 -3 22t0.5 22t-0.5 21.5t-7 19.5q-11 7 -23 12l-8 5q-8 -2 -16.5 -0.5t-16.5 -4.5q-7 -4 -7 -11t-1 -15 q5 -2 11.5 -1.5t12.5 1t11.5 -1t9.5 -7.5q-1 -4 1.5 -6t-0.5 -6q-1 -2 -1 -4t2 -4t1 -5t-4 -4q-7 -2 -13.5 -1.5t-14.5 -1.5q-11 -5 -17 -15.5t-8 -21.5q-3 -5 -0.5 -10.5t-1.5 -10.5q0 -7 5 -11t10 -6q5 5 8 2q8 -2 14.5 4.5t14.5 11.5q5 1 6 -1t1 -5.5t-0.5 -7.5t2.5 -6 q5 -2 8 0t8 2q4 2 8 2.5t7 3.5zM248 181q-12 2 -25.5 1.5t-26.5 -1.5q-8 -1 -15 -2.5t-12 -5.5q-1 -16 -3 -32.5t-4 -32.5q2 -26 1 -54.5t1 -55.5q4 0 7.5 1.5t6.5 -0.5q6 2 11.5 -0.5t11.5 0.5q1 16 1 31.5t1 31.5q2 5 6.5 7.5t9.5 4.5q4 2 8 0t7 3l-1 28q-4 5 -9.5 4.5 t-11.5 -0.5q-4 -4 -7 -4q-8 2 -7.5 9.5t-1.5 12.5q-2 4 4 10q10 3 19.5 4.5t19.5 3.5l6 4q-2 9 0.5 16.5t2.5 15.5zM430 77q7 -14 4 -29t-13 -26q-2 -4 -5.5 -4.5t-6.5 -2.5q-13 2 -14.5 13t-3.5 20q2 8 2.5 16.5t5.5 15.5q7 4 10 11t11 7l3 -3q-2 -7 2 -10t5 -8zM295 42 q0 -8 -4.5 -13t-9.5 -10q-4 -1 -8 -4t-9 0q-7 2 -5 7.5t3 10.5q0 6 9 10q6 0 10 4q3 -1 7.5 -0.5t6.5 -4.5z" />
<glyph horiz-adv-x="1240" d="M947 -38q-5 -6 -11.5 -8t-13.5 -3l-14 -2t-12 -5q-17 -2 -32 -6.5t-22 -21.5q-4 -10 -9.5 -19.5t-10.5 -19.5t-8 -20.5t0 -22.5q2 -9 11 -8.5t15 2.5q4 0 6.5 4.5t7.5 1.5t1 -6t-6 -7q-8 -5 -18 -7.5t-20 2.5q-8 8 -12 16.5t-1 19.5q2 8 8.5 24t26.5 50q-8 4 -16 3 t-15.5 -2.5t-15.5 -2.5t-16 2q5 6 12.5 9t14.5 5q13 3 27.5 2t22.5 12q7 11 5 22.5t0 23.5q-5 2 -5 6v6q-6 11 -15 17t-19.5 8.5t-21.5 3t-21 0.5q-23 -2 -42.5 -17t-27.5 -35q-7 -16 -5.5 -32t8.5 -33q-2 -12 2.5 -23t10 -21.5t8 -22.5t-3.5 -25q-5 -5 -12.5 -4t-13.5 3 q-14 7 -15.5 22t-6.5 28q8 6 7 16.5t5 18.5q2 5 1 13t-8 11q-17 -2 -37.5 -2t-34.5 -12q1 -11 2.5 -22t1 -22t-4.5 -21t-14 -17q-11 -3 -24 4q-11 9 -9.5 21.5t1.5 24.5q8 15 15.5 31.5t24.5 22.5q8 -5 16.5 -3t16.5 4l49 1q5 5 4.5 12.5t1.5 13.5q9 29 31.5 51.5t54.5 24.5 q17 2 33 1t31 -9q1 -5 4 -8t7 -5t7.5 -5t4.5 -8q9 -14 6.5 -33t-5.5 -35q23 0 45 4t42 8zM541 -58q-4 -3 -8 -1.5t-8 3.5t-8.5 3.5t-8.5 -1.5q-7 -5 -10 -11t-4.5 -12.5t-3.5 -13t-6 -11.5q-2 -14 -5 -26.5t-3 -25.5l-6 -4t-8 0q-6 8 -3 18t2 18q7 9 5.5 21.5t3.5 22.5 q-3 5 -2.5 12.5t-1.5 12.5q-5 2 -7.5 -2t-7.5 1q2 10 14 18q8 0 12 -6t7 -12q4 1 7.5 5.5t7 8t8 4.5t9.5 -4zM408 -13q-1 -38 1.5 -76t0.5 -74.5t-13.5 -69.5t-39.5 -61q-43 -26 -95 -26q-13 0 -25.5 2t-24.5 5q-4 2 -8 5.5t-4 8.5q2 10 6 20t16 14q-3 -8 -6.5 -16t-5.5 -17 q22 -13 53 -13q20 0 39 5t34 13q14 5 22.5 14t13.5 20t9 22.5t9 22.5q6 35 7 75.5t-1 70.5q4 11 1 24t-1 24q-2 5 -6 3.5t-6 -2.5q-8 -8 -11 -17.5t-11 -15.5q1 -8 -2 -12t-7.5 -7.5t-8.5 -7.5t-4 -11q-20 -23 -37.5 -46.5t-34.5 -47.5q-4 -6 -7 -12t-11 -5q-5 7 -5.5 14.5 t0 15t1.5 15.5t0 16q5 17 9 35t17 35q9 24 25.5 47.5t40.5 38.5q14 4 24.5 -2.5t21.5 -13.5q8 10 12 24q12 -5 12 -20q-5 -5 -1.5 -8.5t1.5 -8.5zM731 205q-18 -3 -35 -8l-34 -10t-34 -8.5t-35 -1.5q-3 -3 -5 -11t-0.5 -16t5.5 -13t13 -2q3 4 4.5 11.5t7.5 9.5 q5 -9 1.5 -17.5t-9.5 -15.5q-3 -2 -10.5 -2.5t-14.5 4t-11.5 15.5t-1.5 32q-2 3 -4.5 6t-0.5 8q11 8 12 20.5t3 25.5q-2 1 -2 2t-2 2q-17 -11 -26 -29t-22 -32q0 -7 -4 -12.5t-8.5 -11t-8 -11.5t-1.5 -14q-3 -3 -3.5 -8t-1 -9.5t-2.5 -8t-9 -4.5q-9 2 -12 7.5t-3 12t1 13.5 t0 13q-3 19 1 35t1 33q-9 -5 -11.5 -14t-9.5 -17q-5 -6 -9.5 -14t-9.5 -15t-12.5 -10.5t-17.5 -1.5q-11 17 -4 36t17 36q4 5 9 11.5t10.5 11.5t12.5 7.5t15 -0.5q5 -3 10 0q9 21 13.5 44t6.5 46l10 8q6 -2 7 -5t-0.5 -7l-3 -8t-0.5 -8q-4 -28 -9.5 -55.5t-7.5 -54.5 q-1 -15 -4 -29t2 -29q16 21 30 46t36 46q6 8 14 16t18 14q8 -6 15 -14.5t15 -13.5q0 -9 -1 -20t1 -20q27 6 51.5 10t50.5 12q8 -5 7 -13zM1064 577q-2 29 -16 58t-44 43q6 9 12.5 8t12.5 -6t11 -12.5t9 -11.5q16 -19 23 -41.5t7.5 -46.5t-5 -48t-14.5 -46q-14 -34 -41 -63.5 t-63 -44.5q14 10 26.5 21.5t21.5 26.5q16 16 30 35t18 45q12 20 13 41t-1 42zM974 476q-3 -8 -9 -15.5t-15 -9.5q-8 2 -11.5 6.5t-8.5 10.5l2 14q5 -2 4.5 -8t6.5 -8q5 -2 9.5 3t6.5 8q4 23 0.5 45t-15.5 42l-6 -3q-12 -11 -22.5 -20.5t-17.5 -24.5l-8 -4q-14 -14 -24 -29.5 t-22 -26.5q-6 -1 -8.5 1.5t-4 6.5t-2 9t-2.5 8q4 10 -3 17q-6 1 -6.5 -3.5t-3.5 -6.5q-8 -8 -14.5 -11.5t-17.5 -4.5q-11 3 -14 9t-1.5 13.5t4 16.5t2.5 17q4 15 13 26.5t20 23.5q10 2 22 6t20 -8l4 -6q-6 -17 -7.5 -35.5t-3.5 -36.5q1 -3 2.5 -6.5t5.5 -3.5q11 0 13.5 9 t9.5 15q22 19 41 38.5t37 39.5q6 -2 8.5 -7.5t3 -11.5t1 -12.5t3.5 -10.5q5 -2 3 -8q8 -15 7.5 -31t-2.5 -33zM838 672q-3 -5 -9.5 -10t-14.5 -4q-2 3 -4.5 7t-7.5 -1q-29 -23 -55.5 -48.5t-37.5 -59.5q-3 -20 -5 -42t1 -43t11.5 -39.5t25.5 -31.5q10 -8 22 -6.5t24 0.5 q6 4 10.5 8.5t10.5 8.5q2 -9 -6.5 -13t-14.5 -10q-15 -6 -32.5 -2.5t-29.5 14.5q-23 21 -27 46q-5 2 -5 5t1 6t1.5 6t-3.5 5q2 3 1 6.5t-2.5 7.5t-2 7.5t2.5 8.5q-1 30 8.5 55.5t25.5 48t37 42t43 36.5q4 0 9 1.5t10 1.5t8.5 -2t4.5 -9zM655 494q-7 -17 -22 -29.5t-35 -12.5 t-37.5 7.5t-26.5 24.5q-8 11 -7.5 23.5t2.5 26.5q2 9 7.5 15t6.5 15q29 24 64 12q4 -3 8 -4.5t3 -7.5q-3 -4 -7 0t-9 4q-27 7 -50 -16q-8 -12 -12 -26.5t2 -28.5q22 -30 54 -34q9 4 19.5 4t18.5 10q6 4 9.5 12.5t11.5 4.5zM501 466q-5 -12 -9 -24.5t-13 -23.5 q-7 -3 -12.5 0.5t-8.5 9.5q-16 37 -10 75q-2 1 -1 8t1.5 16t0.5 18t-3 13q-6 -15 -6.5 -31t-1 -31.5t-4 -30t-15.5 -27.5q-2 -2 -7 -3.5t-12 1.5t-13 11.5t-9 28.5q3 19 4 36.5t4 35.5q2 7 -2 14.5t4 13.5q7 4 13 -4q1 -15 -1 -31.5t-3 -32t-0.5 -29t6.5 -23.5q7 -5 10.5 -2 t5 9t2.5 12.5t3 8.5q4 20 3 42t5 42q3 3 5 7.5t4 8t5.5 5t9.5 -2.5q7 -20 7.5 -38.5t-0.5 -37.5t-0.5 -38t6.5 -38q1 -3 4.5 -4t6.5 3l2 5.5t4.5 11.5t6 11t8.5 5zM345 436l-4 -4t-10 -4t-24 -4.5t-46 -4.5q-34 -3 -64.5 -8.5t-62.5 -16.5q-5 -11 -13.5 -8t-14.5 6q-1 4 1 7 t5 5.5l6 5t4 6.5q6 12 10.5 24t8.5 24q-2 6 2 13t7 13q22 51 42 102.5t32 105.5q-4 14 3 21q6 2 8 -2t5 -7q-7 -39 -20 -75t-28 -71.5t-29.5 -71.5t-24.5 -74l2 -2q38 6 73 13t75 8q12 -2 27 -2t27 5zM706 -158q6 13 2 28t-12 26q-5 -6 -6 -13l-2 -14q2 -8 4.5 -16.5 t13.5 -10.5zM572 -96q-2 -11 -3.5 -23t2.5 -23q3 -3 8 -2.5t9.5 3.5t6.5 8.5t-1 13.5q1 4 2.5 11t1 13.5t-3 11.5t-8.5 6zM372 -10q-3 11 -15 13t-21 -2q-11 -9 -21.5 -19t-18.5 -21q-5 -15 -12 -30t-13 -30t-9.5 -30.5t-1.5 -32.5q3 -1 3.5 0.5t2.5 3.5q13 18 28.5 35 t30.5 35t27 37t20 41zM599 204q2 5 4 13.5t-6 10.5l-5 -29q5 1 5 2t2 3zM461 226q-7 2 -13 -3t-10 -11q-11 -14 -19.5 -30t-1.5 -33q5 -2 7 1l4 6q11 11 19.5 23t15.5 27zM828 571q-5 4 -7 -0.5t-5 -2.5q-23 -11 -30.5 -34t-6.5 -46q7 -2 12 4t12 4q3 7 8.5 14.5t10 15t6 16 t-5.5 16.5q6 0 6 5.5v7.5z" />
<glyph horiz-adv-x="366" d="M186 736l-14 36l181 103l30 -72z" />
<glyph horiz-adv-x="366" d="M362 736l-186 74l41 75l164 -113z" />
<glyph horiz-adv-x="437" d="M466 792q0 -12 -4 -22t-12 -17.5t-18 -12t-21 -4.5q-23 0 -37 14t-14 37q0 11 4.5 21t12 18t17.5 12t21 4q23 0 37 -14t14 -36zM272 792q0 -12 -4 -22t-12 -17.5t-18 -12t-21 -4.5q-23 0 -37 14t-14 37q0 11 4.5 21t12 18t17.5 12t22 4q22 0 36 -14t14 -36z" />
<glyph horiz-adv-x="423" d="M173 766l11 54h262l-11 -54h-262z" />
<glyph horiz-adv-x="445" d="M434 736l-114 67l-132 -67l-19 35l161 113l129 -115z" />
<glyph horiz-adv-x="476" d="M501 812q-24 -28 -53.5 -44.5t-59.5 -16.5q-19 0 -34 5.5t-33 15.5t-30.5 15t-28.5 5q-19 0 -35 -7.5t-31 -21.5l-20 30q25 29 54 45t59 16q19 0 34 -5.5t33 -15.5t30.5 -15t28.5 -5q19 0 35.5 7.5t30.5 21.5z" />
<glyph horiz-adv-x="445" d="M206 878l113 -67l133 67l18 -35l-161 -113l-128 115z" />
<glyph horiz-adv-x="377" d="M418 859q-5 -25 -15.5 -48t-28 -40.5t-42.5 -28.5t-57 -11q-31 0 -52 11t-32 28.5t-13.5 40.5t2.5 48h45q-5 -29 11 -47.5t50 -18.5q31 0 56 16.5t31 49.5h45v0z" />
<glyph horiz-adv-x="258" d="M288 793q0 -13 -5 -24.5t-14 -20t-20.5 -13t-24.5 -4.5q-25 0 -41.5 16.5t-16.5 40.5q0 13 5 24t13.5 19.5t20 13t24.5 4.5q25 0 42 -16.5t17 -39.5z" />
<glyph horiz-adv-x="357" d="M390 828q0 -29 -10.5 -51.5t-28 -38t-41 -24t-51.5 -8.5q-45 0 -68.5 22.5t-23.5 55.5q0 27 10 49t27 38t41 25t53 9q22 0 39.5 -6t28.5 -16.5t17.5 -24.5t6.5 -30zM336 818q0 21 -13 35.5t-36 14.5q-28 0 -47 -20t-19 -54q0 -22 13 -36.5t36 -14.5q14 0 26 5.5t21 15.5 t14 23.5t5 30.5z" />
<glyph horiz-adv-x="518" d="M366 729l-20 33l172 122l38 -66zM188 732l-23 30l163 134l43 -62z" />
<glyph horiz-adv-x="431" d="M427 660q0 -24 -16.5 -40t-39.5 -16t-37.5 14t-14.5 37q0 24 16.5 40t40.5 16q23 0 37 -14.5t14 -36.5zM257 660q0 -24 -16.5 -40t-40.5 -16q-23 0 -37 14t-14 37q0 24 16.5 40t39.5 16q24 0 38 -14.5t14 -36.5z" />
<glyph horiz-adv-x="472" d="M444 654q-8 -11 -18.5 -21t-22 -17.5t-24 -12t-24.5 -4.5q-19 0 -33 6.5t-26.5 15t-24.5 15t-28 6.5q-15 0 -27.5 -6.5t-22.5 -16.5l-17 28q8 11 18.5 21t22 17.5t24 12t24.5 4.5q20 0 34 -6.5t26.5 -14.5t24 -14.5t27.5 -6.5q15 0 27.5 6t23.5 16z" />
<glyph horiz-adv-x="882" d="M845 350q0 -65 -18.5 -128.5t-58 -116t-101.5 -83.5t-145 -31q-52 0 -96.5 9.5t-63.5 15.5l127 667q-11 4 -36.5 9.5t-53.5 5.5q-68 0 -103 -36t-51 -118l-9 -46h115l-9 -48h-115l-101 -527q-16 -85 -68.5 -130.5t-142.5 -45.5q-33 0 -57.5 4t-34.5 7l26 133h33 q4 -12 9.5 -38t4.5 -55q15 -5 34 -5q45 0 68 30t35 92l102 535h-88l9 48h89l7 40q21 106 84.5 156.5t176.5 50.5q54 0 104.5 -6.5t72.5 -11.5l-47 -247q-6 -34 -20.5 -86t-32.5 -103l2 -1q16 40 40 78.5t54 70t66 50t74 18.5q55 0 87 -42t32 -115zM746 334q0 53 -15.5 80 t-46.5 27q-32 0 -64.5 -27.5t-61 -73t-49.5 -98.5t-30 -102l-15 -73q35 -25 89 -25q49 0 86 28t60.5 72.5t35 95t11.5 96.5z" />
<glyph horiz-adv-x="906" d="M828 9q-4 -1 -16.5 -3t-34.5 -4.5t-51.5 -4t-61.5 -0.5q12 48 24 101t22 103.5t16 90.5t6 62q0 46 -11.5 66.5t-38.5 20.5q-31 0 -63 -28t-60.5 -73.5t-50 -98.5t-30.5 -102l-27 -139h-92l130 683q-11 4 -36.5 9.5t-53.5 5.5q-68 0 -103 -36t-51 -118l-9 -46h115l-9 -48 h-115l-101 -527q-16 -85 -68.5 -130.5t-142.5 -45.5q-33 0 -57.5 4t-34.5 7l26 133h33q4 -12 9.5 -38t4.5 -55q15 -5 34 -5q45 0 68 30t35 92l102 535h-88l9 48h89l7 40q21 106 84.5 156.5t176.5 50.5q54 0 104.5 -6.5t72.5 -11.5l-44 -234q-15 -79 -56 -202l2 -1 q16 40 39.5 78.5t54 70t65.5 50t72 18.5q29 0 49 -10.5t32 -29t17 -42t5 -51.5q0 -29 -5.5 -69.5t-14.5 -85t-18.5 -84.5t-18.5 -76q6 -3 23 -8.5t42 -9.5z" />
<glyph horiz-adv-x="578" d="M581 658q0 -29 -18 -46t-45 -17q-16 0 -28.5 7t-20 19t-8 26.5t6.5 28.5q-6 7 -26 16.5t-59 9.5q-53 0 -87 -39t-50 -119l-9 -46h299l-104 -549q-9 -45 -26 -79t-42 -58t-56.5 -39.5t-70.5 -24.5l-8 40q27 9 44.5 20t29.5 28t20.5 44t16.5 71l95 499h-208l-101 -527 q-16 -85 -68.5 -130.5t-142.5 -45.5q-33 0 -57.5 4t-34.5 7l26 133h33q4 -12 9.5 -38t4.5 -55q15 -5 34 -5q45 0 68 30t35 92l102 535h-88l9 48h89l6 31q11 55 34 96.5t56.5 68.5t75 40.5t90.5 13.5q38 0 70.5 -6.5t55.5 -18.5t35.5 -28.5t12.5 -36.5z" />
<glyph horiz-adv-x="853" d="M829 404q0 -61 -57.5 -101.5t-166.5 -57.5l102 -187q17 -4 31.5 -10.5t33.5 -16.5l-7 -31h-134l-132 249l-47 -249h-92l130 683q-11 4 -37 9.5t-54 5.5q-68 0 -103 -36t-51 -117l-9 -47h115l-9 -48h-115l-101 -527q-16 -85 -68.5 -130.5t-142.5 -45.5q-33 0 -57.5 4 t-34.5 7l26 133h33q4 -12 9.5 -38t4.5 -55q15 -5 34 -5q45 0 68 30t35 92l102 535h-88l9 48h89l7 40q21 106 84.5 156.5t176.5 50.5q55 0 105.5 -6.5t72.5 -11.5l-27 -139q-9 -50 -23.5 -101.5t-35.5 -115.5h2q30 64 76.5 100t110.5 36q60 0 97.5 -28.5t37.5 -74.5zM729 391 q0 28 -16.5 44.5t-48.5 16.5q-27 0 -52.5 -16t-46.5 -43t-36 -59.5t-24 -64.5q120 17 172 46t52 76z" />
<glyph horiz-adv-x="175" d="M175 980v-1300h-175v1300h175z" />
<glyph horiz-adv-x="356" />
</font>
</defs>
</svg>
