<svg height="114" width="230" xmlns="http://www.w3.org/2000/svg"><g fill="none" fill-rule="evenodd"><path d="m229.525 7.136c.194 6.486-18.304 95.36-24.312 104.62-4.339 6.688-53.371-9.465-54.777-12.446s9.97-98.027 16.898-98.827c6.927-.805 61.997.167 62.19 6.653zm-5.415 3.38c.912-4.442-51.625-5.258-54.896-4.461-3.272.798-14.578 79.091-12.983 82.313 1.595 3.22 45.85 9.941 47.757 10.332 1.906.392 18.743-81.483 20.122-88.184z" fill="#fab4b4"/><path d="m168.221 95.596c7.548 1.203 28.353 4.5 28.89 5.739.54 1.24.52 4.532-.736 4.662-1.253.13-32.824-5.56-33.262-6.947-.435-1.388-.52-4.351 5.108-3.454m14.331-40.632s-2.116-2.604-7.22-3.113c-5.101-.508-8.76 3.884-8.76 3.884l.552 1.782s2.495-1.695 6.063-2.568c3.567-.874 5.203 3.266 5.203 3.266l5.983-2.728-.271-1.128z" fill="#fc6c6c"/><path d="m204.975 58.33-1.407-1.396s1.391-8.012 2.393-15.345c1.003-7.334 5.192-7.525 5.192-7.525s-.055-2.082-.537-1.504c-.483.575-3.388.676-3.388.676l-4.581-3.45-6.006 2.679-3.402-4.026-6.566 2.833c.082-.944.106-1.63.043-1.93-.398-1.93-2.052-3.201-7.267-1.496-5.214 1.705-3.03.075-3.03.075l1.602-3.068-1.083-1.32-3.617 4.589s.363 3.21 3.817 3.207c3.45-.003 3.943.483 3.454 7.164-.488 6.681-2.126 11.25-3.397 12.402l6.798-1.618s1.693-9.768 2.425-15.686l2.677-1.445 2.363 2.144-4.587 26.43 6.62-2.176 3.463-24.774 2.523-1.092 4.4 4.254s-2.562 1.01-2.578 2.307-2.787 14.48-3.374 18.77c-.586 4.29 2.513 4.105 2.513 4.105l6.469-3.002s-.224-1.494-.273-2.131c-.053-.633-1.66 1.348-1.66 1.348" fill="#fc6c6c"/><path d="m149.05 50.611c-.547 2.037-25.605-4.936-27.62-4.759-2.016.177-10.836 7.713-13.54 8.521-2.702.81-29.932-5.056-28.514-7.062s23.303 2.362 26.023.95c2.72-1.41 12.76-8.821 14.669-8.99 2.37-.207 29.53 9.304 28.983 11.34z" fill="#fab4b4"/><path d="m.088 7.962c-.195 6.466 18.422 95.076 24.468 104.31 4.367 6.667 54.146-11.01 55.129-12.41.983-1.401-10.034-97.736-17.006-98.534-6.972-.802-62.395.167-62.59 6.634zm5.45 3.37c-.918-4.429 51.956-5.242 55.249-4.448 3.292.796 14.67 78.856 13.066 82.068-1.605 3.212-46.145 9.912-48.064 10.301-1.919.391-18.864-81.24-20.251-87.921z" fill="#92c6c9"/><path d="m61.786 96.159c-7.596 1.199-28.535 4.487-29.076 5.722-.543 1.236-.523 4.518.74 4.648 1.262.13 33.036-5.543 33.476-6.926.438-1.384.523-4.338-5.14-3.444" fill="#cee7e4"/><g fill="#92c6c9"><path d="m31.835 58.368c-7.576-5.332-9.428-15.811-4.137-23.406 5.292-7.595 15.723-9.43 23.3-4.099 7.576 5.332 9.428 15.811 4.137 23.406-5.292 7.595-15.723 9.43-23.3 4.099zm27.047-1.308c6.442-9.246 4.187-22.003-5.036-28.494-9.224-6.49-21.923-4.257-28.365 4.99-6.441 9.245-4.186 22.003 5.037 28.493 9.223 6.491 21.922 4.257 28.364-4.989zm-15.54-7.598-1.142.306a1 1 0 0 1 -1.225-.708l-3.338-12.455a2.182 2.182 0 0 1 1.543-2.672l1.142-.306a1 1 0 0 1 1.224.707l3.338 12.456a2.182 2.182 0 0 1 -1.543 2.672zm3.234 7.03-2.283.612a1 1 0 0 1 -1.188-.597l-.036-.11-.618-2.304a1 1 0 0 1 .597-1.188l.11-.037 2.284-.611a1 1 0 0 1 1.188.596l.036.11.618 2.304a1 1 0 0 1 -.708 1.225z" fill-rule="nonzero"/><path d="m40.204 78.94c-.321.174-1.797-.153-1.778-.464.018-.312.697-4.536.916-4.88.218-.345.948-1.159 1.466-.87.517.287-.283 6.04-.604 6.214zm18.152-4.678c-.12.456-1.584 1.677-1.822 1.418-.239-.259-3.125-4.2-3.228-4.684s-.04-2.393.482-2.135 4.687 4.946 4.568 5.401zm-32.416 1.175c-.433.141-1.959-.394-1.81-.72.15-.325 2.65-4.677 3.038-5.01.388-.334 1.839-1.092 2.007-.723.168.368-2.802 6.313-3.235 6.453zm40.935-15.028c.145.494-.226 2.56-.51 2.477-.286-.083-4.13-1.824-4.435-2.201s-1.04-2.17-.728-2.268c.313-.097 5.53 1.498 5.673 1.992zm-9.483-41.8c.365-.015 1.548.928 1.396 1.2-.153.272-2.606 3.77-2.953 3.983-.346.214-1.357.624-1.697.137s2.89-5.305 3.254-5.32zm-14.587-5.347c.405-.237 2.3-.06 2.286.292-.014.353-.746 5.19-1.014 5.606-.268.415-1.656 1.72-1.844 1.167-.187-.553.167-6.828.572-7.065zm-18.075 2.618c.094-.447 1.319-1.507 1.525-1.214.205.292 2.706 4.644 2.8 5.149.093.503.021 2.145-.38 2.107-.403-.038-4.041-5.594-3.946-6.041zm-11.604 10.886c-.02-.514.836-2.428 1.093-2.279.256.15 3.566 2.774 3.772 3.214s.487 2.359.16 2.377c-.326.018-5.004-2.797-5.025-3.312z"/></g></g></svg>