<svg height="109" width="287" xmlns="http://www.w3.org/2000/svg"><g fill="none" fill-rule="evenodd"><path d="m261.801 85.5c1.82 2.8 6.546 20.931 2.277 21.674-4.27.743-75.8-13.161-92.476-17.975-5.455-1.575-.887-7.765 13.703-18.569z" fill="#fc6c6c"/><path d="m195.844 1.396c-2.566 4.476-12.058 61.45-11.347 70.212.515 6.327 74.374 19.67 77.163 18.479 2.789-1.192 28.655-70.888 24.132-74.067-4.522-3.179-87.382-19.097-89.948-14.624zm1.448 4.712c1.029-3.442 82.563 11.728 84.558 13.518 1.992 1.79-19.48 60.645-21.807 62.29-1.552 1.095-25.495-3.56-71.829-13.963 5.019-37.769 8.045-58.384 9.078-61.845zm48.607 95.409c-.123.103-3.921.484-3.76-.5.16-.984.236-2.467.552-2.914s3.715-.01 3.84.158c.126.169-.51 3.152-.632 3.256zm-29.866-13.567c-.122.103-3.92.484-3.76-.5.161-.984.237-2.467.553-2.914s3.715-.01 3.84.158c.126.169-.51 3.152-.633 3.255zm-25.17-4.738c-.123.103-3.92.484-3.76-.5.161-.984.236-2.467.552-2.914s3.715-.01 3.84.158c.126.169-.51 3.152-.632 3.256zm41.3 5.78c.123-.103 3.92-.484 3.76.5s-.236 2.467-.552 2.914-3.715.01-3.84-.158c-.126-.169.51-3.152.632-3.256zm26.054 4.268c.122-.103 3.92-.484 3.76.5-.161.984-.237 2.467-.553 2.914s-3.714.01-3.84-.158c-.126-.169.51-3.152.633-3.255zm-60.543-11.531c-.075-.142-3.454-1.918-3.673-.946-.22.973-.705 2.377-.58 2.91.126.532 3.44 1.4 3.62 1.291s.708-3.113.633-3.255zm-11.948 5.221c-.075-.143-3.453-1.919-3.673-.946-.22.972-.705 2.376-.58 2.909.126.533 3.44 1.4 3.62 1.291s.708-3.113.633-3.255zm65.357 15.299c.142-.076 1.919-3.454.946-3.673-.973-.22-2.376-.706-2.91-.58-.532.125-1.4 3.44-1.29 3.62.108.18 3.113.708 3.254.633zm-28.926-11.802c.142-.075 1.918-3.453.946-3.673-.973-.22-2.377-.705-2.91-.58-.532.126-1.4 3.44-1.291 3.62.11.18 3.113.708 3.255.633zm18.252-.596c.103.123.485 3.92-.5 3.76-.983-.16-2.467-.236-2.914-.552s-.01-3.715.158-3.84c.17-.126 3.152.51 3.256.632zm-39.54-8.094c-.142.075-1.918 3.453-.946 3.673.973.22 2.377.705 2.91.58.532-.126 1.4-3.44 1.291-3.62s-3.113-.708-3.255-.633zm-12.831 5.689c-.142.075-1.918 3.454-.945 3.673.972.22 2.376.706 2.909.58.533-.125 1.4-3.44 1.292-3.62-.11-.18-3.114-.708-3.256-.633zm70.064 12.251c.104.123.485 3.92-.499 3.76-.984-.161-2.468-.236-2.915-.552s-.01-3.715.159-3.84c.169-.126 3.152.51 3.255.632zm-30.278-12.215c.103.123.484 3.92-.5 3.76s-2.467-.236-2.914-.552-.01-3.715.158-3.84c.169-.126 3.152.51 3.256.632zm26.053 4.268c.103.123.485 3.921-.5 3.76-.983-.16-2.467-.236-2.914-.552s-.01-3.715.159-3.84c.168-.126 3.152.51 3.255.633zm-7.176-.714c.104.122.485 3.92-.499 3.76-.984-.161-2.467-.237-2.914-.553s-.01-3.715.158-3.84c.169-.126 3.152.51 3.255.633zm-39.539-8.095c-.142.075-1.919 3.454-.946 3.673.973.22 2.376.705 2.91.58.532-.126 1.4-3.44 1.29-3.62-.108-.18-3.113-.708-3.254-.633zm-25.171-4.738c-.142.075-1.918 3.454-.945 3.673.972.22 2.376.706 2.909.58.533-.125 1.4-3.44 1.291-3.62s-3.113-.708-3.255-.633zm12.339 10.427c-.141.076-1.917 3.454-.945 3.674.973.22 2.377.705 2.91.58.532-.126 1.4-3.44 1.291-3.62-.11-.18-3.113-.708-3.255-.633zm5.526 1.145c-.683 1.484-.674 3.149-.674 3.149s38.803 7.421 39.241 6.522 2.796-1.975.522-2.79c-2.275-.815-39.09-6.88-39.09-6.88" fill="#fab4b4"/><path d="m223.455 59.192s-2.277-2.927-7.989-3.683c-5.71-.756-9.984 3.899-9.984 3.899l.55 1.968s2.867-1.754 6.907-2.568 5.718 3.772 5.718 3.772l6.822-2.746-.261-1.242z" fill="#fc6c6c"/><path d="m248.377 62.496-1.544-1.575s1.884-8.66 3.301-16.599c1.417-7.938 6.184-7.98 6.184-7.98s.016-2.267-.554-1.658c-.57.607-3.873.602-3.873.602l-5.074-3.935-6.924 2.676-3.71-4.514-7.567 2.821c.13-1.024.182-1.77.122-2.098-.379-2.115-2.209-3.564-8.198-1.916-5.987 1.649-3.445-.039-3.445-.039l1.937-3.273-1.18-1.48-4.282 4.85s.29 3.505 4.213 3.64c3.92.133 4.46.682 3.652 7.93-.809 7.25-2.843 12.154-4.33 13.358l7.783-1.491s2.294-10.56 3.35-16.969l3.096-1.466 2.604 2.427-6.216 28.572 7.602-2.105 4.876-26.815 2.907-1.088 4.836 4.803s-2.948.996-3.016 2.407c-.067 1.41-3.716 15.642-4.545 20.285-.829 4.646 2.698 4.567 2.698 4.567l7.462-3.01s-.197-1.634-.228-2.329c-.036-.69-1.937 1.402-1.937 1.402" fill="#fc6c6c"/><path d="m167.391 55.629c-.376 1.393-17.59-3.377-18.974-3.256-1.385.12-7.444 5.276-9.3 5.83-1.857.553-20.564-3.46-19.59-4.832.975-1.373 16.01 1.616 17.877.65 1.869-.966 8.766-6.036 10.078-6.15 1.628-.143 20.286 6.364 19.91 7.758z" fill="#fab4b4"/><path d="m25.199 86.5c-1.82 2.8-6.546 20.931-2.277 21.674 4.27.743 75.8-13.161 92.476-17.975 5.455-1.575.887-7.765-13.703-18.569z" fill="#92c6c9"/><path d="m91.156 2.396c2.566 4.476 12.058 61.45 11.347 70.212-.515 6.327-74.374 19.67-77.163 18.479-2.789-1.192-28.655-70.888-24.132-74.067 4.522-3.18 87.382-19.097 89.948-14.624zm-.736 3.494c-1.027-3.442-82.56 11.728-84.556 13.518-1.992 1.79 19.48 60.645 21.807 62.289 1.552 1.096 25.494-3.558 71.829-13.962-5.02-37.769-8.045-58.385-9.08-61.845zm-49.319 96.627c.123.103 3.921.484 3.76-.5-.16-.984-.236-2.467-.552-2.914s-3.715-.01-3.84.158c-.126.169.51 3.152.632 3.256zm29.866-13.567c.122.103 3.92.484 3.76-.5-.161-.984-.237-2.467-.553-2.914s-3.715-.01-3.84.158c-.126.169.51 3.152.633 3.255zm25.17-4.738c.123.103 3.92.484 3.76-.5-.161-.984-.236-2.467-.552-2.914s-3.715-.01-3.84.158c-.126.169.51 3.152.632 3.256zm-41.3 5.78c-.123-.103-3.92-.484-3.76.5s.236 2.467.552 2.914 3.715.01 3.84-.158c.126-.169-.51-3.152-.632-3.256zm-26.054 4.268c-.122-.103-3.92-.484-3.76.5.161.984.237 2.467.553 2.914s3.714.01 3.84-.158c.126-.169-.51-3.152-.633-3.255zm60.543-11.531c.075-.142 3.454-1.918 3.673-.946.22.973.705 2.377.58 2.91-.126.532-3.44 1.4-3.62 1.291s-.708-3.113-.633-3.255zm11.948 5.221c.075-.143 3.453-1.919 3.673-.946.22.972.705 2.376.58 2.909-.126.533-3.44 1.4-3.62 1.291s-.708-3.113-.633-3.255zm-65.357 15.299c-.142-.076-1.919-3.454-.946-3.673.973-.22 2.376-.706 2.91-.58.532.125 1.4 3.44 1.29 3.62-.108.18-3.113.708-3.254.633zm28.926-11.802c-.142-.075-1.918-3.453-.946-3.673.973-.22 2.377-.705 2.91-.58.532.126 1.4 3.44 1.291 3.62-.11.18-3.113.708-3.255.633zm-18.252-.596c-.103.123-.485 3.92.5 3.76.983-.16 2.467-.236 2.914-.552s.01-3.715-.158-3.84c-.17-.126-3.152.51-3.256.632zm39.54-8.094c.142.075 1.918 3.453.946 3.673-.973.22-2.377.705-2.91.58-.532-.126-1.4-3.44-1.291-3.62s3.113-.708 3.255-.633zm12.831 5.689c.142.075 1.918 3.454.945 3.673-.972.22-2.376.706-2.909.58-.533-.125-1.4-3.44-1.292-3.62.11-.18 3.114-.708 3.256-.633zm-70.064 12.251c-.104.123-.485 3.92.499 3.76.984-.161 2.468-.236 2.915-.552s.01-3.715-.159-3.84c-.169-.126-3.152.51-3.255.632zm30.278-12.215c-.103.123-.484 3.92.5 3.76s2.467-.236 2.914-.552.01-3.715-.158-3.84c-.169-.126-3.152.51-3.256.632zm-26.053 4.268c-.103.123-.485 3.921.5 3.76.983-.16 2.467-.236 2.914-.552s.01-3.715-.159-3.84c-.168-.126-3.152.51-3.255.633zm7.176-.714c-.104.122-.485 3.92.499 3.76.984-.161 2.467-.237 2.914-.553s.01-3.715-.158-3.84c-.169-.126-3.152.51-3.255.633zm39.539-8.095c.142.075 1.919 3.454.946 3.673-.973.22-2.376.705-2.91.58-.532-.126-1.4-3.44-1.29-3.62.108-.18 3.113-.708 3.254-.633zm25.171-4.738c.142.075 1.918 3.454.945 3.673-.972.22-2.376.706-2.909.58-.533-.125-1.4-3.44-1.291-3.62s3.113-.708 3.255-.633zm-12.339 10.427c.141.076 1.917 3.454.945 3.674-.973.22-2.377.705-2.91.58-.532-.126-1.4-3.44-1.291-3.62.11-.18 3.113-.708 3.255-.633zm-5.526 1.145c.683 1.484.674 3.149.674 3.149s-38.803 7.421-39.241 6.522-2.796-1.975-.522-2.79c2.275-.815 39.09-6.88 39.09-6.88" fill="#cee7e4"/><g fill="#92c6c9"><path d="m48.569 54.875c-5.952-4.072-7.36-12.143-3.143-18.028 4.216-5.884 12.458-7.353 18.41-3.282 5.951 4.072 7.358 12.144 3.142 18.028s-12.458 7.354-18.41 3.282zm21.352-1.15c5.133-7.163 3.42-16.989-3.826-21.946-7.245-4.957-17.28-3.168-22.411 3.995-5.133 7.164-3.42 16.99 3.826 21.947 7.245 4.957 17.28 3.168 22.411-3.995zm-12.225-5.778-.7.188a1 1 0 0 1 -1.225-.707l-2.498-9.321c-.246-.92.3-1.866 1.22-2.113l.7-.188a1 1 0 0 1 1.225.707l2.497 9.322c.247.92-.299 1.866-1.22 2.112zm2.314 5.459-1.4.375a1 1 0 0 1 -1.188-.596l-.037-.111-.356-1.328a1 1 0 0 1 .596-1.188l.111-.037 1.4-.375a1 1 0 0 1 1.189.596l.036.11.356 1.329a1 1 0 0 1 -.707 1.225z" fill-rule="nonzero"/><path d="m54.924 70.524c-.25.144-1.423-.064-1.416-.304s.439-3.512.603-3.783c.164-.272.72-.92 1.136-.713.416.206-.073 4.657-.323 4.8zm14.511-3.064c-.12.343-1.344 1.205-1.517.993-.173-.211-2.226-3.389-2.28-3.766-.053-.377.105-1.84.502-1.615s3.415 4.044 3.295 4.387zm-25.526.782c-.343.11-1.547-.299-1.429-.55.119-.25 2.107-3.609 2.414-3.866.307-.258 1.456-.846 1.588-.563.132.284-2.23 4.87-2.573 4.98zm35.647-11.804c.118.378-.155 1.977-.38 1.918-.226-.059-3.277-1.332-3.522-1.617-.244-.285-.842-1.655-.596-1.735s4.38 1.056 4.498 1.434zm-9.728-34.239c.288-.011 1.224.715 1.104.924-.12.21-2.06 2.902-2.335 3.066-.274.164-1.073.48-1.341.105-.27-.375 2.284-4.084 2.572-4.095zm-12.4-3.11c.279-.195 1.581-.05 1.572.24-.01.29-.513 4.261-.697 4.602s-1.139 1.413-1.268.959c-.128-.455.115-5.606.393-5.801zm-14.427 2.95c.066-.367.908-1.238 1.05-.998.14.24 1.86 3.814 1.924 4.228.064.413.015 1.762-.262 1.73-.276-.03-2.777-4.593-2.712-4.96zm-9.171 8.439c-.016-.396.661-1.87.864-1.754.203.115 2.82 2.135 2.983 2.473.162.339.385 1.816.126 1.83-.258.014-3.956-2.153-3.973-2.549z"/></g></g></svg>